<?xml version="1.0" standalone="no"?>
<!DOCTYPE svg PUBLIC "-//W3C//DTD SVG 20010904//EN"
 "http://www.w3.org/TR/2001/REC-SVG-20010904/DTD/svg10.dtd">
<svg version="1.0" xmlns="http://www.w3.org/2000/svg"
 width="754.000000pt" height="152.000000pt" viewBox="0 0 754.000000 152.000000"
 preserveAspectRatio="xMidYMid meet">

<g transform="translate(0.000000,152.000000) scale(0.100000,-0.100000)"
fill="#000000" stroke="none">
<path d="M0 760 l0 -760 3770 0 3770 0 0 760 0 760 -3770 0 -3770 0 0 -760z
m2802 670 c32 -33 32 -30 13 -195 -6 -50 -6 -50 33 -72 74 -41 102 -72 102
-109 l0 -34 -89 0 -88 0 -7 32 c-3 17 -3 47 0 65 6 31 4 33 -21 33 -26 0 -27
-2 -21 -32 3 -17 3 -47 0 -65 l-6 -33 -89 0 -89 0 0 34 c0 37 28 68 102 109
39 22 39 22 33 72 -19 165 -19 162 13 195 19 18 41 30 57 30 16 0 38 -12 57
-30z m-1691 -229 c64 -65 20 -171 -71 -171 -58 0 -100 42 -100 100 0 91 106
135 171 71z m800 19 c25 -14 49 -62 49 -100 0 -48 -47 -90 -99 -90 -61 0 -104
41 -104 100 0 36 6 48 32 72 33 30 85 37 122 18z m2164 -20 c63 -66 20 -170
-70 -170 -48 0 -90 31 -101 74 -25 101 100 170 171 96z m-215 -64 l0 -84 -35
-6 c-29 -6 -55 -29 -55 -50 0 -3 20 -6 45 -6 l45 0 0 -70 0 -70 -45 0 -45 0 0
-190 0 -190 -95 0 -95 0 0 190 0 190 -25 0 c-24 0 -25 2 -25 70 0 68 1 70 25
70 23 0 25 4 25 45 0 80 47 145 125 173 17 6 58 11 93 11 l62 1 0 -84z m-3446
-164 l71 -213 71 213 71 213 121 3 122 3 -2 -358 -3 -358 -102 -3 -103 -3 0
92 c0 51 7 130 16 177 8 46 14 85 12 87 -2 2 -28 -77 -57 -175 l-54 -180 -93
0 -93 0 -11 38 c-30 109 -99 325 -99 312 -1 -8 6 -50 14 -93 8 -43 15 -119 15
-168 l0 -89 -105 0 -105 0 0 360 0 361 122 -3 122 -3 70 -213z m2061 68 c8
-13 -13 -40 -30 -40 -15 0 -28 27 -19 41 7 12 41 11 49 -1z m590 -15 c0 -30
-39 -27 -43 3 -3 20 0 23 20 20 15 -2 23 -10 23 -23z m-1465 -47 c33 -17 51
-35 68 -68 21 -41 22 -57 22 -242 l0 -199 -97 3 -98 3 -5 175 c-5 173 -5 175
-28 178 -48 7 -52 -8 -52 -190 l0 -169 -97 3 -98 3 0 255 0 255 73 3 c39 2 72
-1 72 -5 0 -4 -9 -32 -20 -61 -11 -29 -20 -60 -20 -70 1 -9 7 0 14 20 33 91
81 128 166 128 38 0 70 -7 100 -22z m2964 -1 c79 -45 81 -51 84 -293 l3 -214
-95 0 -96 0 0 168 c0 117 -4 172 -12 180 -18 18 -56 14 -68 -7 -6 -11 -10 -89
-10 -180 l0 -161 -95 0 -95 0 0 260 0 260 74 0 74 0 -24 -65 c-13 -36 -24 -74
-24 -83 1 -9 9 4 18 31 18 50 62 103 96 117 42 17 129 11 170 -13z m521 -3
c45 -24 80 -69 95 -125 6 -21 9 -113 8 -206 l-3 -168 -72 -3 c-40 -2 -73 -1
-73 0 0 2 9 29 20 61 28 79 25 90 -7 26 -38 -74 -78 -99 -157 -99 -86 0 -143
30 -174 90 -17 33 -22 56 -19 87 9 90 71 132 204 141 86 5 99 14 67 46 -23 23
-51 20 -80 -10 l-26 -25 -69 41 c-38 22 -69 46 -69 52 0 22 82 88 128 103 66
21 176 15 227 -11z m555 4 c33 -17 51 -35 68 -68 21 -41 22 -57 22 -242 l0
-199 -97 3 -98 3 -5 175 c-5 173 -5 175 -28 178 -48 7 -52 -8 -52 -190 l0
-169 -97 3 -98 3 0 255 0 255 73 3 c39 2 72 -1 72 -6 0 -5 -7 -26 -15 -45 -22
-54 -18 -67 8 -22 48 85 151 111 247 63z m483 11 c52 -14 114 -72 129 -120 6
-22 9 -41 7 -43 -2 -2 -43 -15 -90 -28 l-86 -25 -16 29 c-19 34 -61 38 -77 9
-14 -27 -13 -154 2 -169 20 -20 55 -14 75 13 l18 26 88 -41 88 -42 -17 -26
c-53 -84 -106 -111 -217 -112 -117 0 -180 33 -218 115 -14 31 -19 64 -19 146
0 156 26 214 114 255 57 26 151 32 219 13z m518 -4 c84 -30 124 -92 135 -213
l7 -72 -147 0 c-146 0 -146 0 -146 -23 0 -13 5 -28 12 -35 17 -17 58 -15 78 3
15 13 25 12 101 -16 46 -17 85 -32 87 -34 8 -8 -30 -65 -58 -88 -40 -34 -89
-47 -178 -47 -112 0 -176 34 -213 115 -14 31 -19 64 -19 150 0 95 3 117 24
161 24 51 66 87 124 104 45 14 147 11 193 -5z m-5501 -255 l0 -260 -100 0
-100 0 0 260 0 260 100 0 100 0 0 -260z m820 0 l0 -260 -100 0 -100 0 0 260 0
260 100 0 100 0 0 -260z m2140 0 l0 -260 -95 0 -95 0 0 260 0 260 95 0 95 0 0
-260z m-1770 140 c0 -27 -19 -35 -38 -17 -12 13 -13 19 -3 31 16 19 41 10 41
-14z m878 -1 c3 -17 -23 -33 -39 -23 -5 3 -9 14 -9 25 0 15 6 20 22 17 13 -2
24 -10 26 -19z m-331 -52 c140 -89 165 -280 51 -397 -53 -56 -108 -80 -183
-80 -103 0 -186 52 -229 145 -57 119 -17 260 93 329 51 32 65 35 151 32 61 -2
83 -7 117 -29z m-612 -152 c0 -30 -39 -27 -43 3 -3 20 0 23 20 20 15 -2 23
-10 23 -23z m1003 2 c4 -20 -25 -34 -40 -19 -15 15 -1 44 19 40 10 -2 19 -11
21 -21z m-973 -122 c21 -21 25 -33 25 -89 0 -36 -4 -68 -10 -71 -5 -3 -10 -24
-10 -45 0 -37 3 -41 70 -84 68 -44 70 -47 70 -86 l0 -40 -84 0 c-47 0 -88 4
-91 10 -7 11 -10 78 -4 99 5 17 -29 27 -43 13 -6 -6 -6 -17 1 -29 7 -14 7 -32
0 -57 l-10 -36 -84 0 -85 0 0 40 c0 39 3 42 66 83 l65 41 -7 112 c-7 112 -6
112 19 138 34 34 79 34 112 1z m1012 -1 c25 -26 26 -26 19 -138 l-7 -112 65
-41 c63 -41 66 -44 66 -83 l0 -40 -85 0 -84 0 -9 33 c-5 18 -7 47 -4 66 4 30
2 32 -19 29 -18 -2 -23 -8 -21 -23 5 -29 4 -57 -3 -82 -5 -22 -10 -23 -95 -23
l-90 0 0 28 c0 39 22 66 86 104 l55 33 -7 112 c-7 110 -6 111 19 137 35 34 79
34 114 0z m2223 -175 c15 -27 -5 -51 -39 -47 -29 3 -39 31 -21 53 18 21 48 18
60 -6z m1243 0 c15 -24 1 -49 -26 -49 -35 0 -52 23 -37 50 13 24 47 24 63 -1z
m-145 -50 c2 -21 10 -28 33 -33 41 -8 41 -44 -1 -53 -30 -6 -31 -6 -28 -61 3
-51 6 -57 28 -62 16 -4 25 -13 25 -25 0 -29 -63 -33 -95 -7 -20 16 -25 31 -28
85 -3 54 -8 66 -23 70 -25 7 -25 47 0 54 11 3 21 17 25 35 5 25 10 29 33 26
22 -2 29 -9 31 -29z m-1103 -144 c0 -101 -2 -110 -19 -113 -33 -7 -46 25 -46
111 0 90 11 120 43 115 21 -3 22 -8 22 -113z m110 105 c4 -7 12 -7 25 0 34 18
79 12 106 -15 23 -23 25 -31 22 -112 -3 -84 -4 -88 -27 -91 -33 -5 -41 12 -41
94 0 77 -12 94 -51 74 -22 -12 -28 -33 -31 -110 -3 -51 -5 -55 -28 -55 -25 0
-25 1 -28 99 -1 55 0 106 2 113 6 15 42 18 51 3z m364 -4 c32 -17 51 -54 51
-101 0 -73 -43 -115 -117 -115 -91 0 -142 98 -93 178 31 51 101 68 159 38z
m147 -56 l32 -65 32 68 c27 56 36 68 54 65 34 -5 30 -32 -18 -134 -42 -88 -47
-95 -72 -92 -23 3 -33 16 -71 100 -47 101 -50 132 -11 126 16 -2 31 -21 54
-68z m330 45 c23 -23 25 -31 22 -112 l-3 -88 -69 -2 c-74 -2 -99 6 -117 38
-26 50 24 99 101 99 33 0 38 11 15 30 -13 10 -24 11 -57 1 -44 -14 -65 -4 -55
24 9 21 43 34 95 34 33 1 49 -5 68 -24z m294 6 c12 -23 13 -180 1 -199 -4 -8
-19 -12 -32 -10 -23 3 -24 6 -27 102 -1 55 0 106 2 113 8 20 44 16 56 -6z
m232 -10 c30 -27 33 -35 33 -86 0 -51 -3 -59 -33 -86 -24 -22 -42 -29 -72 -29
-79 0 -120 41 -120 121 0 33 6 47 34 75 29 29 41 34 80 34 36 0 52 -6 78 -29z
m130 18 c3 -9 9 -9 25 0 27 14 68 14 93 1 24 -13 40 -69 40 -140 0 -66 -9 -83
-41 -78 -23 3 -24 7 -27 80 -2 64 -6 80 -21 88 -14 7 -24 5 -40 -8 -17 -14
-21 -31 -23 -87 -3 -65 -5 -70 -27 -73 -13 -2 -28 2 -32 10 -14 21 -11 192 3
206 15 15 45 16 50 1z m343 -1 c17 -7 25 -19 25 -36 0 -22 -3 -24 -27 -17 -50
12 -78 11 -78 -4 0 -8 19 -19 43 -26 56 -17 72 -31 72 -65 0 -40 -41 -70 -96
-70 -60 0 -94 17 -94 48 0 22 3 24 28 17 59 -14 90 -16 96 -6 7 11 0 15 -72
42 -57 21 -64 86 -13 114 32 17 81 19 116 3z m-4505 -128 c0 -26 -19 -35 -37
-18 -13 13 -12 17 2 32 19 19 35 13 35 -14z m-407 6 c3 -8 -1 -20 -9 -27 -12
-10 -18 -9 -31 3 -8 9 -12 21 -9 27 10 16 43 14 49 -3z m205 -49 c4 -20 -25
-34 -40 -19 -15 15 -1 44 19 40 10 -2 19 -11 21 -21z"/>
<path d="M4921 706 c-7 -8 -11 -27 -9 -43 2 -23 9 -29 32 -31 16 -2 32 2 37
10 15 23 10 57 -10 68 -26 14 -36 13 -50 -4z"/>
<path d="M5361 854 c0 -11 3 -14 6 -6 3 7 2 16 -1 19 -3 4 -6 -2 -5 -13z"/>
<path d="M6502 818 c-7 -7 -12 -20 -12 -30 0 -15 8 -18 45 -18 41 0 45 2 45
24 0 34 -52 50 -78 24z"/>
<path d="M2687 797 c-52 -16 -103 -60 -128 -109 -31 -61 -24 -152 16 -210 85
-120 261 -116 345 8 34 52 40 145 11 201 -27 53 -82 98 -137 112 -51 13 -58
13 -107 -2z m73 -57 c0 -6 11 -16 25 -22 14 -6 25 -19 25 -29 0 -15 -8 -17
-42 -16 -33 2 -43 -2 -46 -15 -2 -12 10 -24 42 -39 49 -23 63 -49 52 -94 -4
-14 -17 -31 -31 -37 -13 -6 -25 -20 -27 -31 -4 -30 -26 -32 -37 -4 -5 13 -19
27 -30 30 -13 3 -21 13 -21 26 0 24 4 25 32 10 29 -15 68 -3 68 22 0 13 -11
25 -34 34 -73 31 -89 87 -36 127 17 12 30 28 30 35 0 7 7 13 15 13 8 0 15 -5
15 -10z"/>
<path d="M5907 222 c-34 -38 -13 -112 32 -112 27 0 43 25 43 67 0 56 -42 81
-75 45z"/>
<path d="M6387 153 c-23 -6 -18 -37 6 -41 21 -4 47 15 47 34 0 14 -18 16 -53
7z"/>
<path d="M6896 224 c-23 -23 -21 -91 3 -104 27 -14 37 -13 55 6 32 32 11 114
-29 114 -7 0 -21 -7 -29 -16z"/>
</g>
</svg>
