<?xml version="1.0" encoding="UTF-8"?>
<svg version="1.1" xmlns="http://www.w3.org/2000/svg" width="672" height="141">
<path d="M0 0 C221.76 0 443.52 0 672 0 C672 46.53 672 93.06 672 141 C450.24 141 228.48 141 0 141 C0 94.47 0 47.94 0 0 Z " fill="#44464C" transform="translate(0,0)"/>
<path d="M0 0 C7.92 0 15.84 0 24 0 C26.35229546 5.88073866 28.60227296 11.55951027 30.578125 17.5390625 C30.79442566 18.19079437 31.01072632 18.84252625 31.23358154 19.51400757 C31.90860266 21.55006504 32.57938907 23.58748629 33.25 25.625 C33.71325883 27.02483322 34.17679857 28.4245735 34.640625 29.82421875 C35.76365159 33.21508246 36.88289133 36.60718137 38 40 C40.39648792 36.40526813 41.52499036 32.69114821 42.8203125 28.61328125 C43.08383514 27.79627243 43.34735779 26.97926361 43.61886597 26.13749695 C44.45861926 23.53054792 45.29188191 20.92157616 46.125 18.3125 C46.69358383 16.54348263 47.26258922 14.77460068 47.83203125 13.00585938 C49.22704725 8.67236215 50.61326735 4.33619003 52 0 C60.25 0 68.5 0 77 0 C77 23.76 77 47.52 77 72 C70.07 72 63.14 72 56 72 C55.938125 67.4521875 55.938125 67.4521875 55.875 62.8125 C55.85679199 61.88671143 55.83858398 60.96092285 55.81982422 60.00708008 C55.77406717 52.86529084 56.7650646 46.02465224 58 39 C56.70715771 43.18713795 55.41593632 47.37477406 54.125 51.5625 C53.76019531 52.74392578 53.39539062 53.92535156 53.01953125 55.14257812 C52.48779297 56.86831055 52.48779297 56.86831055 51.9453125 58.62890625 C51.62062988 59.68150635 51.29594727 60.73410645 50.96142578 61.81860352 C49.9389755 65.20193251 48.97098742 68.60154401 48 72 C41.73 72 35.46 72 29 72 C28.29875 69.751875 27.5975 67.50375 26.875 65.1875 C23.93913584 55.78457122 20.970719 46.39196384 18 37 C18.2165625 37.93457031 18.433125 38.86914062 18.65625 39.83203125 C21.02032297 50.73233206 21.24618453 60.83963458 21 72 C14.07 72 7.14 72 0 72 C0 48.24 0 24.48 0 0 Z " fill="#CDCDCD" transform="translate(4,28)"/>
<path d="M0 0 C3.48738373 2.27833085 5.34144414 5.2683994 6.53587341 9.20880127 C6.95494147 11.30202217 7.06966818 13.17501259 7.06274414 15.30761719 C7.06266861 16.08812439 7.06259308 16.86863159 7.06251526 17.67279053 C7.05735397 18.50522278 7.05219269 19.33765503 7.046875 20.1953125 C7.04546005 21.05529846 7.0440451 21.91528442 7.04258728 22.80133057 C7.03699972 25.54206859 7.0244495 28.28272426 7.01171875 31.0234375 C7.00670214 32.8841134 7.00213952 34.74479059 6.99804688 36.60546875 C6.9878862 41.16151542 6.96830836 45.71738451 6.94921875 50.2734375 C0.34921875 50.2734375 -6.25078125 50.2734375 -13.05078125 50.2734375 C-13.38078125 38.7234375 -13.71078125 27.1734375 -14.05078125 15.2734375 C-15.70078125 15.2734375 -17.35078125 15.2734375 -19.05078125 15.2734375 C-21.02907197 17.25172822 -20.30582057 21.09670777 -20.3671875 23.80859375 C-20.3879686 24.56184433 -20.40874969 25.31509491 -20.43016052 26.09117126 C-20.4957355 28.5059974 -20.55457746 30.92093548 -20.61328125 33.3359375 C-20.65645895 34.96941279 -20.70007298 36.6028766 -20.74414062 38.23632812 C-20.85224922 42.24858468 -20.95126239 46.26092174 -21.05078125 50.2734375 C-27.65078125 50.2734375 -34.25078125 50.2734375 -41.05078125 50.2734375 C-41.05078125 33.1134375 -41.05078125 15.9534375 -41.05078125 -1.7265625 C-36.10078125 -1.7265625 -31.15078125 -1.7265625 -26.05078125 -1.7265625 C-26.50453125 -0.2209375 -26.95828125 1.2846875 -27.42578125 2.8359375 C-28.66745861 6.97290045 -29.87613443 11.1169949 -31.05078125 15.2734375 C-30.39078125 15.2734375 -29.73078125 15.2734375 -29.05078125 15.2734375 C-28.98890625 14.0978125 -28.92703125 12.9221875 -28.86328125 11.7109375 C-28.2428743 6.91765639 -26.501186 3.65233127 -23.05078125 0.2734375 C-15.38410287 -4.2970823 -7.83423164 -3.85559044 0 0 Z " fill="#CCCCCC" transform="translate(156.05078125,49.7265625)"/>
<path d="M0 0 C6.02884365 3.71992481 9.48196007 8.25459097 11.9375 14.8125 C12.42274378 17.79262764 12.40911335 20.67457526 12.328125 23.6875 C12.32246521 24.49743408 12.31680542 25.30736816 12.31097412 26.1418457 C12.2887902 28.69936167 12.23863203 31.25541591 12.1875 33.8125 C12.16741157 35.55857335 12.14916493 37.30466892 12.1328125 39.05078125 C12.08898505 43.30524075 12.02008721 47.55862357 11.9375 51.8125 C6.9875 51.8125 2.0375 51.8125 -3.0625 51.8125 C-2.28125 49.2734375 -1.5 46.734375 -0.71875 44.1953125 C0.02600794 41.90305353 0.02600794 41.90305353 -0.0625 39.8125 C-0.29324219 40.34359375 -0.52398437 40.8746875 -0.76171875 41.421875 C-3.2206231 46.74788125 -5.66895934 50.11572967 -11.0625 52.8125 C-18.33582343 53.39436587 -24.53549524 53.19255604 -31.0625 49.8125 C-34.87820551 45.89638119 -37.34049378 41.96685429 -37.4375 36.4375 C-37.30913695 31.8390826 -36.21142274 29.28438918 -33.0625 25.8125 C-27.05318964 21.46237278 -22.09120152 20.68260462 -14.8125 20.75 C-12.91757812 20.76353516 -12.91757812 20.76353516 -10.984375 20.77734375 C-10.02015625 20.78894531 -9.0559375 20.80054687 -8.0625 20.8125 C-8.5575 18.3375 -8.5575 18.3375 -9.0625 15.8125 C-14.93786761 15.25294118 -15.55648045 16.1418203 -21.0625 19.8125 C-27.4975 15.8525 -27.4975 15.8525 -34.0625 11.8125 C-31.79423391 6.14183479 -31.79423391 6.14183479 -28.3125 3.625 C-27.65765625 3.13644531 -27.0028125 2.64789063 -26.328125 2.14453125 C-18.88375103 -2.23224724 -8.12439907 -3.14954678 0 0 Z " fill="#CDCDCD" transform="translate(501.0625,48.1875)"/>
<path d="M0 0 C6.51061083 3.96072945 9.59248448 8.45059396 12.96484375 15.1953125 C13.63043767 23.41157843 13.91436683 31.27662433 8.96484375 38.1953125 C2.67446598 45.34118165 -3.98018809 49.02800367 -13.47265625 49.6953125 C-20.66018228 49.40680796 -26.77709561 45.65179027 -31.97265625 40.8828125 C-38.1145843 34.10351456 -38.37388695 27.49861784 -38.43359375 18.5625 C-37.64622354 11.90844982 -33.90559282 6.62298211 -29.03515625 2.1953125 C-20.0786548 -4.1588543 -9.81106009 -5.07407448 0 0 Z " fill="#434950" transform="translate(281.03515625,64.8046875)"/>
<path d="M0 0 C3.86091927 2.9872806 6.65722654 7.12095609 7.57919312 11.9564209 C7.71512629 14.4544542 7.70433227 16.90572659 7.62890625 19.40625 C7.62183151 20.30496826 7.61475677 21.20368652 7.60746765 22.12963867 C7.57969589 24.97272446 7.51699284 27.81376942 7.453125 30.65625 C7.42801975 32.59502344 7.4052105 34.53382806 7.38476562 36.47265625 C7.33419607 41.20192082 7.23631924 45.92682809 7.140625 50.65625 C0.540625 50.65625 -6.059375 50.65625 -12.859375 50.65625 C-13.189375 39.10625 -13.519375 27.55625 -13.859375 15.65625 C-15.509375 15.65625 -17.159375 15.65625 -18.859375 15.65625 C-20.83766572 17.63454072 -20.11441432 21.47952027 -20.17578125 24.19140625 C-20.19656235 24.94465683 -20.21734344 25.69790741 -20.23875427 26.47398376 C-20.30432925 28.8888099 -20.36317121 31.30374798 -20.421875 33.71875 C-20.4650527 35.35222529 -20.50866673 36.9856891 -20.55273438 38.61914062 C-20.66084297 42.63139718 -20.75985614 46.64373424 -20.859375 50.65625 C-27.129375 50.65625 -33.399375 50.65625 -39.859375 50.65625 C-39.859375 33.82625 -39.859375 16.99625 -39.859375 -0.34375 C-35.239375 -0.34375 -30.619375 -0.34375 -25.859375 -0.34375 C-27.509375 4.93625 -29.159375 10.21625 -30.859375 15.65625 C-30.199375 15.65625 -29.539375 15.65625 -28.859375 15.65625 C-28.7975 14.480625 -28.735625 13.305 -28.671875 12.09375 C-28.05146805 7.30046889 -26.30977975 4.03514377 -22.859375 0.65625 C-15.15446856 -3.93705961 -8.02735934 -3.21094374 0 0 Z " fill="#CECECE" transform="translate(559.859375,49.34375)"/>
<path d="M0 0 C4.26689361 3.22194007 7.03983033 6.01264149 8.0625 11.3125 C8.1450943 12.68586465 8.18037931 14.06263742 8.17602539 15.43847656 C8.17594986 16.23900452 8.17587433 17.03953247 8.17579651 17.86431885 C8.17063522 18.71862488 8.16547394 19.57293091 8.16015625 20.453125 C8.1587413 21.33530701 8.15732635 22.21748901 8.15586853 23.12640381 C8.15028001 25.93847065 8.13772961 28.7504573 8.125 31.5625 C8.11998352 33.47135302 8.11542087 35.38020728 8.11132812 37.2890625 C8.10116609 41.96359728 8.08158842 46.63795907 8.0625 51.3125 C1.7925 51.3125 -4.4775 51.3125 -10.9375 51.3125 C-10.99808594 48.86972656 -11.05867188 46.42695312 -11.12109375 43.91015625 C-11.18283798 41.55375937 -11.24624433 39.1974127 -11.30981445 36.84106445 C-11.35322297 35.19885697 -11.39489358 33.55660261 -11.43481445 31.91430664 C-11.4923744 29.55861255 -11.55610892 27.20315572 -11.62109375 24.84765625 C-11.63780624 24.10910904 -11.65451874 23.37056183 -11.67173767 22.6096344 C-11.47298013 19.16949373 -11.47298013 19.16949373 -12.9375 16.3125 C-15.4375 16.14583333 -15.4375 16.14583333 -17.9375 16.3125 C-19.91579072 18.29079072 -19.19253932 22.13577027 -19.25390625 24.84765625 C-19.27468735 25.60090683 -19.29546844 26.35415741 -19.31687927 27.13023376 C-19.38245425 29.5450599 -19.44129621 31.95999798 -19.5 34.375 C-19.5431777 36.00847529 -19.58679173 37.6419391 -19.63085938 39.27539062 C-19.73896797 43.28764718 -19.83798114 47.29998424 -19.9375 51.3125 C-26.2075 51.3125 -32.4775 51.3125 -38.9375 51.3125 C-38.9375 34.4825 -38.9375 17.6525 -38.9375 0.3125 C-34.3175 0.3125 -29.6975 0.3125 -24.9375 0.3125 C-25.9275 4.2725 -26.9175 8.2325 -27.9375 12.3125 C-27.380625 11.095625 -26.82375 9.87875 -26.25 8.625 C-24.16549495 4.47072139 -21.75771149 0.2545835 -17.11328125 -1.296875 C-11.41519298 -2.3198711 -5.22742476 -2.80606351 0 0 Z " fill="#CFCFCF" transform="translate(450.9375,48.6875)"/>
<path d="M0 0 C4.77362184 2.62081199 7.58968365 5.09328457 10 10 C11.33364387 16.01655245 12 21.83864934 12 28 C2.43 28 -7.14 28 -17 28 C-16.67 29.98 -16.34 31.96 -16 34 C-10.67829506 34.29562367 -10.67829506 34.29562367 -6 32 C-4.09887695 32.32373047 -4.09887695 32.32373047 -1.98828125 33.1171875 C-1.23095703 33.39433594 -0.47363281 33.67148438 0.30664062 33.95703125 C1.09232422 34.25996094 1.87800781 34.56289062 2.6875 34.875 C3.48478516 35.17019531 4.28207031 35.46539062 5.10351562 35.76953125 C7.07354548 36.50091958 9.0373982 37.24890699 11 38 C9.8636481 42.00801952 8.95737292 44.61090079 5.6875 47.25 C4.82705078 47.96929687 4.82705078 47.96929687 3.94921875 48.703125 C-1.1858136 52.11961947 -5.81803854 52.36509998 -11.8125 52.375 C-12.58142578 52.39949219 -13.35035156 52.42398438 -14.14257812 52.44921875 C-20.4549347 52.48118005 -25.80774487 50.94673622 -30.5300293 46.58764648 C-36.16579304 40.19690114 -36.33940579 34.29690445 -36.3125 26.1875 C-36.32861328 25.22779297 -36.34472656 24.26808594 -36.36132812 23.27929688 C-36.366325 15.95888058 -35.50256586 10.1460828 -30.8125 4.25 C-21.76035732 -2.99171415 -10.9117957 -4.45379416 0 0 Z " fill="#CFCFCF" transform="translate(660,49)"/>
<path d="M0 0 C3.97553071 2.49445064 7.22881987 4.99238231 8.9453125 9.4609375 C9.43534292 11.64881981 9.79759528 13.76848793 10 16 C7.94037148 16.67548578 5.87715678 17.34004312 3.8125 18 C2.66394531 18.37125 1.51539063 18.7425 0.33203125 19.125 C-2.66556061 19.91217535 -4.93294075 20.3536789 -8 20 C-9 18.66666667 -10 17.33333333 -11 16 C-13.58462162 15.58282721 -13.58462162 15.58282721 -16 16 C-17.82116003 17.82116003 -17.1323508 20.30671764 -17.13671875 22.7265625 C-17.13091797 23.85191406 -17.13091797 23.85191406 -17.125 25 C-17.12886719 25.75023438 -17.13273438 26.50046875 -17.13671875 27.2734375 C-17.47675541 30.93606117 -17.47675541 30.93606117 -16 34 C-13.62694422 34.41780879 -13.62694422 34.41780879 -11 34 C-9.68 32.68 -8.36 31.36 -7 30 C-1.72 32.64 3.56 35.28 9 38 C6.73710819 44.78867543 6.73710819 44.78867543 3.6875 47.25 C2.82705078 47.96929687 2.82705078 47.96929687 1.94921875 48.703125 C-5.35047739 53.55983666 -15.21769244 52.95075311 -23.61328125 51.5703125 C-29.50272633 49.71771036 -32.99743024 45.34795948 -36.05566406 40.23510742 C-37.96729545 35.71055071 -37.36944267 30.59043524 -37.375 25.75 C-37.39949219 24.64269531 -37.42398438 23.53539062 -37.44921875 22.39453125 C-37.47285875 15.76745092 -37.06619387 10.42329888 -33 5 C-30.74609375 2.94140625 -30.74609375 2.94140625 -28.4375 1.5625 C-27.67308594 1.08941406 -26.90867187 0.61632813 -26.12109375 0.12890625 C-18.62189495 -3.86238003 -7.75998616 -3.02507935 0 0 Z " fill="#CECECE" transform="translate(610,49)"/>
<path d="M0 0 C0 5.61 0 11.22 0 17 C-2.31 17.66 -4.62 18.32 -7 19 C-8.51792644 21.49641128 -8.51792644 21.49641128 -9 24 C-6.03 24 -3.06 24 0 24 C0 28.29 0 32.58 0 37 C-2.97 37 -5.94 37 -9 37 C-9 49.54 -9 62.08 -9 75 C-15.27 75 -21.54 75 -28 75 C-28 62.46 -28 49.92 -28 37 C-29.65 37 -31.3 37 -33 37 C-33 32.71 -33 28.42 -33 24 C-31.35 24 -29.7 24 -28 24 C-28.05800781 23.29875 -28.11601562 22.5975 -28.17578125 21.875 C-28.50809327 14.88695293 -27.77491808 10.27230538 -23 5 C-15.47287704 -0.87115591 -9.28605584 -0.08519317 0 0 Z " fill="#CFCFCF" transform="translate(380,25)"/>
<path d="M0 0 C6.6 0 13.2 0 20 0 C20 17.16 20 34.32 20 52 C13.4 52 6.8 52 0 52 C0 34.84 0 17.68 0 0 Z " fill="#CBCBCC" transform="translate(170,48)"/>
<path d="M0 0 C6.6 0 13.2 0 20 0 C20 17.16 20 34.32 20 52 C13.4 52 6.8 52 0 52 C0 34.84 0 17.68 0 0 Z " fill="#CBCBCC" transform="translate(88,48)"/>
<path d="M0 0 C6.27 0 12.54 0 19 0 C19 17.16 19 34.32 19 52 C12.73 52 6.46 52 0 52 C0 34.84 0 17.68 0 0 Z " fill="#CECECF" transform="translate(385,48)"/>
<path d="M0 0 C1.90234375 0.46484375 1.90234375 0.46484375 4.33984375 2.83984375 C6.48714183 6.44730452 7.03950499 8.28137677 7.02734375 12.46484375 C7.03121094 13.79515625 7.03121094 13.79515625 7.03515625 15.15234375 C6.90234375 17.46484375 6.90234375 17.46484375 5.90234375 19.46484375 C5.16875507 22.65435976 4.96643509 25.30615203 5.90234375 28.46484375 C8.27024845 30.4932327 10.63005614 31.79800051 13.421875 33.17578125 C17.51918284 35.30509084 17.51918284 35.30509084 18.90234375 37.46484375 C18.90234375 40.10484375 18.90234375 42.74484375 18.90234375 45.46484375 C12.63234375 45.46484375 6.36234375 45.46484375 -0.09765625 45.46484375 C-1.09765625 35.83984375 -1.09765625 35.83984375 -1.09765625 32.46484375 C-2.08765625 32.13484375 -3.07765625 31.80484375 -4.09765625 31.46484375 C-3.91203125 32.68171875 -3.72640625 33.89859375 -3.53515625 35.15234375 C-2.97726936 38.80960225 -3.31487789 40.55095196 -4.09765625 44.46484375 C-10.03765625 44.46484375 -15.97765625 44.46484375 -22.09765625 44.46484375 C-22.09765625 36.46484375 -22.09765625 36.46484375 -20.5234375 34.44140625 C-19.82605469 33.99539062 -19.12867188 33.549375 -18.41015625 33.08984375 C-17.68441406 32.61546875 -16.95867187 32.14109375 -16.2109375 31.65234375 C-13.89947386 30.35348063 -11.63186613 29.25678434 -9.09765625 28.46484375 C-9.26265625 27.28921875 -9.42765625 26.11359375 -9.59765625 24.90234375 C-10.06819027 20.49196515 -10.30677798 16.08522548 -10.41015625 11.65234375 C-10.44753906 10.38777344 -10.48492187 9.12320313 -10.5234375 7.8203125 C-10.09765625 4.46484375 -10.09765625 4.46484375 -8.328125 2.05078125 C-5.34418519 -0.07089925 -3.56251257 -0.16585254 0 0 Z " fill="#41A2CB" transform="translate(220.09765625,89.53515625)"/>
<path d="M0 0 C4.10520906 0.73307305 5.63146954 1.62519781 8.5 4.625 C9.0234375 7.98046875 9.0234375 7.98046875 8.875 11.8125 C8.85501953 12.47580322 8.83503906 13.13910645 8.81445312 13.82250977 C8.63538497 18.79225598 8.1908326 23.70281774 7.5 28.625 C8.49 28.934375 8.49 28.934375 9.5 29.25 C12.11287263 30.44756662 14.41241872 31.68120798 16.8125 33.25 C17.50988281 33.69601563 18.20726562 34.14203125 18.92578125 34.6015625 C20.5 36.625 20.5 36.625 20.5 44.625 C14.56 44.625 8.62 44.625 2.5 44.625 C1.29464286 35.51785714 1.29464286 35.51785714 2.5 31.625 C1.18 31.625 -0.14 31.625 -1.5 31.625 C-1.29375 32.841875 -1.0875 34.05875 -0.875 35.3125 C-0.17619214 39.43546638 -0.75263214 40.25658034 -2.5 44.625 C-8.44 44.625 -14.38 44.625 -20.5 44.625 C-20.5 37.625 -20.5 37.625 -18.9609375 35.48046875 C-14.95361235 32.2761095 -11.62380955 29.77785715 -6.5 28.625 C-6.64107747 27.16619891 -6.78802415 25.70796449 -6.9375 24.25 C-7.01871094 23.43789062 -7.09992188 22.62578125 -7.18359375 21.7890625 C-7.39090114 19.58227195 -7.39090114 19.58227195 -8.5 17.625 C-9.08676714 12.49497871 -9.61396418 7.28040349 -6.4375 2.9375 C-3.5 0.625 -3.5 0.625 0 0 Z " fill="#41A3CD" transform="translate(318.5,89.375)"/>
<path d="M0 0 C2.9375 1.6875 2.9375 1.6875 5 5 C5.46521739 9.3687656 5.43219655 13.62864064 5 18 C4.67 18.33 4.34 18.66 4 19 C3.10842894 23.10303829 3.10842894 23.10303829 4 27 C6.6485024 29.24037252 9.36860529 30.87144738 12.3984375 32.5546875 C15 34 15 34 17 36 C17 38.64 17 41.28 17 44 C11.06 44 5.12 44 -1 44 C-2.125 34.375 -2.125 34.375 -1 31 C-2.65 31 -4.3 31 -6 31 C-5.87431641 31.90492187 -5.87431641 31.90492187 -5.74609375 32.828125 C-5.64425781 33.62734375 -5.54242188 34.4265625 -5.4375 35.25 C-5.33308594 36.03890625 -5.22867187 36.8278125 -5.12109375 37.640625 C-5 40 -5 40 -6 44 C-11.94 44 -17.88 44 -24 44 C-24 36 -24 36 -22.42578125 34.01171875 C-21.72839844 33.57472656 -21.03101563 33.13773438 -20.3125 32.6875 C-19.58675781 32.20410156 -18.86101562 31.72070312 -18.11328125 31.22265625 C-16 30 -16 30 -13 28.625 C-10.82158394 27.21802627 -10.82158394 27.21802627 -10.6640625 25.078125 C-10.57812277 22.59178901 -10.57812277 22.59178901 -11 19 C-11.33 18.67 -11.66 18.34 -12 18 C-13.10918224 6.7814139 -13.10918224 6.7814139 -9.9375 1.6875 C-6.20490287 -0.45675792 -4.24000997 -0.75714464 0 0 Z " fill="#41A4CE" transform="translate(272,2)"/>
<path d="M0 0 C6.51061083 3.96072945 9.59248448 8.45059396 12.96484375 15.1953125 C13.63043767 23.41157843 13.91436683 31.27662433 8.96484375 38.1953125 C2.67446598 45.34118165 -3.98018809 49.02800367 -13.47265625 49.6953125 C-20.66018228 49.40680796 -26.77709561 45.65179027 -31.97265625 40.8828125 C-38.1145843 34.10351456 -38.37388695 27.49861784 -38.43359375 18.5625 C-37.64622354 11.90844982 -33.90559282 6.62298211 -29.03515625 2.1953125 C-20.0786548 -4.1588543 -9.81106009 -5.07407448 0 0 Z M-28.91015625 10.2578125 C-33.02331827 15.94365411 -33.99429332 20.21159572 -33.03515625 27.1953125 C-30.73075108 34.30399095 -27.47782241 38.49674489 -21.03515625 42.1953125 C-15.47070769 44.05012869 -9.82333524 44.19024802 -4.265625 42.20703125 C1.40544795 39.18869407 4.68909161 35.77710151 7.18359375 29.84375 C8.71080678 24.66649785 9.13774254 20.03313117 7.04296875 14.96484375 C3.95712816 9.62473649 0.04087064 5.98966152 -5.28515625 2.8828125 C-15.09411388 0.43057309 -22.27821442 2.6591153 -28.91015625 10.2578125 Z " fill="#41A0C9" transform="translate(281.03515625,64.8046875)"/>
<path d="M0 0 C3.0220794 1.74450506 5.41651082 3.83302164 7 7 C7.40417552 9.96395382 7.56382171 12.08904926 5.953125 14.69140625 C4.15636794 16.88450678 2.55808759 18.7209562 0 20 C-7.13230769 20.70153846 -7.13230769 20.70153846 -10.9375 17.625 C-13.9297772 13.81664721 -14.37998996 11.844872 -14 7 C-11.0087736 0.73266849 -6.85385652 -1.30611228 0 0 Z " fill="#CCCCCC" transform="translate(398,24)"/>
<path d="M0 0 C2.8100346 1.79363911 4.50940468 3.01880935 6 6 C6.5811138 13.08958838 6.5811138 13.08958838 4.125 16.9375 C0.87071886 20.09606699 -1.42411752 20.33855508 -5.9609375 20.2890625 C-9.16544562 19.83478357 -10.82724211 18.30444019 -13 16 C-14.20190901 12.39427296 -14.32670315 9.7897565 -14 6 C-10.26747896 0.27680107 -6.74763808 -0.96948823 0 0 Z " fill="#CDCDCD" transform="translate(102,24)"/>
<path d="M0 0 C2.9375 2.4375 2.9375 2.4375 5 5 C5.33 5.33 5.66 5.66 6 6 C6.38387346 10.99035504 6.08713243 13.99816167 3 18 C-1.01544992 20.67696661 -4.28325925 20.92517507 -9 20 C-12.16664776 17.41498142 -13.5764456 15.94003044 -14.4375 11.99609375 C-14.66167019 8.30429097 -14.10710782 6.16780225 -12.125 3.0625 C-8.53105139 -0.42574424 -4.86901199 -0.86746765 0 0 Z " fill="#CECECE" transform="translate(184,24)"/>
<path d="M0 0 C1.32 0 2.64 0 4 0 C4 1.32 4 2.64 4 4 C5.32 4 6.64 4 8 4 C8 5.65 8 7.3 8 9 C5.03 8.67 2.06 8.34 -1 8 C-0.33676902 11.11028632 -0.33676902 11.11028632 2.03125 12.140625 C2.8459375 12.50671875 3.660625 12.8728125 4.5 13.25 C8.10679656 15.16593033 8.81893528 15.55914676 10.4375 19.5 C10 23 10 23 7.125 25.6875 C6.09375 26.450625 5.0625 27.21375 4 28 C3.05563651 30.16531168 3.05563651 30.16531168 3 32 C1.68 32 0.36 32 -1 32 C-1 30.68 -1 29.36 -1 28 C-2.98 27.67 -4.96 27.34 -7 27 C-6.67 25.35 -6.34 23.7 -6 22 C-2.7 22.33 0.6 22.66 4 23 C2.83029778 19.49089335 2.14951072 19.21825302 -0.9375 17.4375 C-3.30537576 16.05802973 -5.04971701 14.95028299 -7 13 C-6.79828958 9.83987005 -6.51579075 7.70335103 -4.625 5.125 C-3 4 -3 4 0 4 C0 2.68 0 1.36 0 0 Z " fill="#419FC7" transform="translate(267,72)"/>
<path d="M0 0 C9.57 0 19.14 0 29 0 C29 4.29 29 8.58 29 13 C28.01 13.495 28.01 13.495 27 14 C27.33 12.68 27.66 11.36 28 10 C27.236875 9.9175 26.47375 9.835 25.6875 9.75 C21.37375537 8.87262821 17.54797676 7.32343714 13.48828125 5.64453125 C12.66714844 5.43183594 11.84601562 5.21914062 11 5 C10.01 5.66 9.02 6.32 8 7 C4.375 7.1875 4.375 7.1875 1 7 C0.67 6.67 0.34 6.34 0 6 C0 4.02 0 2.04 0 0 Z " fill="#4B4D53" transform="translate(643,77)"/>
<path d="M0 0 C4.55555556 0.55555556 4.55555556 0.55555556 6 2 C6.125 5 6.125 5 6 8 C5 9 5 9 2 9.125 C-1 9 -1 9 -2 8 C-2.1875 5.0625 -2.1875 5.0625 -2 2 C-1.34 1.34 -0.68 0.68 0 0 Z " fill="#4A4C51" transform="translate(487,75)"/>
<path d="M0 0 C0.33 1.65 0.66 3.3 1 5 C-3.29 5 -7.58 5 -12 5 C-6.91729323 -1.35338346 -6.91729323 -1.35338346 0 0 Z " fill="#4C4E53" transform="translate(492,64)"/>
<path d="M0 0 C2.33944736 0.28730055 4.6739143 0.61936779 7 1 C7 2.65 7 4.3 7 6 C4.03 6 1.06 6 -2 6 C-1.125 1.125 -1.125 1.125 0 0 Z " fill="#4D4F55" transform="translate(645,64)"/>
<path d="M0 0 C2.12600304 3.18900456 3.02136239 5.90414569 4.125 9.5625 C4.47820313 10.71878906 4.83140625 11.87507813 5.1953125 13.06640625 C6 16 6 16 6 18 C5.34 18 4.68 18 4 18 C3.67 18.66 3.34 19.32 3 20 C2.49550598 17.41747107 1.99625699 14.83411297 1.5 12.25 C1.35691406 11.52039063 1.21382812 10.79078125 1.06640625 10.0390625 C0.41111121 6.60656468 0 3.50830509 0 0 Z " fill="#626468" transform="translate(21,61)"/>
<path d="M0 0 C1.65 0.33 3.3 0.66 5 1 C4.67 2.65 4.34 4.3 4 6 C2.35 5.67 0.7 5.34 -1 5 C-0.67 3.35 -0.34 1.7 0 0 Z " fill="#4194B9" transform="translate(237,42)"/>
<path d="M0 0 C2.0625 0.4375 2.0625 0.4375 4 1 C3.67 2.65 3.34 4.3 3 6 C1.35 5.67 -0.3 5.34 -2 5 C-1.125 1.125 -1.125 1.125 0 0 Z " fill="#4196BB" transform="translate(288,129)"/>
<path d="M0 0 C2.125 0.9375 2.125 0.9375 4 2 C3.67 3.32 3.34 4.64 3 6 C1.35 5.67 -0.3 5.34 -2 5 C-2 3.68 -2 2.36 -2 1 C-1.34 0.67 -0.68 0.34 0 0 Z " fill="#4199C0" transform="translate(247,129)"/>
<path d="M0 0 C1.67542976 0.28604898 3.34385343 0.61781233 5 1 C4.67 2.32 4.34 3.64 4 5 C2.68 5 1.36 5 0 5 C-0.5625 3.0625 -0.5625 3.0625 -1 1 C-0.67 0.67 -0.34 0.34 0 0 Z " fill="#4199BF" transform="translate(216,78)"/>
<path d="M0 0 C1.65 0 3.3 0 5 0 C4.67 2.31 4.34 4.62 4 7 C3.01 7 2.02 7 1 7 C0.67 4.69 0.34 2.38 0 0 Z " fill="#435763" transform="translate(266,33)"/>
<path d="M0 0 C1.98 0.495 1.98 0.495 4 1 C3.67 2.65 3.34 4.3 3 6 C1.68 5.67 0.36 5.34 -1 5 C-0.67 3.35 -0.34 1.7 0 0 Z " fill="#419AC0" transform="translate(311,58)"/>
<path d="M0 0 C1.98 0.495 1.98 0.495 4 1 C3.67 2.65 3.34 4.3 3 6 C1.68 5.67 0.36 5.34 -1 5 C-0.67 3.35 -0.34 1.7 0 0 Z " fill="#419BC2" transform="translate(297,42)"/>
<path d="M0 0 C1.32 0 2.64 0 4 0 C4 1.65 4 3.3 4 5 C2.68 5 1.36 5 0 5 C-0.5625 3.0625 -0.5625 3.0625 -1 1 C-0.67 0.67 -0.34 0.34 0 0 Z " fill="#419CC4" transform="translate(223,58)"/>
<path d="M0 0 C2.475 0.495 2.475 0.495 5 1 C5 2.32 5 3.64 5 5 C3.35 5 1.7 5 0 5 C0 3.35 0 1.7 0 0 Z " fill="#419DC5" transform="translate(266,134)"/>
<path d="M0 0 C1.98 0.495 1.98 0.495 4 1 C3.67 2.65 3.34 4.3 3 6 C1.68 5.34 0.36 4.68 -1 4 C-0.67 2.68 -0.34 1.36 0 0 Z " fill="#419DC5" transform="translate(317,78)"/>
<path d="M0 0 C1.32 0 2.64 0 4 0 C3.67 1.65 3.34 3.3 3 5 C2.01 4.67 1.02 4.34 0 4 C0 2.68 0 1.36 0 0 Z " fill="#444F58" transform="translate(317,121)"/>
<path d="M0 0 C0.33 0 0.66 0 1 0 C1 2.64 1 5.28 1 8 C0.01 8 -0.98 8 -2 8 C-1.125 1.125 -1.125 1.125 0 0 Z " fill="#56585D" transform="translate(60,72)"/>
</svg>
