<?xml version="1.0" encoding="UTF-8"?>
<svg version="1.1" xmlns="http://www.w3.org/2000/svg" width="1492" height="501">
<path d="M0 0 C492.36 0 984.72 0 1492 0 C1492 165.33 1492 330.66 1492 501 C999.64 501 507.28 501 0 501 C0 335.67 0 170.34 0 0 Z " fill="#FEFEFE" transform="translate(0,0)"/>
<path d="M0 0 C1.1266658 0.00140488 1.1266658 0.00140488 2.27609253 0.00283813 C28.66945069 0.07399438 54.39812379 3.79423408 79.5 12.1875 C80.31436523 12.45369141 81.12873047 12.71988281 81.96777344 12.99414062 C109.97034747 22.24825498 135.84728468 36.29473684 158.5 55.1875 C159.34739746 55.88262695 159.34739746 55.88262695 160.21191406 56.59179688 C173.55792972 67.55432692 185.92230481 79.50569613 196.5 93.1875 C197.26183594 94.12078125 198.02367187 95.0540625 198.80859375 96.015625 C225.02361523 128.7319718 242.48073011 170.7459824 248.5 212.1875 C248.6544458 213.21520508 248.6544458 213.21520508 248.81201172 214.26367188 C252.13580515 237.47246647 252.20266878 263.02702486 248.5 286.1875 C248.29793945 287.48518311 248.29793945 287.48518311 248.09179688 288.80908203 C240.42705894 335.65191225 218.83988637 380.4659941 186.5 415.1875 C185.30759878 416.55825183 184.11986117 417.93307863 182.9375 419.3125 C164.23874692 440.7255882 140.50706545 457.0439278 115.5 470.1875 C114.80052246 470.56229492 114.10104492 470.93708984 113.38037109 471.32324219 C79.32328932 489.37548717 39.97984983 497.66757761 1.625 497.5625 C0.83007141 497.56162384 0.03514282 497.56074768 -0.78387451 497.55984497 C-60.6440458 497.34453133 -119.68188303 473.98915239 -163.5 433.1875 C-164.82937633 432.03707817 -166.16257608 430.89105612 -167.5 429.75 C-176.03864652 422.27653675 -183.49852512 414.10174895 -190.5 405.1875 C-191.29148437 404.20136719 -192.08296875 403.21523438 -192.8984375 402.19921875 C-210.22248376 380.25724849 -223.47961052 355.64207994 -232.5 329.1875 C-232.77924316 328.38650879 -233.05848633 327.58551758 -233.34619141 326.76025391 C-237.49952543 314.75983206 -240.32451957 302.69032431 -242.5 290.1875 C-242.71527344 288.95773437 -242.93054688 287.72796875 -243.15234375 286.4609375 C-253.08053503 225.73229301 -238.34499463 158.22413228 -202.5625 107.9375 C-200.90108423 105.66720202 -199.20577066 103.42458687 -197.5 101.1875 C-197.06574707 100.6104834 -196.63149414 100.0334668 -196.18408203 99.43896484 C-189.46193693 90.53095597 -182.23348195 82.22857818 -174.5 74.1875 C-173.79593018 73.45055908 -173.79593018 73.45055908 -173.07763672 72.69873047 C-166.62071718 65.97041677 -159.83270936 59.93884209 -152.5 54.1875 C-151.5615625 53.42050781 -150.623125 52.65351562 -149.65625 51.86328125 C-107.59707136 18.20509834 -53.66633241 -0.08676553 0 0 Z " fill="#5C5C5C" transform="translate(922.5,2.8125)"/>
<path d="M0 0 C1.26947983 0.00131424 1.26947983 0.00131424 2.56460571 0.00265503 C15.27105394 0.04610487 27.35093796 0.54979066 39.5625 4.375 C40.33964355 4.61105957 41.11678711 4.84711914 41.91748047 5.09033203 C59.37046419 10.5468081 76.75487657 19.09461195 89.5625 32.375 C91.30649517 33.92345632 93.05669193 35.46495142 94.8125 37 C100.35998017 42.02553983 105.04509394 47.41788628 109.5625 53.375 C110.15546875 54.15230469 110.7484375 54.92960937 111.359375 55.73046875 C118.8095402 65.93172706 124.92475438 76.92964772 129.375 88.75 C129.64054687 89.44279053 129.90609375 90.13558105 130.1796875 90.84936523 C135.17984813 104.83379688 137.21719812 118.71583118 137.02905273 133.51660156 C136.99992356 136.00653397 137.00854597 138.49434181 137.02148438 140.984375 C137.00493918 154.75031564 135.43575402 167.95401951 130.375 180.875 C129.92217651 182.05872192 129.92217651 182.05872192 129.46020508 183.26635742 C122.42635137 201.2341483 112.93324413 216.41801751 99.5625 230.375 C98.36947266 231.68017578 98.36947266 231.68017578 97.15234375 233.01171875 C76.88354446 254.44222901 45.5080943 270.15882648 15.78637695 271.55200195 C14.37460825 271.57826591 12.96271562 271.59838074 11.55078125 271.61328125 C10.78901581 271.6230751 10.02725037 271.63286896 9.24240112 271.64295959 C-22.43886129 271.96666532 -22.43886129 271.96666532 -36.4375 267.375 C-37.45215332 267.05354004 -37.45215332 267.05354004 -38.48730469 266.72558594 C-59.04190674 260.05529231 -76.86108633 249.32434388 -92.4375 234.375 C-93.33082031 233.54484375 -94.22414063 232.7146875 -95.14453125 231.859375 C-116.76884473 211.17261917 -132.24411593 180.59982078 -133.61450195 150.48535156 C-133.64067024 149.07887115 -133.660829 147.67226936 -133.67578125 146.265625 C-133.6855751 145.50531982 -133.69536896 144.74501465 -133.70545959 143.96166992 C-134.02494148 112.76655972 -134.02494148 112.76655972 -129.4375 98.375 C-129.12401611 97.31974121 -129.12401611 97.31974121 -128.80419922 96.24316406 C-121.3872878 71.52012601 -105.76842102 46.12993419 -84.5078125 30.97265625 C-82.30257188 29.3512338 -82.30257188 29.3512338 -80.13671875 26.98828125 C-77.02754623 23.97809831 -73.79284045 21.76730265 -70.125 19.5 C-69.42568359 19.06727783 -68.72636719 18.63455566 -68.00585938 18.1887207 C-46.92235367 5.45509489 -24.46261003 -0.06157521 0 0 Z " fill="#5A5A5A" transform="translate(923.4375,115.625)"/>
<path d="M0 0 C2.64 0 5.28 0 8 0 C8.86963087 2.99706695 9.11763099 5.64956526 9.09765625 8.765625 C9.09443359 9.65507813 9.09121094 10.54453125 9.08789062 11.4609375 C9.07951172 12.38132812 9.07113281 13.30171875 9.0625 14.25 C9.05798828 15.18585938 9.05347656 16.12171875 9.04882812 17.0859375 C9.03706918 19.39069041 9.02063426 21.69531227 9 24 C9.66 24 10.32 24 11 24 C10.99476318 23.41508789 10.98952637 22.83017578 10.98413086 22.22753906 C10.96329842 19.56837037 10.95031993 16.90921889 10.9375 14.25 C10.92912109 13.32960938 10.92074219 12.40921875 10.91210938 11.4609375 C10.90888672 10.57148437 10.90566406 9.68203125 10.90234375 8.765625 C10.89710693 7.94868164 10.89187012 7.13173828 10.88647461 6.29003906 C10.99700979 4.06031865 11.37944433 2.13866245 12 0 C14.64 0 17.28 0 20 0 C20 4.95 20 9.9 20 15 C20.66 14.67 21.32 14.34 22 14 C22.46898963 11.1840151 22.46898963 11.1840151 22.625 7.9375 C22.69976563 6.83277344 22.77453125 5.72804688 22.8515625 4.58984375 C22.92503906 3.30787109 22.92503906 3.30787109 23 2 C25.64 2 28.28 2 31 2 C31.33 6.62 31.66 11.24 32 16 C32.66 16 33.32 16 34 16 C33.98839844 15.40832031 33.97679687 14.81664063 33.96484375 14.20703125 C33.91677614 9.99768215 33.93993117 6.1077667 35 2 C37.97 2 40.94 2 44 2 C43.67 7.28 43.34 12.56 43 18 C44.32 13.71 45.64 9.42 47 5 C49.64 5 52.28 5 55 5 C54.85816304 6.75032844 54.71136571 8.50025534 54.5625 10.25 C54.44068359 11.71179688 54.44068359 11.71179688 54.31640625 13.203125 C54.04925416 15.56461753 53.64628032 17.71901065 53 20 C53.99 20 54.98 20 56 20 C56.06058594 19.39671875 56.12117187 18.7934375 56.18359375 18.171875 C56.26738281 17.37265625 56.35117187 16.5734375 56.4375 15.75 C56.55931641 14.56664063 56.55931641 14.56664063 56.68359375 13.359375 C57 11 57 11 58 7 C62.455 7.99 62.455 7.99 67 9 C66.37354641 13.69480162 65.09244707 17.81794801 63.4375 22.25 C61.67067032 26.518555 61.67067032 26.518555 61 31 C61.99 31 62.98 31 64 31 C64.37125 29.1128125 64.37125 29.1128125 64.75 27.1875 C65.98370728 21.64462942 67.63600263 16.17124425 70 11 C70.66 10.67 71.32 10.34 72 10 C74.03144641 10.93446535 76.03533587 11.93224776 78 13 C77.67515625 14.13888672 77.67515625 14.13888672 77.34375 15.30078125 C77.0653125 16.29464844 76.786875 17.28851563 76.5 18.3125 C76.2215625 19.29863281 75.943125 20.28476563 75.65625 21.30078125 C74.88187804 24.02287203 74.88187804 24.02287203 75 27 C77.31 23.04 79.62 19.08 82 15 C83.98 15.33 85.96 15.66 88 16 C89.13058134 19.39174401 88.90742601 19.8232491 87.5625 22.9375 C86.21847257 26.06552798 86 27.39665325 86 31 C88.31 27.04 90.62 23.08 93 19 C95.31 19.99 97.62 20.98 100 22 C98.46527032 26.72224516 96.76054874 31.35855331 95 36 C98.67033927 32.72291137 100.69281189 29.28477792 103 25 C105.4375 25.6875 105.4375 25.6875 108 27 C109.11404632 30.08505135 109.15586519 31.5813033 108.00390625 34.67578125 C107.52824219 35.54589844 107.05257813 36.41601562 106.5625 37.3125 C106.08941406 38.19550781 105.61632812 39.07851562 105.12890625 39.98828125 C104.75636719 40.65214844 104.38382813 41.31601563 104 42 C107.26008643 38.83047153 110.22237877 35.60062011 113 32 C115.375 32.25 115.375 32.25 118 33 C119.1640625 35.046875 119.1640625 35.046875 120 37 C119.37351562 37.86882812 118.74703125 38.73765625 118.1015625 39.6328125 C117.27565054 40.79659753 116.45015156 41.96067571 115.625 43.125 C115.2125 43.69476563 114.8 44.26453125 114.375 44.8515625 C111.84172916 48.44717272 110.18741713 51.70703036 109 56 C113.87102616 50.13142165 118.67168709 44.28303486 123 38 C125.49361571 39.20381448 127.68143083 40.45428722 130 42 C128.53181332 45.10742423 126.79975 47.90471739 124.875 50.75 C124.06675781 51.94882813 124.06675781 51.94882813 123.2421875 53.171875 C122.62730469 54.07679687 122.62730469 54.07679687 122 55 C125.21043882 53.61811547 127.04936365 52.07578097 129.25 49.375 C129.77078125 48.74335937 130.2915625 48.11171875 130.828125 47.4609375 C131.21484375 46.97882813 131.6015625 46.49671875 132 46 C136.75 47.875 136.75 47.875 139 49 C137.53181332 52.10742423 135.79975 54.90471739 133.875 57.75 C133.06675781 58.94882813 133.06675781 58.94882813 132.2421875 60.171875 C131.62730469 61.07679687 131.62730469 61.07679687 131 62 C133.96810069 60.67080708 136.00563789 59.22137857 138.25 56.875 C139.1575 55.92625 140.065 54.9775 141 54 C144.78496138 55.51398455 145.0072198 56.0144396 147 60 C144.03 63.3 141.06 66.6 138 70 C143.11293475 67.53486529 143.11293475 67.53486529 147.25 64.3125 C150 62 150 62 152 62 C153.6875 64.3125 153.6875 64.3125 155 67 C154 70 154 70 151.0625 72.4375 C148.27472306 74.77012969 147.38952971 75.83831645 146 79 C146.67546875 78.4946875 147.3509375 77.989375 148.046875 77.46875 C149.38492188 76.49421875 149.38492188 76.49421875 150.75 75.5 C152.07257813 74.52546875 152.07257813 74.52546875 153.421875 73.53125 C156 72 156 72 160 72 C163 75.21428571 163 75.21428571 163 78 C161.30300378 79.23115412 159.60147998 80.45685977 157.87109375 81.640625 C155.30831813 83.50251626 153.20709853 85.73481993 151 88 C149.35135455 89.35555293 147.68996005 90.69631653 146 92 C150.83405138 91.69787179 153.614158 89.2160284 157.23046875 86.27734375 C159 85 159 85 161 85 C161.268125 84.360625 161.53625 83.72125 161.8125 83.0625 C163 81 163 81 166 80 C169.05036168 85.36863655 169.05036168 85.36863655 168.83984375 88.0078125 C167.73562094 90.62713171 166.33260971 91.53382695 164 93.125 C160.97716106 95.10073376 160.97716106 95.10073376 159 98 C159.99580078 97.44119141 159.99580078 97.44119141 161.01171875 96.87109375 C162.33623047 96.16146484 162.33623047 96.16146484 163.6875 95.4375 C164.55761719 94.96183594 165.42773438 94.48617187 166.32421875 93.99609375 C169.46725643 92.82605782 170.90721773 92.6986078 174 94 C175.3125 96.5625 175.3125 96.5625 176 99 C175.21753906 99.48210937 174.43507813 99.96421875 173.62890625 100.4609375 C172.11103516 101.40839844 172.11103516 101.40839844 170.5625 102.375 C169.55316406 103.00148438 168.54382812 103.62796875 167.50390625 104.2734375 C164.91988937 105.75816302 164.91988937 105.75816302 164 108 C165.37285156 107.3503125 165.37285156 107.3503125 166.7734375 106.6875 C167.96195313 106.130625 169.15046875 105.57375 170.375 105 C171.55835938 104.443125 172.74171875 103.88625 173.9609375 103.3125 C177 102 177 102 179 102 C180.76462683 105.08809695 181 106.23312136 181 110 C180.21753906 110.40992188 179.43507813 110.81984375 178.62890625 111.2421875 C177.61699219 111.78101563 176.60507813 112.31984375 175.5625 112.875 C174.55316406 113.40867187 173.54382812 113.94234375 172.50390625 114.4921875 C169.89859558 115.75654114 169.89859558 115.75654114 169 118 C169.81984375 117.62746094 170.6396875 117.25492187 171.484375 116.87109375 C172.56203125 116.39800781 173.6396875 115.92492187 174.75 115.4375 C175.81734375 114.96183594 176.8846875 114.48617187 177.984375 113.99609375 C181 113 181 113 183.265625 112.97265625 C185 114 185 114 187 120 C183.04 121.98 179.08 123.96 175 126 C175 126.33 175 126.66 175 127 C175.67546875 126.77183594 176.3509375 126.54367188 177.046875 126.30859375 C178.38492188 125.87740234 178.38492188 125.87740234 179.75 125.4375 C181.07257813 125.00244141 181.07257813 125.00244141 182.421875 124.55859375 C185.11449673 123.97519238 186.49257848 123.88061539 189 125 C190.25 128.0625 190.25 128.0625 191 131 C184.12380756 133.93841629 177.25160335 136.180206 170 138 C170.33 138.99 170.66 139.98 171 141 C172.75376953 140.33291016 172.75376953 140.33291016 174.54296875 139.65234375 C176.09090471 139.08007652 177.63909538 138.50849794 179.1875 137.9375 C180.34088867 137.49567383 180.34088867 137.49567383 181.51757812 137.04492188 C185.69043747 135.52263413 188.61565802 134.46240512 193 136 C193.33 138.64 193.66 141.28 194 144 C192.58461283 144.33872513 191.16762037 144.67074624 189.75 145 C188.96109375 145.185625 188.1721875 145.37125 187.359375 145.5625 C185 146 185 146 181 146 C181 146.99 181 147.98 181 149 C181.99580078 148.7834375 181.99580078 148.7834375 183.01171875 148.5625 C183.89472656 148.376875 184.77773437 148.19125 185.6875 148 C186.55761719 147.814375 187.42773438 147.62875 188.32421875 147.4375 C190.93712964 147.01027953 193.35813038 146.92383799 196 147 C196 149.64 196 152.28 196 155 C195.22914063 155.20496094 194.45828125 155.40992188 193.6640625 155.62109375 C192.66117188 155.89050781 191.65828125 156.15992188 190.625 156.4375 C189.62726563 156.70433594 188.62953125 156.97117188 187.6015625 157.24609375 C185.04582299 157.90184356 185.04582299 157.90184356 183 159 C188.46137814 159.09752461 193.59255982 158.77249145 199 158 C199 160.97 199 163.94 199 167 C194.23692563 167.95261487 189.8333472 168.08333357 185 168 C185 168.99 185 169.98 185 171 C189.62 170.67 194.24 170.34 199 170 C199 172.97 199 175.94 199 179 C198.14535156 179.04898438 197.29070312 179.09796875 196.41015625 179.1484375 C194.75306641 179.26058594 194.75306641 179.26058594 193.0625 179.375 C191.96035156 179.44460937 190.85820313 179.51421875 189.72265625 179.5859375 C188.82417969 179.72257813 187.92570312 179.85921875 187 180 C186.67 180.66 186.34 181.32 186 182 C190.95 182 195.9 182 201 182 C201 184.31 201 186.62 201 189 C196.15577153 191.54748246 191.50839624 191.22816428 186.1875 191.125 C185.30384766 191.11597656 184.42019531 191.10695312 183.50976562 191.09765625 C181.33972641 191.07419637 179.16982753 191.03832865 177 191 C177 191.66 177 192.32 177 193 C177.58491211 192.99476318 178.16982422 192.98952637 178.77246094 192.98413086 C181.43162963 192.96329842 184.09078111 192.95031993 186.75 192.9375 C187.67039062 192.92912109 188.59078125 192.92074219 189.5390625 192.91210938 C190.42851563 192.90888672 191.31796875 192.90566406 192.234375 192.90234375 C193.05131836 192.89710693 193.86826172 192.89187012 194.70996094 192.88647461 C196.93968135 192.99700979 198.86133755 193.37944433 201 194 C201 196.64 201 199.28 201 202 C196.05 202 191.1 202 186 202 C186.33 202.66 186.66 203.32 187 204 C189.8159849 204.46898963 189.8159849 204.46898963 193.0625 204.625 C194.16722656 204.69976562 195.27195312 204.77453125 196.41015625 204.8515625 C197.26480469 204.90054688 198.11945313 204.94953125 199 205 C199 207.64 199 210.28 199 213 C194.38 213 189.76 213 185 213 C185 213.99 185 214.98 185 216 C185.67546875 215.98839844 186.3509375 215.97679687 187.046875 215.96484375 C187.93890625 215.95582031 188.8309375 215.94679688 189.75 215.9375 C190.63171875 215.92589844 191.5134375 215.91429687 192.421875 215.90234375 C195 216 195 216 199 217 C199 219.97 199 222.94 199 226 C193.72 225.67 188.44 225.34 183 225 C184.4025 225.474375 185.805 225.94875 187.25 226.4375 C188.03890625 226.70433594 188.8278125 226.97117187 189.640625 227.24609375 C191.74821988 227.91954708 193.84753973 228.49150595 196 229 C196 231.64 196 234.28 196 237 C194.24967156 236.85816304 192.49974466 236.71136571 190.75 236.5625 C189.77546875 236.48128906 188.8009375 236.40007812 187.796875 236.31640625 C185.43538247 236.04925416 183.28098935 235.64628032 181 235 C181 235.99 181 236.98 181 238 C181.60328125 238.06058594 182.2065625 238.12117187 182.828125 238.18359375 C183.62734375 238.26738281 184.4265625 238.35117187 185.25 238.4375 C186.43335938 238.55931641 186.43335938 238.55931641 187.640625 238.68359375 C189.82364639 238.97634993 191.8773182 239.42064419 194 240 C193.125 246.75 193.125 246.75 192 249 C184.78069368 247.55613874 177.94889267 245.42211826 171 243 C170.67 243.99 170.34 244.98 170 246 C170.67804688 246.17015625 171.35609375 246.3403125 172.0546875 246.515625 C178.59785475 248.219386 184.78391369 250.34366811 191 253 C189.515 256.465 189.515 256.465 188 260 C187.39671875 259.855625 186.7934375 259.71125 186.171875 259.5625 C185.37265625 259.376875 184.5734375 259.19125 183.75 259 C182.96109375 258.814375 182.1721875 258.62875 181.359375 258.4375 C178.74443998 257.87845172 178.74443998 257.87845172 175 258 C178.63 259.98 182.26 261.96 186 264 C185.67 265.98 185.34 267.96 185 270 C180.94087374 271.35304209 179.22850409 270.15216503 175.3125 268.5625 C173.54326172 267.85287109 173.54326172 267.85287109 171.73828125 267.12890625 C170.83464844 266.75636719 169.93101562 266.38382812 169 266 C171.56887774 268.75402208 173.83717771 270.6573496 177.25 272.25 C178.30960938 272.75273438 178.30960938 272.75273438 179.390625 273.265625 C179.92171875 273.50796875 180.4528125 273.7503125 181 274 C180.125 279.75 180.125 279.75 179 282 C174.27775484 280.46527032 169.64144669 278.76054874 165 277 C168.27708863 280.67033927 171.71522208 282.69281189 176 285 C174.125 289.75 174.125 289.75 173 292 C167.52067211 290.45454854 162.88570819 287.84456788 158 285 C161.13922331 289.52048157 164.21495828 291.51545911 169 294 C168.45276317 297.37462715 167.9451 299.08235 166 302 C161.21316476 300.29346337 157.63807379 297.67855916 153.59765625 294.65625 C150.80686114 292.87685582 148.16746827 291.92211594 145 291 C150.86857835 295.87102616 156.71696514 300.67168709 163 305 C161.79618552 307.49361571 160.54571278 309.68143083 159 312 C155.50166857 310.46073417 152.6178597 308.31392894 149.5859375 306.0234375 C148.03450322 304.81925962 148.03450322 304.81925962 146 305 C148.68058098 308.57410797 151.42589203 311.31941902 155 314 C153.125 318.75 153.125 318.75 152 321 C148.65291949 319.45158425 145.75332488 317.50894136 142.75 315.375 C141.85796875 314.74335938 140.9659375 314.11171875 140.046875 313.4609375 C139.37140625 312.97882813 138.6959375 312.49671875 138 312 C138.93441535 313.27310312 139.87267111 314.543388 140.8125 315.8125 C141.33457031 316.52019531 141.85664062 317.22789062 142.39453125 317.95703125 C143.83128877 319.78531393 145.31815763 321.39896688 147 323 C145.48601545 326.78496138 144.9855604 327.0072198 141 329 C137.7 326.03 134.4 323.06 131 320 C132.56530824 323.9132706 133.64528238 326.13199262 136.125 329.3125 C136.66382813 330.00988281 137.20265625 330.70726562 137.7578125 331.42578125 C138.16773438 331.94527344 138.57765625 332.46476562 139 333 C134.25 337 134.25 337 132 337 C130.43041807 335.32278959 129.0519475 333.53205886 127.6328125 331.7265625 C125.88597642 329.87942961 124.32113778 328.99477333 122 328 C122.51691406 328.67546875 123.03382813 329.3509375 123.56640625 330.046875 C124.22511719 330.93890625 124.88382813 331.8309375 125.5625 332.75 C126.22378906 333.63171875 126.88507813 334.5134375 127.56640625 335.421875 C129 338 129 338 128.8046875 340.21875 C127.84818902 342.3360476 126.81097467 343.55122027 125 345 C124.34 345 123.68 345 123 345 C121.27317815 342.95032466 119.65687285 340.89883729 118.0625 338.75 C117.39831055 337.87021484 117.39831055 337.87021484 116.72070312 336.97265625 C115.47437948 335.31955932 114.23612393 333.66073066 113 332 C112.40058594 331.20078125 111.80117187 330.4015625 111.18359375 329.578125 C110.79300781 329.05734375 110.40242188 328.5365625 110 328 C110.55513901 333.48970799 113.72731319 337.11734243 116.9375 341.359375 C118.03048621 342.85613955 119.02333395 344.42486624 120 346 C119 349 119 349 116 351 C113.20691897 350.82474786 112.24926085 350.27669147 110.3671875 348.1875 C109.62855469 347.1046875 109.62855469 347.1046875 108.875 346 C106.89926624 342.97716106 106.89926624 342.97716106 104 341 C104.433125 341.84304688 104.86625 342.68609375 105.3125 343.5546875 C106.1478125 345.19824219 106.1478125 345.19824219 107 346.875 C107.556875 347.96554687 108.11375 349.05609375 108.6875 350.1796875 C110 353 110 353 110 355 C105.61538462 358 105.61538462 358 103 358 C101.76564939 356.23289901 100.61073584 354.40980432 99.5 352.5625 C97.37758703 348.62163235 97.37758703 348.62163235 94 346 C94.433125 346.91523438 94.86625 347.83046875 95.3125 348.7734375 C95.869375 349.96195312 96.42625 351.15046875 97 352.375 C97.8353125 354.15003906 97.8353125 354.15003906 98.6875 355.9609375 C100 359 100 359 100 361 C97.09399739 362.25664978 95.20395416 363 92 363 C90.02 359.37 88.04 355.74 86 352 C86 356.46564103 87.2343243 358.95365986 89 363 C89 363.99 89 364.98 89 366 C86.8793292 367.28755013 85.53646729 368.03505628 83.02734375 367.87109375 C80.09475721 366.61104212 79.60165512 364.86298172 78.3125 362 C76.99958037 358.7706539 76.99958037 358.7706539 75 356 C75.90723613 360.68738665 76.9547267 365.34193744 78 370 C75.69 370.99 73.38 371.98 71 373 C68.06158371 366.12380756 65.819794 359.25160335 64 352 C63.01 352.33 62.02 352.66 61 353 C61.18699463 353.52432617 61.37398926 354.04865234 61.56665039 354.58886719 C62.40965918 356.97216557 63.23619523 359.36086158 64.0625 361.75 C64.50432617 362.9875 64.50432617 362.9875 64.95507812 364.25 C65.22900391 365.04921875 65.50292969 365.8484375 65.78515625 366.671875 C66.04176025 367.4050293 66.29836426 368.13818359 66.56274414 368.89355469 C67.05680388 371.27364818 66.76066537 372.71574672 66 375 C63.36 375.33 60.72 375.66 58 376 C57.66127487 374.58461283 57.32925376 373.16762037 57 371.75 C56.814375 370.96109375 56.62875 370.1721875 56.4375 369.359375 C56 367 56 367 56 363 C55.01 363 54.02 363 53 363 C53.2165625 363.87011719 53.2165625 363.87011719 53.4375 364.7578125 C54.50889428 369.26659675 55.23945936 373.33054247 55 378 C52.69 378 50.38 378 48 378 C47.70996094 377.09507812 47.70996094 377.09507812 47.4140625 376.171875 C47.15367187 375.37265625 46.89328125 374.5734375 46.625 373.75 C46.36976563 372.96109375 46.11453125 372.1721875 45.8515625 371.359375 C45.04826333 369.13372042 44.10288338 367.09068328 43 365 C42.90247539 370.46137814 43.22750855 375.59255982 44 381 C41.03 381 38.06 381 35 381 C34.04738513 376.23692563 33.91666643 371.8333472 34 367 C33.34 367 32.68 367 32 367 C31.67 371.62 31.34 376.24 31 381 C28.36 381 25.72 381 23 381 C22.95101562 380.14535156 22.90203125 379.29070312 22.8515625 378.41015625 C22.73941406 376.75306641 22.73941406 376.75306641 22.625 375.0625 C22.55539062 373.96035156 22.48578125 372.85820312 22.4140625 371.72265625 C22.27742187 370.82417969 22.14078125 369.92570312 22 369 C21.34 368.67 20.68 368.34 20 368 C20 372.95 20 377.9 20 383 C17.69 383 15.38 383 13 383 C11.22330777 379.93843346 10.75949182 377.75963785 10.8046875 374.234375 C10.81435547 372.90019531 10.81435547 372.90019531 10.82421875 371.5390625 C10.84097656 370.61867188 10.85773438 369.69828125 10.875 368.75 C10.88402344 367.81414062 10.89304687 366.87828125 10.90234375 365.9140625 C10.92586364 363.60911343 10.95873147 361.3046884 11 359 C10.34 359 9.68 359 9 359 C9.00523682 359.58491211 9.01047363 360.16982422 9.01586914 360.77246094 C9.03670158 363.43162963 9.04968007 366.09078111 9.0625 368.75 C9.07087891 369.67039062 9.07925781 370.59078125 9.08789062 371.5390625 C9.09111328 372.42851562 9.09433594 373.31796875 9.09765625 374.234375 C9.10289307 375.05131836 9.10812988 375.86826172 9.11352539 376.70996094 C9.00299021 378.93968135 8.62055567 380.86133755 8 383 C5.36 383 2.72 383 0 383 C0 378.05 0 373.1 0 368 C-0.66 368.33 -1.32 368.66 -2 369 C-2.65572604 371.74312664 -2.65572604 371.74312664 -3.0625 374.9375 C-3.91122278 380.82244556 -3.91122278 380.82244556 -5 383 C-6.98 382.67 -8.96 382.34 -11 382 C-11.33 377.05 -11.66 372.1 -12 367 C-12.66 367 -13.32 367 -14 367 C-13.979375 368.19625 -13.95875 369.3925 -13.9375 370.625 C-13.93117429 374.18004869 -14.30111125 377.50555624 -15 381 C-17.64 381 -20.28 381 -23 381 C-23.09688221 375.55306686 -23.12862175 370.36095333 -22 365 C-22.99 365 -23.98 365 -25 365 C-25.06058594 365.60328125 -25.12117187 366.2065625 -25.18359375 366.828125 C-25.26738281 367.62734375 -25.35117187 368.4265625 -25.4375 369.25 C-25.55931641 370.43335938 -25.55931641 370.43335938 -25.68359375 371.640625 C-25.97634993 373.82364639 -26.42064419 375.8773182 -27 378 C-29.64 378 -32.28 378 -35 378 C-34.85816304 376.24967156 -34.71136571 374.49974466 -34.5625 372.75 C-34.48128906 371.77546875 -34.40007812 370.8009375 -34.31640625 369.796875 C-34.04925416 367.43538247 -33.64628032 365.28098935 -33 363 C-33.99 363 -34.98 363 -36 363 C-36.144375 364.03125 -36.28875 365.0625 -36.4375 366.125 C-36.91660457 369.42549813 -37.43875083 372.71268341 -38 376 C-40.64 375.67 -43.28 375.34 -46 375 C-47.11378736 371.68177296 -46.87728255 369.75179221 -45.78515625 366.453125 C-45.51123047 365.60878906 -45.23730469 364.76445312 -44.95507812 363.89453125 C-44.66052734 363.02183594 -44.36597656 362.14914062 -44.0625 361.25 C-43.77181641 360.36183594 -43.48113281 359.47367187 -43.18164062 358.55859375 C-42.46360682 356.36917921 -41.73614477 354.18337811 -41 352 C-41.99 352 -42.98 352 -44 352 C-44.17015625 352.67804688 -44.3403125 353.35609375 -44.515625 354.0546875 C-46.219386 360.59785475 -48.34366811 366.78391369 -51 373 C-54.465 371.515 -54.465 371.515 -58 370 C-57.86722656 369.40832031 -57.73445312 368.81664062 -57.59765625 368.20703125 C-56.68994822 364.14553475 -55.7908887 360.08625829 -55 356 C-57.68399924 359.88717131 -59.96248559 363.72121973 -62 368 C-63.98 367.67 -65.96 367.34 -68 367 C-69.15387657 363.53837028 -68.79998922 362.79997125 -67.5625 359.5 C-66.52423721 356.70646782 -66 355.02090819 -66 352 C-67.98 355.63 -69.96 359.26 -72 363 C-78 362 -78 362 -80 361 C-78.45730076 356.27934033 -76.92205381 351.58335908 -75 347 C-78.67033927 350.27708863 -80.69281189 353.71522208 -83 358 C-87.75 356.125 -87.75 356.125 -90 355 C-88.50829734 350.0276578 -86.39542583 345.58154261 -84 341 C-87.98069267 343.87494471 -90.43571997 346.82117329 -93 351 C-95.9375 350.1875 -95.9375 350.1875 -99 349 C-99.495 347.515 -99.495 347.515 -100 346 C-98.6125549 343.76237577 -97.20755485 341.7162332 -95.625 339.625 C-92.81200719 335.89139136 -90.4841936 332.78813674 -90 328 C-91.79302821 330.26976982 -93.58446793 332.54076244 -95.375 334.8125 C-95.88289062 335.45509766 -96.39078125 336.09769531 -96.9140625 336.75976562 C-97.40390625 337.38173828 -97.89375 338.00371094 -98.3984375 338.64453125 C-98.84880371 339.21534424 -99.29916992 339.78615723 -99.76318359 340.37426758 C-100.90263341 341.87201655 -101.95610229 343.43415344 -103 345 C-105.49361571 343.79618552 -107.68143083 342.54571278 -110 341 C-108.47987167 337.54516288 -106.37385365 334.68504536 -104.12109375 331.68359375 C-102.81448821 329.88113235 -102.81448821 329.88113235 -102 327 C-103.29549899 328.09966775 -104.58626071 329.20491801 -105.875 330.3125 C-106.59429688 330.92738281 -107.31359375 331.54226563 -108.0546875 332.17578125 C-110.19179331 334.0412324 -110.19179331 334.0412324 -112 337 C-115.65316671 335.75023244 -116.78065836 335.32901247 -119 332 C-116.36 328.7 -113.72 325.4 -111 322 C-111.33 321.67 -111.66 321.34 -112 321 C-116.455 324.96 -116.455 324.96 -121 329 C-125 327 -125 327 -127 323 C-124.03 319.7 -121.06 316.4 -118 313 C-122.08250748 314.63300299 -123.7031389 315.34853821 -126.6875 318.125 C-129.78947368 321 -129.78947368 321 -132 321 C-133.75 318.75 -133.75 318.75 -135 316 C-133.79845525 312.49431649 -131.67009775 310.59427553 -128.875 308.25 C-128.15054688 307.63640625 -127.42609375 307.0228125 -126.6796875 306.390625 C-126.12539063 305.93171875 -125.57109375 305.4728125 -125 305 C-128.85309005 305.52391414 -130.87552119 306.38954037 -133.6875 309.0625 C-136.80470588 312 -136.80470588 312 -139 312 C-141.1875 309.6875 -141.1875 309.6875 -143 307 C-141.8778098 303.6334294 -141.17438042 303.11194787 -138.40234375 301.08203125 C-137.32436523 300.28442383 -137.32436523 300.28442383 -136.22460938 299.47070312 C-135.46986328 298.92349609 -134.71511719 298.37628906 -133.9375 297.8125 C-133.17888672 297.25369141 -132.42027344 296.69488281 -131.63867188 296.11914062 C-129.76379251 294.73951241 -127.88420569 293.36684859 -126 292 C-129.80824424 292 -131.27289785 293.23854771 -134.4375 295.3125 C-135.38496094 295.92738281 -136.33242188 296.54226563 -137.30859375 297.17578125 C-139.97032891 298.91641543 -139.97032891 298.91641543 -142.16015625 300.79296875 C-142.76730469 301.19128906 -143.37445312 301.58960938 -144 302 C-144.99 301.67 -145.98 301.34 -147 301 C-147.66 299.02 -148.32 297.04 -149 295 C-144.05 291.04 -144.05 291.04 -139 287 C-142.19758266 287.79939566 -144.29182708 288.55973338 -147.125 290.0625 C-150.77935943 292 -150.77935943 292 -153 292 C-156 287.61538462 -156 287.61538462 -156 285 C-153.46777927 283.33596924 -150.8357279 281.90873772 -148.1875 280.4375 C-147.465625 279.963125 -146.74375 279.48875 -146 279 C-146 278.34 -146 277.68 -146 277 C-146.77085937 277.3609375 -147.54171875 277.721875 -148.3359375 278.09375 C-149.33882812 278.5578125 -150.34171875 279.021875 -151.375 279.5 C-152.37273438 279.9640625 -153.37046875 280.428125 -154.3984375 280.90625 C-157 282 -157 282 -159 282 C-159.99 279.69 -160.98 277.38 -162 275 C-158.04 272.69 -154.08 270.38 -150 268 C-154.86896303 268.59619955 -159.32790951 269.56976822 -164 271 C-165.76462683 267.91190305 -166 266.76687864 -166 263 C-162.04 261.02 -158.08 259.04 -154 257 C-156.0728125 257.4640625 -156.0728125 257.4640625 -158.1875 257.9375 C-161.45152786 258.66341156 -164.71691503 259.3645642 -168 260 C-168.99 257.69 -169.98 255.38 -171 253 C-164.93336213 250.11987899 -158.85068526 247.92324453 -152.40625 246.02734375 C-151.6121875 245.68832031 -150.818125 245.34929687 -150 245 C-149.67 244.01 -149.34 243.02 -149 242 C-149.59014893 242.21205078 -150.18029785 242.42410156 -150.78833008 242.64257812 C-153.46133024 243.5999451 -156.13685693 244.55004585 -158.8125 245.5 C-160.2056543 246.00080078 -160.2056543 246.00080078 -161.62695312 246.51171875 C-162.9659668 246.98544922 -162.9659668 246.98544922 -164.33203125 247.46875 C-165.15421143 247.76201172 -165.9763916 248.05527344 -166.82348633 248.35742188 C-169 249 -169 249 -172 249 C-173.85776765 245.86501708 -174.20140476 243.62528568 -174 240 C-165.57142857 237.71428571 -165.57142857 237.71428571 -161 238 C-161 237.01 -161 236.02 -161 235 C-161.99580078 235.2165625 -161.99580078 235.2165625 -163.01171875 235.4375 C-163.89472656 235.623125 -164.77773438 235.80875 -165.6875 236 C-166.55761719 236.185625 -167.42773438 236.37125 -168.32421875 236.5625 C-170.93712964 236.98972047 -173.35813038 237.07616201 -176 237 C-176 234.36 -176 231.72 -176 229 C-169.565 227.02 -169.565 227.02 -163 225 C-168.46137814 224.90247539 -173.59255982 225.22750855 -179 226 C-179 223.03 -179 220.06 -179 217 C-175.59112017 216.14778004 -173.19565369 215.89216245 -169.75 215.9375 C-168.85796875 215.94652344 -167.9659375 215.95554687 -167.046875 215.96484375 C-166.03367187 215.98224609 -166.03367187 215.98224609 -165 216 C-165 215.34 -165 214.68 -165 214 C-169.62 213.67 -174.24 213.34 -179 213 C-179 210.36 -179 207.72 -179 205 C-178.14535156 204.95101562 -177.29070313 204.90203125 -176.41015625 204.8515625 C-174.75306641 204.73941406 -174.75306641 204.73941406 -173.0625 204.625 C-171.40927734 204.52058594 -171.40927734 204.52058594 -169.72265625 204.4140625 C-168.82417969 204.27742187 -167.92570313 204.14078125 -167 204 C-166.505 203.01 -166.505 203.01 -166 202 C-170.95 202 -175.9 202 -181 202 C-181 199.36 -181 196.72 -181 194 C-178.05868109 193.01956036 -176.17498335 192.88378798 -173.11328125 192.90234375 C-172.17548828 192.90556641 -171.23769531 192.90878906 -170.27148438 192.91210938 C-168.80678711 192.92467773 -168.80678711 192.92467773 -167.3125 192.9375 C-165.83040039 192.94426758 -165.83040039 192.94426758 -164.31835938 192.95117188 C-161.87884526 192.96295697 -159.43945311 192.97940989 -157 193 C-157 192.34 -157 191.68 -157 191 C-157.58491211 191.00523682 -158.16982422 191.01047363 -158.77246094 191.01586914 C-161.43162963 191.03670158 -164.09078111 191.04968007 -166.75 191.0625 C-167.67039062 191.07087891 -168.59078125 191.07925781 -169.5390625 191.08789062 C-170.42851563 191.09111328 -171.31796875 191.09433594 -172.234375 191.09765625 C-173.45979004 191.10551147 -173.45979004 191.10551147 -174.70996094 191.11352539 C-176.93968135 191.00299021 -178.86133755 190.62055567 -181 190 C-181 187.36 -181 184.72 -181 182 C-176.05 182 -171.1 182 -166 182 C-166 181.01 -166 180.02 -166 179 C-167.26457031 179.01740234 -167.26457031 179.01740234 -168.5546875 179.03515625 C-170.19824219 179.04869141 -170.19824219 179.04869141 -171.875 179.0625 C-172.96554687 179.07410156 -174.05609375 179.08570313 -175.1796875 179.09765625 C-178 179 -178 179 -180 178 C-180 175.69 -180 173.38 -180 171 C-175.05 170.67 -170.1 170.34 -165 170 C-165 169.34 -165 168.68 -165 168 C-165.67546875 168.01160156 -166.3509375 168.02320313 -167.046875 168.03515625 C-167.93890625 168.04417969 -168.8309375 168.05320313 -169.75 168.0625 C-170.63171875 168.07410156 -171.5134375 168.08570313 -172.421875 168.09765625 C-175 168 -175 168 -179 167 C-179 164.03 -179 161.06 -179 158 C-173.72 158.33 -168.44 158.66 -163 159 C-166.19892281 157.4005386 -168.35462576 156.57404764 -171.75 155.875 C-172.94882812 155.62363281 -172.94882812 155.62363281 -174.171875 155.3671875 C-174.77515625 155.24601563 -175.3784375 155.12484375 -176 155 C-176 152.36 -176 149.72 -176 147 C-174.24967156 147.14183696 -172.49974466 147.28863429 -170.75 147.4375 C-169.28820312 147.55931641 -169.28820312 147.55931641 -167.796875 147.68359375 C-165.43538247 147.95074584 -163.28098935 148.35371968 -161 149 C-161 148.01 -161 147.02 -161 146 C-162.8253125 145.8453125 -162.8253125 145.8453125 -164.6875 145.6875 C-168.41069448 145.23780688 -170.91662995 144.21617222 -174 142 C-173.67 140.02 -173.34 138.04 -173 136 C-169.55559783 134.80690889 -167.62372653 135.19517685 -164.234375 136.43359375 C-163.34492187 136.75263672 -162.45546875 137.07167969 -161.5390625 137.40039062 C-160.61867188 137.74263672 -159.69828125 138.08488281 -158.75 138.4375 C-157.34621094 138.94506836 -157.34621094 138.94506836 -155.9140625 139.46289062 C-153.60571366 140.29907822 -151.30144809 141.14504056 -149 142 C-149.33 141.01 -149.66 140.02 -150 139 C-151.98551904 137.9808867 -151.98551904 137.9808867 -154.4375 137.28125 C-155.33210937 136.98863281 -156.22671875 136.69601563 -157.1484375 136.39453125 C-158.55996094 135.95173828 -158.55996094 135.95173828 -160 135.5 C-161.85765515 134.91725612 -163.71205849 134.32400969 -165.5625 133.71875 C-166.80193359 133.33106445 -166.80193359 133.33106445 -168.06640625 132.93554688 C-168.70449219 132.62681641 -169.34257813 132.31808594 -170 132 C-170.33 131.01 -170.66 130.02 -171 129 C-169.5625 126.3125 -169.5625 126.3125 -168 124 C-163.31261335 124.90723613 -158.65806256 125.9547267 -154 127 C-157.88717131 124.31600076 -161.72121973 122.03751441 -166 120 C-165.67 118.02 -165.34 116.04 -165 114 C-160.94087374 112.64695791 -159.22850409 113.84783497 -155.3125 115.4375 C-153.54326172 116.14712891 -153.54326172 116.14712891 -151.73828125 116.87109375 C-150.83464844 117.24363281 -149.93101562 117.61617188 -149 118 C-151.56887774 115.24597792 -153.83717771 113.3426504 -157.25 111.75 C-157.95640625 111.41484375 -158.6628125 111.0796875 -159.390625 110.734375 C-160.18726563 110.37085938 -160.18726563 110.37085938 -161 110 C-160.125 104.25 -160.125 104.25 -159 102 C-154.27775484 103.53472968 -149.64144669 105.23945126 -145 107 C-148.27708863 103.32966073 -151.71522208 101.30718811 -156 99 C-155.1875 96.0625 -155.1875 96.0625 -154 93 C-151 92 -151 92 -148.08203125 93.21484375 C-147.00308594 93.78332031 -145.92414062 94.35179687 -144.8125 94.9375 C-143.72582031 95.50339844 -142.63914062 96.06929688 -141.51953125 96.65234375 C-140.68808594 97.09707031 -139.85664062 97.54179687 -139 98 C-141.98437573 94.08787268 -144.78970564 91.58358972 -149 89 C-148.75 86.125 -148.75 86.125 -148 83 C-145.9375 81.625 -145.9375 81.625 -144 81 C-143.01 81.66 -142.02 82.32 -141 83 C-141 83.66 -141 84.32 -141 85 C-140.42378906 85.27585937 -139.84757813 85.55171875 -139.25390625 85.8359375 C-136.32837887 87.34686845 -133.64289005 89.15654519 -130.90234375 90.9765625 C-128.91970578 92.23688814 -128.91970578 92.23688814 -126 92 C-126.59167969 91.55269531 -127.18335938 91.10539062 -127.79296875 90.64453125 C-132.15926175 87.30392535 -136.173633 83.93890721 -140 80 C-140.99 79.34 -141.98 78.68 -143 78 C-141.84826645 75.53199953 -140.95216435 73.95216435 -139 72 C-135.76798416 72.37344721 -133.44350897 73.81171917 -130.75 75.5625 C-130.04359375 76.01753906 -129.3371875 76.47257812 -128.609375 76.94140625 C-128.07828125 77.29074219 -127.5471875 77.64007813 -127 78 C-126.67 77.67 -126.34 77.34 -126 77 C-128.97 74.36 -131.94 71.72 -135 69 C-133 64 -133 64 -130 62 C-129.37351562 62.5053125 -128.74703125 63.010625 -128.1015625 63.53125 C-127.28429687 64.1809375 -126.46703125 64.830625 -125.625 65.5 C-124.81289063 66.1496875 -124.00078125 66.799375 -123.1640625 67.46875 C-121.16973157 69.19253615 -121.16973157 69.19253615 -119 69 C-121.64 66.03 -124.28 63.06 -127 60 C-125 56 -125 56 -121 54 C-116.05 58.455 -116.05 58.455 -111 63 C-112.63300299 58.91749252 -113.34853821 57.2968611 -116.125 54.3125 C-119 51.21052632 -119 51.21052632 -119 49 C-116.75 47.25 -116.75 47.25 -114 46 C-110.09197541 46.9473999 -108.36234581 49.92895044 -106 53 C-105.34 53.33 -104.68 53.66 -104 54 C-104 54.66 -104 55.32 -104 56 C-103.34 56 -102.68 56 -102 56 C-102.63228516 54.98679687 -102.63228516 54.98679687 -103.27734375 53.953125 C-103.82519531 53.06109375 -104.37304688 52.1690625 -104.9375 51.25 C-105.48277344 50.36828125 -106.02804687 49.4865625 -106.58984375 48.578125 C-107.84106997 46.29056461 -108.73257095 44.58514746 -109 42 C-107.0625 39.75 -107.0625 39.75 -105 38 C-101.6334294 39.1221902 -101.11194787 39.82561958 -99.08203125 42.59765625 C-98.28442383 43.67563477 -98.28442383 43.67563477 -97.47070312 44.77539062 C-96.64989258 45.90750977 -96.64989258 45.90750977 -95.8125 47.0625 C-95.25369141 47.82111328 -94.69488281 48.57972656 -94.11914062 49.36132812 C-92.73951241 51.23620749 -91.36684859 53.11579431 -90 55 C-90 51.19175576 -91.23854771 49.72710215 -93.3125 46.5625 C-93.92738281 45.61503906 -94.54226563 44.66757813 -95.17578125 43.69140625 C-96.72444058 41.4065534 -98.31876004 39.18819847 -100 37 C-99.3125 35.0625 -99.3125 35.0625 -98 33 C-96.35 32.67 -94.7 32.34 -93 32 C-90.36 35.3 -87.72 38.6 -85 42 C-85.9590625 39.64875 -85.9590625 39.64875 -86.9375 37.25 C-88.18684926 34.18707922 -89.28269264 31.23165844 -90 28 C-85.25 25 -85.25 25 -83 25 C-81.33596924 27.53222073 -79.90873772 30.1642721 -78.4375 32.8125 C-77.963125 33.534375 -77.48875 34.25625 -77 35 C-76.34 35 -75.68 35 -75 35 C-75.3609375 34.22914062 -75.721875 33.45828125 -76.09375 32.6640625 C-76.78984375 31.15972656 -76.78984375 31.15972656 -77.5 29.625 C-78.19609375 28.12839844 -78.19609375 28.12839844 -78.90625 26.6015625 C-80 24 -80 24 -80 22 C-76.91190305 20.23537317 -75.76687864 20 -72 20 C-70.02 23.63 -68.04 27.26 -66 31 C-66.59619955 26.13103697 -67.56976822 21.67209049 -69 17 C-66.69 16.01 -64.38 15.02 -62 14 C-59.69 18.29 -57.38 22.58 -55 27 C-55.309375 25.618125 -55.61875 24.23625 -55.9375 22.8125 C-56.66341156 19.54847214 -57.3645642 16.28308497 -58 13 C-53.375 10 -53.375 10 -50 10 C-48.99263372 12.93502595 -47.99539496 15.87339461 -47 18.8125 C-46.71382812 19.64587891 -46.42765625 20.47925781 -46.1328125 21.33789062 C-45.86210938 22.14033203 -45.59140625 22.94277344 -45.3125 23.76953125 C-44.93544922 24.87711792 -44.93544922 24.87711792 -44.55078125 26.00708008 C-44 28 -44 28 -44 31 C-43.01 31 -42.02 31 -41 31 C-42.682866 25.2830297 -44.43134064 19.61647884 -46.44921875 14.0078125 C-47 12 -47 12 -47 8 C-42.545 7.505 -42.545 7.505 -38 7 C-36 15.5 -36 15.5 -36 20 C-35.01 20 -34.02 20 -33 20 C-33.2165625 19.00419922 -33.2165625 19.00419922 -33.4375 17.98828125 C-33.623125 17.10527344 -33.80875 16.22226563 -34 15.3125 C-34.185625 14.44238281 -34.37125 13.57226562 -34.5625 12.67578125 C-34.98972047 10.06287036 -35.07616201 7.64186962 -35 5 C-32.36 5 -29.72 5 -27 5 C-26.80664062 5.85464844 -26.61328125 6.70929688 -26.4140625 7.58984375 C-26.15367187 8.69457031 -25.89328125 9.79929687 -25.625 10.9375 C-25.36976563 12.03964844 -25.11453125 13.14179687 -24.8515625 14.27734375 C-24.57054687 15.17582031 -24.28953125 16.07429688 -24 17 C-23.34 17.33 -22.68 17.66 -22 18 C-22.99 10.08 -22.99 10.08 -24 2 C-21.03 2 -18.06 2 -15 2 C-14.67 6.62 -14.34 11.24 -14 16 C-13.01 16 -12.02 16 -11 16 C-11 11.05 -11 6.1 -11 1 C-8.69 1 -6.38 1 -4 1 C-3 2 -3 2 -2.90234375 4.94140625 C-2.91974609 6.73384766 -2.91974609 6.73384766 -2.9375 8.5625 C-2.94652344 9.76003906 -2.95554687 10.95757812 -2.96484375 12.19140625 C-2.98224609 13.58166016 -2.98224609 13.58166016 -3 15 C-2.01 15 -1.02 15 0 15 C0 10.05 0 5.1 0 0 Z M-37.5 63.125 C-38.27061768 63.41431396 -39.04123535 63.70362793 -39.83520508 64.00170898 C-53.88277887 69.49486265 -67.45962769 77.11290492 -78 88 C-79.465283 89.28212262 -80.93076625 90.56403129 -82.40112305 91.84033203 C-105.82585623 112.49301326 -120.64323533 142.20762227 -125 173 C-125.11438019 175.71427653 -125.18728267 178.40278121 -125.203125 181.1171875 C-125.20882507 181.8920047 -125.21452515 182.6668219 -125.22039795 183.46511841 C-125.22981179 185.10401055 -125.23636749 186.74292132 -125.24023438 188.38183594 C-125.24983565 190.83304162 -125.2808486 193.28336937 -125.3125 195.734375 C-125.40452518 209.2808236 -123.78406446 222.13936117 -119.3125 235 C-119.05976318 235.74000244 -118.80702637 236.48000488 -118.54663086 237.24243164 C-106.78022823 270.4550217 -81.73057707 299.01087141 -49.94287109 314.33666992 C-47.97182477 315.24915554 -45.99128962 316.1326345 -44 317 C-43.35740234 317.28069336 -42.71480469 317.56138672 -42.05273438 317.85058594 C-37.4432152 319.8171597 -32.77639721 321.48675362 -28 323 C-27.35450195 323.21172852 -26.70900391 323.42345703 -26.04394531 323.64160156 C-14.32232273 327.30134617 -2.41654888 327.39200068 9.75 327.4375 C10.53869476 327.44376404 11.32738953 327.45002808 12.13998413 327.45648193 C48.92076826 327.6409282 81.51078417 312.29463794 107.5625 286.8125 C114.27170692 280.08982416 119.92017641 273.01417411 125 265 C125.70640625 263.89269531 126.4128125 262.78539062 127.140625 261.64453125 C137.7310869 244.08134157 145.03945183 223.12394883 145.23828125 202.515625 C145.246353 201.70115906 145.25442474 200.88669312 145.26274109 200.04754639 C145.27653014 198.32289723 145.28727529 196.59822138 145.29516602 194.87353516 C145.30658061 193.14591208 145.32686118 191.41832124 145.35668945 189.69091797 C145.62743643 173.96339261 143.51722795 159.2596658 137.875 144.5 C137.58206055 143.72503174 137.28912109 142.95006348 136.98730469 142.15161133 C131.25957199 127.57420718 123.13960321 114.86759866 113 103 C112.2265625 102.07445312 111.453125 101.14890625 110.65625 100.1953125 C106.2446598 95.08470273 101.55647976 90.83641253 96.19921875 86.734375 C94 85 94 85 91.5625 82.4375 C70.99968114 62.87774547 38.9106708 55.40638477 11.47094727 55.55395508 C9.0663522 55.56248633 6.66413013 55.53350903 4.25976562 55.50195312 C-10.15131047 55.43628899 -24.00892329 57.97201493 -37.5 63.125 Z " fill="#FCFCFC" transform="translate(915,60)"/>
<path d="M0 0 C1.1266658 0.00140488 1.1266658 0.00140488 2.27609253 0.00283813 C28.66945069 0.07399438 54.39812379 3.79423408 79.5 12.1875 C80.31436523 12.45369141 81.12873047 12.71988281 81.96777344 12.99414062 C109.97034747 22.24825498 135.84728468 36.29473684 158.5 55.1875 C159.34739746 55.88262695 159.34739746 55.88262695 160.21191406 56.59179688 C173.55792972 67.55432692 185.92230481 79.50569613 196.5 93.1875 C197.26183594 94.12078125 198.02367187 95.0540625 198.80859375 96.015625 C225.02361523 128.7319718 242.48073011 170.7459824 248.5 212.1875 C248.6544458 213.21520508 248.6544458 213.21520508 248.81201172 214.26367188 C252.13580515 237.47246647 252.20266878 263.02702486 248.5 286.1875 C248.29793945 287.48518311 248.29793945 287.48518311 248.09179688 288.80908203 C240.42705894 335.65191225 218.83988637 380.4659941 186.5 415.1875 C185.30759878 416.55825183 184.11986117 417.93307863 182.9375 419.3125 C164.23874692 440.7255882 140.50706545 457.0439278 115.5 470.1875 C114.80052246 470.56229492 114.10104492 470.93708984 113.38037109 471.32324219 C79.32328932 489.37548717 39.97984983 497.66757761 1.625 497.5625 C0.83007141 497.56162384 0.03514282 497.56074768 -0.78387451 497.55984497 C-60.6440458 497.34453133 -119.68188303 473.98915239 -163.5 433.1875 C-164.82937633 432.03707817 -166.16257608 430.89105612 -167.5 429.75 C-176.03864652 422.27653675 -183.49852512 414.10174895 -190.5 405.1875 C-191.29148437 404.20136719 -192.08296875 403.21523438 -192.8984375 402.19921875 C-210.22248376 380.25724849 -223.47961052 355.64207994 -232.5 329.1875 C-232.77924316 328.38650879 -233.05848633 327.58551758 -233.34619141 326.76025391 C-237.49952543 314.75983206 -240.32451957 302.69032431 -242.5 290.1875 C-242.71527344 288.95773437 -242.93054688 287.72796875 -243.15234375 286.4609375 C-253.08053503 225.73229301 -238.34499463 158.22413228 -202.5625 107.9375 C-200.90108423 105.66720202 -199.20577066 103.42458687 -197.5 101.1875 C-197.06574707 100.6104834 -196.63149414 100.0334668 -196.18408203 99.43896484 C-189.46193693 90.53095597 -182.23348195 82.22857818 -174.5 74.1875 C-173.79593018 73.45055908 -173.79593018 73.45055908 -173.07763672 72.69873047 C-166.62071718 65.97041677 -159.83270936 59.93884209 -152.5 54.1875 C-151.5615625 53.42050781 -150.623125 52.65351562 -149.65625 51.86328125 C-107.59707136 18.20509834 -53.66633241 -0.08676553 0 0 Z M-97.6484375 50.20507812 C-99.49126882 51.18286732 -101.35053174 52.11865311 -103.21875 53.046875 C-122.86899546 62.9454831 -139.6044282 77.14586868 -155.5 92.1875 C-156.180625 92.82558594 -156.86125 93.46367188 -157.5625 94.12109375 C-184.91802748 120.52677652 -203.01183701 157.39651131 -212.75 193.6875 C-212.98436768 194.55181641 -213.21873535 195.41613281 -213.46020508 196.30664062 C-217.80358593 213.29990392 -219.07582709 230.0080607 -219 247.5 C-218.99890228 248.54599365 -218.99780457 249.5919873 -218.99667358 250.66967773 C-218.92978535 272.95896191 -217.12450533 295.12407151 -209.24511719 316.19384766 C-208.38766746 318.48805947 -207.57471066 320.79651713 -206.7578125 323.10546875 C-192.95987805 361.3649877 -169.39445737 395.77231723 -137.5 421.1875 C-136.73300781 421.83332031 -135.96601562 422.47914063 -135.17578125 423.14453125 C-93.09790007 458.22133882 -34.81678952 475.21164475 19.4921875 470.84375 C23.1433605 470.48887331 26.77277757 470.02128769 30.40234375 469.49072266 C32.48432887 469.18976531 34.56879894 468.92792103 36.65625 468.66796875 C58.12165866 465.76917479 79.02898131 458.52206674 98.5 449.1875 C99.3034082 448.80368164 100.10681641 448.41986328 100.93457031 448.02441406 C118.71118974 439.39826459 134.8143616 428.38098897 149.5 415.1875 C150.52458981 414.28498619 151.54933024 413.38264334 152.57421875 412.48046875 C179.77525473 388.29213715 198.40532841 357.9064314 211.5 324.1875 C211.77859863 323.47207031 212.05719727 322.75664062 212.34423828 322.01953125 C232.9258166 268.02593837 226.87885011 207.08688355 203.83935547 155.11621094 C189.73478154 124.2743464 168.19101336 96.17962132 141.5 75.1875 C140.52546875 74.39601562 139.5509375 73.60453125 138.546875 72.7890625 C109.19757329 49.41285988 72.47478122 34.00367252 35.5 28.1875 C34.75814453 28.07035645 34.01628906 27.95321289 33.25195312 27.83251953 C-10.97351679 21.24178852 -58.23898914 29.05753942 -97.6484375 50.20507812 Z " fill="#5B5B5B" transform="translate(922.5,2.8125)"/>
<path d="M0 0 C0.99386719 0.2784375 1.98773437 0.556875 3.01171875 0.84375 C23.62880851 7.09625304 41.60528961 21.16556181 52.32421875 39.8515625 C64.19635263 62.15678373 67.19442338 84.39585416 59.8984375 108.6640625 C51.99745211 132.06117409 36.38592995 149.44527483 14.625 160.75390625 C-7.05998384 170.76815226 -28.88125333 171.53825063 -51.3125 163.8671875 C-64.18138878 158.80676509 -74.31046551 151.67577094 -84 142 C-85.11375 140.90365234 -85.11375 140.90365234 -86.25 139.78515625 C-101.07335434 124.23800531 -108.56918668 101.33714537 -108.42382812 80.13037109 C-107.64034744 58.30408142 -97.30610197 36.35352191 -82 21 C-60.06686047 0.68374976 -28.98319532 -8.631709 0 0 Z " fill="#5A5A5A" transform="translate(947,169)"/>
<path d="M0 0 C6.90406698 7.32319735 10.91066562 18.44551122 15.3359375 27.37890625 C16.2236451 29.15992558 17.11188823 30.94067807 18.00064087 32.72117615 C20.32392164 37.37912207 22.63996855 42.04062763 24.95446777 46.70294189 C27.32331369 51.4714733 29.69906583 56.23656096 32.07421875 61.00195312 C36.72286669 70.33129999 41.36387084 79.66442646 46 89 C48.49698752 85.75804783 50.35957899 82.52515043 52.1875 78.85546875 C52.48621002 78.25799835 52.78492004 77.66052795 53.09268188 77.04495239 C54.06606742 75.09456606 55.03327112 73.14119329 56 71.1875 C56.67875221 69.82244935 57.35762716 68.45745972 58.03662109 67.0925293 C64.69172897 53.68990625 71.1507352 40.19475653 77.51394653 26.65126038 C78.67700398 24.18075016 79.84726625 21.71369156 81.01873779 19.24716187 C81.85177965 17.4865749 82.67529836 15.72149184 83.49853516 13.95629883 C86.14876469 8.38266737 88.56657285 3.35077003 93 -1 C96.6826356 -1.76721575 98.33807691 -1.34870698 101.64805603 0.39501953 C105.24384472 4.37766513 104.69250411 8.10991153 104.63110352 13.3046875 C104.63825882 14.35223206 104.64541412 15.39977661 104.65278625 16.47906494 C104.66970721 19.94481903 104.65024951 23.40928585 104.62890625 26.875 C104.62973463 29.28108833 104.63219283 31.68717661 104.63621521 34.09326172 C104.63907556 39.13721744 104.62434809 44.18072969 104.59692383 49.22460938 C104.56284138 55.69478097 104.56885742 62.16415935 104.5875864 68.6343689 C104.59814755 73.60317614 104.58922648 78.57179835 104.57420158 83.54058838 C104.56901285 85.92644705 104.56950991 88.31232499 104.57574654 90.69818115 C104.58118779 94.03098197 104.56085694 97.36264164 104.53344727 100.6953125 C104.53997314 101.68452698 104.54649902 102.67374146 104.55322266 103.69293213 C104.46015427 110.33743295 104.46015427 110.33743295 102.18540955 113.61279297 C98.95450716 115.66363534 96.74081421 115.53440203 93 115 C90.81536865 113.42169189 90.81536865 113.42169189 89 111 C88.48101807 107.70965576 88.48101807 107.70965576 88.45410156 103.75292969 C88.44376389 103.03058136 88.43342621 102.30823303 88.42277527 101.56399536 C88.39334338 99.18306114 88.3918481 96.80297685 88.390625 94.421875 C88.37564351 92.76847715 88.35891643 91.11509428 88.34051514 89.46173096 C88.29682542 85.11506463 88.27683907 80.76860018 88.26177979 76.42175293 C88.24221445 71.98417211 88.20024383 67.54680949 88.16015625 63.109375 C88.08483662 54.40630707 88.03455594 45.70332478 88 37 C86.72386854 39.38090157 85.44908431 41.76250841 84.17504883 44.14453125 C83.81695381 44.81230591 83.4588588 45.48008057 83.08991241 46.16809082 C80.13001861 51.70607277 77.3607346 57.31801311 74.6875 63 C74.23093018 63.96131836 73.77436035 64.92263672 73.30395508 65.91308594 C71.86612492 68.94056226 70.43267686 71.97008204 69 75 C67.06661646 79.08530111 65.12829042 83.16821342 63.1875 87.25 C62.54010864 88.62285156 62.54010864 88.62285156 61.87963867 90.0234375 C59.63344569 94.74737201 57.30503755 99.42070622 54.86328125 104.046875 C54.38802002 104.94760742 53.91275879 105.84833984 53.4230957 106.77636719 C52 109 52 109 49 111 C46.125 111.4375 46.125 111.4375 43 111 C38.99609047 107.57516083 36.7272889 104.06707372 34.40307617 99.3737793 C34.08047821 98.72931351 33.75788025 98.08484772 33.42550659 97.42085266 C32.37176473 95.30991235 31.33233143 93.19227063 30.29296875 91.07421875 C29.56112322 89.60119285 28.82838768 88.12860884 28.09480286 86.65644836 C26.17401396 82.7958543 24.26531739 78.92940479 22.35913086 75.06158447 C20.40883913 71.10969359 18.44709654 67.16349707 16.48632812 63.21679688 C12.64636236 55.48337229 8.81916073 47.74372015 5 40 C4.99413376 40.82383682 4.98826752 41.64767365 4.98222351 42.49647522 C4.92419974 50.27933695 4.85206803 58.06188207 4.76428509 65.84446049 C4.71965258 69.84509815 4.68038111 73.84563565 4.65356445 77.84643555 C4.62745994 81.71105443 4.58700794 85.57528641 4.53681374 89.43966484 C4.52019312 90.91031501 4.508649 92.38103202 4.50238609 93.85176277 C4.492692 95.91989347 4.46457291 97.98704504 4.43237305 100.05493164 C4.42126999 101.22963516 4.41016693 102.40433868 4.39872742 103.61463928 C3.92033004 107.67643094 2.85719817 110.36407683 1 114 C-2.1880384 115.5940192 -5.53836793 115.51782611 -9 115 C-12.07891668 112.219043 -12.87136776 108.98495389 -13.13422108 104.92880344 C-13.1406313 103.81580073 -13.1406313 103.81580073 -13.14717102 102.68031311 C-13.15432632 101.82379654 -13.16148163 100.96727997 -13.16885376 100.08480835 C-13.17154266 99.15326935 -13.17423157 98.22173035 -13.17700195 97.26196289 C-13.18357315 96.27454605 -13.19014435 95.28712921 -13.19691467 94.26979065 C-13.21661741 91.0040784 -13.22830131 87.73841199 -13.23828125 84.47265625 C-13.24235678 83.35724394 -13.2464323 82.24183163 -13.25063133 81.09261894 C-13.27147549 75.19301413 -13.28578646 69.29343248 -13.29516602 63.39379883 C-13.30624906 57.29598664 -13.34067578 51.19853749 -13.38033772 45.10085392 C-13.40645101 40.41429454 -13.41485298 35.72782256 -13.41844749 31.04119682 C-13.42332424 28.79289729 -13.434969 26.54460194 -13.45348549 24.29637337 C-13.47777211 21.15309709 -13.47693126 18.01077256 -13.4699707 14.86743164 C-13.48278076 13.93791687 -13.49559082 13.0084021 -13.50878906 12.05072021 C-13.47470725 7.83290386 -13.37229524 5.59708335 -11.09562683 1.94578552 C-7.294601 -1.58345972 -4.97662858 -1.49298857 0 0 Z " fill="#2DABE0" transform="translate(16,185)"/>
<path d="M0 0 C0.89396484 0.1453418 1.78792969 0.29068359 2.70898438 0.44042969 C60.29652109 10.26049636 112.82151757 42.54898818 147 90 C147.60642334 90.83772949 147.60642334 90.83772949 148.22509766 91.69238281 C180.83950638 137.27240865 195.61775615 196.9533321 186.96875 252.390625 C186.65278564 254.26160404 186.3298267 256.13141487 186 258 C185.83371094 258.94294922 185.66742187 259.88589844 185.49609375 260.85742188 C182.76536609 275.75505833 178.44133834 289.87791683 173 304 C172.71930664 304.7326709 172.43861328 305.4653418 172.14941406 306.22021484 C165.12077355 324.20475951 154.91707043 340.86411117 143 356 C142.27554687 356.93585938 141.55109375 357.87171875 140.8046875 358.8359375 C104.61487311 404.37367443 51.2099821 434.66557516 -6.69311523 441.75 C-64.93475693 448.06171987 -123.81239935 432.12619453 -169.87890625 395.56640625 C-170.92154058 394.71370531 -171.96180953 393.85810594 -173 393 C-173.58120605 392.52030762 -174.16241211 392.04061523 -174.76123047 391.54638672 C-185.38712341 382.71937659 -195.13851943 373.55431684 -203.69433594 362.65625 C-204.61813587 361.48439907 -205.54921314 360.31826797 -206.48535156 359.15625 C-226.29280331 334.55253915 -241.24286532 305.31503335 -248.75 274.5625 C-248.93667236 273.80195313 -249.12334473 273.04140625 -249.31567383 272.2578125 C-249.94265916 269.51450532 -250.48297134 266.76636551 -251 264 C-251.12601593 263.32891205 -251.25203186 262.6578241 -251.38186646 261.96640015 C-253.7418588 249.03631609 -254.50165079 236.3792532 -254.44604492 223.24682617 C-254.43753399 220.19966904 -254.4664479 217.154396 -254.49804688 214.10742188 C-254.56439796 195.71967087 -251.89566081 177.91774248 -246.75 160.25 C-246.45262939 159.21327148 -246.15525879 158.17654297 -245.84887695 157.10839844 C-243.22302961 148.23856612 -239.96235037 139.7738454 -236.09326172 131.37744141 C-234.93539065 128.85949846 -233.81406659 126.32678647 -232.69140625 123.79296875 C-222.29423535 100.7435905 -207.39312942 81.19627537 -190 63 C-189.36449219 62.32324219 -188.72898437 61.64648438 -188.07421875 60.94921875 C-183.12787784 55.81399609 -177.5760992 51.42743731 -172 47 C-171.02160156 46.20464844 -170.04320312 45.40929687 -169.03515625 44.58984375 C-155.53249299 33.84560602 -140.65410877 25.21363732 -125 18 C-124.28827637 17.6690332 -123.57655273 17.33806641 -122.84326172 16.99707031 C-104.81618507 8.71832055 -85.64172456 2.86652095 -66 0 C-65.03392822 -0.15227051 -65.03392822 -0.15227051 -64.04833984 -0.30761719 C-43.14629886 -3.53427752 -20.87531214 -3.39497611 0 0 Z M-109 14 C-109.75780762 14.30309082 -110.51561523 14.60618164 -111.29638672 14.91845703 C-135.70334106 24.81474856 -157.23222 37.59009667 -177 55 C-177.71285156 55.60199219 -178.42570313 56.20398438 -179.16015625 56.82421875 C-190.13935984 66.13512447 -199.40041785 76.50202752 -208 88 C-208.72058594 88.94875 -209.44117188 89.8975 -210.18359375 90.875 C-234.11872964 122.97514327 -251.03696655 165.04984747 -251.203125 205.453125 C-251.20882507 206.54856628 -251.21452515 207.64400757 -251.22039795 208.77264404 C-251.22981411 211.08897956 -251.23636842 213.40532826 -251.24023438 215.72167969 C-251.24985474 219.19751711 -251.2808758 222.67274067 -251.3125 226.1484375 C-251.47566405 260.37802232 -243.37814489 292.84634914 -227 323 C-226.47237061 323.99290039 -226.47237061 323.99290039 -225.93408203 325.00585938 C-212.03501971 351.11735624 -192.402023 374.88230477 -169 393 C-168.44715332 393.42925781 -167.89430664 393.85851562 -167.32470703 394.30078125 C-122.08291549 429.1775414 -64.39869938 446.02202101 -7.4765625 438.984375 C51.86548974 430.73940979 105.08153905 401.3425241 141.69140625 353.49609375 C158.84396503 330.78183876 171.31231177 305.3374752 178.8125 277.875 C179.09037354 276.8638916 179.36824707 275.8527832 179.65454102 274.81103516 C184.11650095 257.74780534 185.4877106 241.58982066 185.39111328 223.98681641 C185.37502373 220.50513542 185.39105055 217.02461487 185.41015625 213.54296875 C185.4268272 196.79097167 183.83696987 181.21791521 179.25 165.0625 C178.99395996 164.14702393 178.73791992 163.23154785 178.47412109 162.28833008 C162.4206798 106.25611079 126.00265032 57.81127217 74.90039062 29.04980469 C51.22723448 15.97239315 26.60075332 7.53365524 0 3 C-1.44052734 2.73086792 -1.44052734 2.73086792 -2.91015625 2.45629883 C-6.01129348 1.99833221 -8.92210037 1.88619639 -12.0546875 1.90234375 C-13.16328125 1.90556641 -14.271875 1.90878906 -15.4140625 1.91210938 C-17.12722656 1.92467773 -17.12722656 1.92467773 -18.875 1.9375 C-20.62296875 1.94426758 -20.62296875 1.94426758 -22.40625 1.95117188 C-25.27085551 1.96291206 -28.13543446 1.98084614 -31 2 C-31 8.27 -31 14.54 -31 21 C-32.32 21 -33.64 21 -35 21 C-35 14.73 -35 8.46 -35 2 C-60.61382068 1.44137871 -85.02581544 4.3090514 -109 14 Z " fill="#EEEDEA" transform="translate(958,31)"/>
<path d="M0 0 C0.70470932 -0.0087616 1.40941864 -0.01752319 2.13548279 -0.02655029 C4.45488856 -0.04847955 6.77237322 -0.03401716 9.09179688 -0.01708984 C10.70935429 -0.0204599 12.32690924 -0.02531411 13.94445801 -0.03158569 C17.3305681 -0.03894816 20.71601763 -0.02827254 24.10205078 -0.00488281 C28.43686756 0.0236056 32.77013653 0.00719812 37.10489655 -0.02274513 C40.4439047 -0.04083564 43.78254745 -0.03505227 47.12156677 -0.02210617 C48.7195199 -0.01877695 50.31750649 -0.02284225 51.91542053 -0.03450394 C54.15153526 -0.04724288 56.38516371 -0.02779915 58.62109375 0 C59.89174683 0.00397797 61.1623999 0.00795593 62.47155762 0.01205444 C66.70607761 0.81726035 68.22411292 2.25411603 70.81054688 5.64697266 C70.81054688 9.33447266 70.81054688 9.33447266 69.81054688 12.64697266 C66.28437043 14.99775695 64.85889806 14.89067865 60.68676758 14.87402344 C59.4256868 14.87387238 58.16460602 14.87372131 56.86531067 14.87356567 C55.48898155 14.86335242 54.11265404 14.85292043 52.73632812 14.84228516 C51.3281423 14.83855438 49.91995388 14.83570771 48.51176453 14.83370972 C44.80781877 14.8260783 41.1040302 14.80643414 37.40014648 14.78430176 C33.61965093 14.76383269 29.83912918 14.75459614 26.05859375 14.74462891 C18.64243937 14.72424926 11.22671645 14.68510206 3.81054688 14.64697266 C3.81054688 26.52697266 3.81054688 38.40697266 3.81054688 50.64697266 C8.48791016 50.59476563 8.48791016 50.59476563 13.25976562 50.54150391 C16.28474004 50.51809782 19.30970431 50.4998872 22.3347168 50.48217773 C24.43469774 50.46710494 26.53464727 50.44664324 28.63452148 50.4206543 C31.65551511 50.38420512 34.67609198 50.36723106 37.69726562 50.35400391 C38.63390549 50.33852005 39.57054535 50.32303619 40.53556824 50.30708313 C48.98353951 50.30490917 48.98353951 50.30490917 52.81054688 53.64697266 C53.93554688 57.02197266 53.93554688 57.02197266 53.81054688 60.64697266 C51.79296843 63.56818922 50.19666106 65.37346829 46.61727905 66.07974243 C43.8905866 66.22652166 41.20819623 66.20874613 38.47851562 66.13525391 C36.9908947 66.1246418 36.9908947 66.1246418 35.47322083 66.11381531 C32.31405346 66.08588699 29.15667606 66.02314985 25.99804688 65.95947266 C23.85289023 65.93438784 21.70770573 65.91157499 19.5625 65.89111328 C14.31124103 65.83606592 9.06102184 65.75245575 3.81054688 65.64697266 C3.82164993 66.2121611 3.83275299 66.77734955 3.8441925 67.35966492 C3.954907 73.24816059 4.03026371 79.13636013 4.08520508 85.02563477 C4.11033196 87.22269706 4.14443934 89.4196759 4.18774414 91.61645508 C4.24847449 94.7765767 4.27677521 97.93559223 4.29882812 101.09619141 C4.32463455 102.07657883 4.35044098 103.05696625 4.37702942 104.06706238 C4.37894126 108.72738025 4.34196394 110.9284662 1.50268555 114.76733398 C-1.18945312 116.64697266 -1.18945312 116.64697266 -4.75195312 117.27197266 C-8.18945312 116.64697266 -8.18945312 116.64697266 -10.37095642 114.74658203 C-12.97645834 110.30553016 -12.75713488 106.49239107 -12.72290039 101.42822266 C-12.73151596 100.40164551 -12.74013153 99.37506836 -12.74900818 98.31738281 C-12.77169476 94.926989 -12.76492438 91.53741986 -12.75585938 88.14697266 C-12.76109349 85.78954828 -12.76736919 83.432126 -12.77464294 81.07470703 C-12.78505198 76.13515362 -12.7804778 71.19588821 -12.76586914 66.25634766 C-12.74867522 59.92410247 -12.77218254 53.59276412 -12.80735874 47.26062012 C-12.82931 42.39300515 -12.82789677 37.52560796 -12.81959343 32.65795898 C-12.81877278 30.32315069 -12.82565772 27.98832658 -12.84036446 25.65356445 C-12.8577688 22.3903818 -12.84330076 19.12883907 -12.82055664 15.86572266 C-12.83224884 14.90037598 -12.84394104 13.9350293 -12.85598755 12.94042969 C-12.79344539 8.53395761 -12.61239813 6.27391946 -10.09934998 2.54873657 C-6.47340895 0.17900178 -4.3180464 0.01351828 0 0 Z " fill="#5D5D5D" transform="translate(422.189453125,183.35302734375)"/>
<path d="M0 0 C10.03154276 7.13126679 16.86790485 16.48796176 19.296875 28.6328125 C19.69911157 32.84193093 19.98070077 36.33028723 17.984375 40.1328125 C12.99038388 44.57191572 3.47663868 42.93966237 -2.89013672 42.98291016 C-4.67868045 42.99947977 -6.46715769 43.02678329 -8.25537109 43.06494141 C-10.83986598 43.11976836 -13.4228141 43.14158944 -16.0078125 43.15625 C-16.80379852 43.17891937 -17.59978455 43.20158875 -18.41989136 43.22494507 C-22.64562554 43.20890264 -24.25658993 42.97204125 -27.73876953 40.32666016 C-29.703125 37.6328125 -29.703125 37.6328125 -29.828125 34.0078125 C-28.703125 30.6328125 -28.703125 30.6328125 -26.5324707 28.94018555 C-23.21156208 27.40567302 -20.95563751 27.28799005 -17.30859375 27.33984375 C-16.10654297 27.34951172 -14.90449219 27.35917969 -13.66601562 27.36914062 C-11.79719727 27.4068457 -11.79719727 27.4068457 -9.890625 27.4453125 C-7.99280273 27.46561523 -7.99280273 27.46561523 -6.05664062 27.48632812 C-2.93836857 27.52162932 0.17903542 27.57094431 3.296875 27.6328125 C2.54127968 26.19918673 1.77642517 24.77043907 1.0078125 23.34375 C0.58290527 22.54759277 0.15799805 21.75143555 -0.27978516 20.93115234 C-3.28322972 16.08133637 -8.13220944 12.13061883 -13.4921875 10.10546875 C-21.08588904 8.48208026 -29.35873768 8.35515862 -36.1015625 12.515625 C-36.63007812 12.88429687 -37.15859375 13.25296875 -37.703125 13.6328125 C-38.59 14.1690625 -39.476875 14.7053125 -40.390625 15.2578125 C-46.12009447 21.14213249 -48.23396657 27.461738 -48.390625 35.6328125 C-48.28608533 42.85785226 -46.67996093 48.29107617 -41.703125 53.6328125 C-34.35325318 59.81482904 -28.50414248 60.97895586 -19.0390625 60.92578125 C-14.31921823 60.51127502 -10.78438597 58.92904557 -6.703125 56.6328125 C-3.46412019 54.91341555 -1.42412111 54.07466308 2.296875 54.6328125 C5.29636109 56.74055948 6.16705278 57.95485201 6.859375 61.5703125 C6.08485365 65.78715095 4.64451952 66.96836074 1.296875 69.6328125 C-9.37147931 76.53234632 -20.51675046 78.51281473 -33.0625 75.9453125 C-39.57557883 73.96163367 -44.6518815 71.17018491 -49.703125 66.6328125 C-50.31929687 66.10816406 -50.93546875 65.58351563 -51.5703125 65.04296875 C-59.23258971 58.05484039 -63.15014011 48.65146682 -63.95703125 38.41015625 C-64.35895897 26.49494408 -61.27744454 16.89031416 -53.703125 7.6328125 C-39.29260524 -7.77153621 -18.06428666 -10.69764493 0 0 Z " fill="#5D5D5D" transform="translate(1471.703125,224.3671875)"/>
<path d="M0 0 C7.94826847 5.82952823 13.75560752 13.75832328 16.28125 23.33984375 C16.6053462 27.20590624 16.63294384 31.06320917 16.65234375 34.94140625 C16.66137222 36.05542816 16.6704007 37.16945007 16.67970276 38.31723022 C16.69417552 40.66556114 16.70308458 43.0139321 16.70678711 45.36230469 C16.71873281 48.95966694 16.7679915 52.55534061 16.81835938 56.15234375 C16.82781843 58.43618956 16.83505593 60.72004587 16.83984375 63.00390625 C16.85937607 64.08000153 16.87890839 65.1560968 16.89903259 66.26480103 C16.85409638 73.6686653 16.85409638 73.6686653 13.97290039 77.04443359 C10.24987401 78.83621391 8.19077525 78.57062022 4.28125 77.33984375 C0.37603339 72.84918403 0.85677079 67.92100602 0.875 62.2890625 C0.86416382 61.3162886 0.85332764 60.34351471 0.84216309 59.34126282 C0.80795058 56.23655548 0.79232421 53.13221462 0.78125 50.02734375 C0.76662373 45.94756723 0.73281019 41.86860106 0.6875 37.7890625 C0.69052124 36.86171799 0.69354248 35.93437347 0.69665527 34.97892761 C0.62037798 28.30865313 -0.18488193 22.44099572 -4.55078125 17.09765625 C-10.61957775 12.09419089 -15.46999694 9.88532978 -23.4140625 10.0859375 C-29.28500422 10.73273616 -34.64051697 13.04116569 -38.71875 17.33984375 C-43.20482461 24.35635995 -44.41740729 30.23164406 -44.25 38.45703125 C-44.25326294 39.47660919 -44.25652588 40.49618713 -44.2598877 41.54666138 C-44.2696508 44.76993662 -44.2482005 47.99170337 -44.21875 51.21484375 C-44.18012712 55.48362213 -44.17376097 59.75063622 -44.1875 64.01953125 C-44.16788208 64.99558319 -44.14826416 65.97163513 -44.12805176 66.9772644 C-44.15395831 73.69219841 -44.15395831 73.69219841 -47.02539062 76.98486328 C-50.72177967 78.84444987 -52.79429943 78.50264392 -56.71875 77.33984375 C-59.42091945 74.50309538 -60.09697414 72.52932815 -60.12280273 68.65405273 C-60.13548691 67.72886337 -60.14817108 66.80367401 -60.16123962 65.85044861 C-60.15830399 64.85565994 -60.15536835 63.86087128 -60.15234375 62.8359375 C-60.1575856 61.80227554 -60.16282745 60.76861359 -60.16822815 59.70362854 C-60.17465129 57.51393531 -60.1733076 55.32420759 -60.16479492 53.13452148 C-60.1563424 49.81364825 -60.18495014 46.49452891 -60.21679688 43.17382812 C-60.21841065 41.04036509 -60.21782799 38.90689905 -60.21484375 36.7734375 C-60.22607773 35.79281845 -60.23731171 34.8121994 -60.24888611 33.80186462 C-60.13814501 22.61962947 -56.4595863 13.43253624 -48.71875 5.33984375 C-35.00893584 -7.52903386 -16.36883317 -9.99533635 0 0 Z " fill="#2CAAE0" transform="translate(270.71875,222.66015625)"/>
<path d="M0 0 C7.99388624 6.53598485 13.55385794 14.0424851 15.75 24.25 C15.85790396 25.84131067 15.9181237 27.436233 15.94287109 29.03100586 C15.95893402 29.97556137 15.97499695 30.92011688 15.99154663 31.89329529 C16.036163 36.19049165 16.07702535 40.48753842 16.10009766 44.78491211 C16.11668688 47.0516179 16.14401548 49.31827075 16.18212891 51.5847168 C16.23684636 54.85753429 16.25876033 58.12913073 16.2734375 61.40234375 C16.29610687 62.41393051 16.31877625 63.42551727 16.34213257 64.46775818 C16.32790063 69.20022903 16.28772764 71.50898786 13.44384766 75.42797852 C10.75 77.25 10.75 77.25 7.125 77.25 C3.79908582 76.26454395 2.77588108 75.90536458 0.75 73.25 C0.38491821 71.17222595 0.38491821 71.17222595 0.39697266 68.75366211 C0.39331696 67.84519028 0.38966125 66.93671844 0.38589478 66.00071716 C0.39519012 65.01950394 0.40448547 64.03829071 0.4140625 63.02734375 C0.40154024 60.94075216 0.38850269 58.8541636 0.375 56.76757812 C0.37108488 53.48499605 0.37493177 50.20271853 0.38964844 46.92016602 C0.39828066 43.74710499 0.37642043 40.57529499 0.3515625 37.40234375 C0.36490631 36.43530014 0.37825012 35.46825653 0.39199829 34.47190857 C0.31659591 27.42727565 -1.42524053 22.1853667 -5.25 16.25 C-7.41148385 13.9651254 -7.41148385 13.9651254 -9.8125 12.6875 C-10.55628906 12.23246094 -11.30007813 11.77742188 -12.06640625 11.30859375 C-17.71284699 8.5712316 -24.44347541 8.13752978 -30.46875 9.8984375 C-36.36805741 12.55312584 -40.77636224 16.76784602 -43.30737305 22.74853516 C-44.53434524 27.30622363 -44.54757569 31.55117188 -44.55859375 36.25 C-44.58374489 38.20833642 -44.60914304 40.16666969 -44.63476562 42.125 C-44.66352532 45.1927006 -44.68756319 48.2603466 -44.70629883 51.328125 C-44.72798597 54.30236154 -44.76741524 57.27597871 -44.80859375 60.25 C-44.80870956 61.16265625 -44.80882538 62.0753125 -44.8089447 63.015625 C-44.88800658 68.11951843 -45.25874048 71.90475629 -48.25 76.25 C-52.17930575 77.55976858 -54.18967626 77.7661456 -57.93725586 75.94189453 C-61.57337128 71.70967574 -60.94630198 67.46103801 -60.87890625 62.0546875 C-60.88131821 60.95206573 -60.88373016 59.84944397 -60.88621521 58.71340942 C-60.88523563 56.37823903 -60.87181591 54.04304574 -60.84692383 51.70800781 C-60.81282365 48.15868688 -60.82620914 44.61188516 -60.84570312 41.0625 C-60.83879846 38.78905201 -60.8291205 36.51561042 -60.81640625 34.2421875 C-60.82136612 33.19078583 -60.82632599 32.13938416 -60.83143616 31.05612183 C-60.6581098 20.0303613 -56.95153158 11.17199527 -49.25 3.25 C-34.94580207 -8.94646015 -15.83812519 -11.08365931 0 0 Z " fill="#5C5C5C" transform="translate(1267.25,223.75)"/>
<path d="M0 0 C8.94096879 6.60530806 15.16922003 14.38433715 17.53515625 25.421875 C17.64306021 27.01318567 17.70327995 28.608108 17.72802734 30.20288086 C17.74409027 31.14743637 17.7601532 32.09199188 17.77670288 33.06517029 C17.82131925 37.36236665 17.8621816 41.65941342 17.88525391 45.95678711 C17.90184313 48.2234929 17.92917173 50.49014575 17.96728516 52.7565918 C18.02200261 56.02940929 18.04391658 59.30100573 18.05859375 62.57421875 C18.08126312 63.58580551 18.1039325 64.59739227 18.12728882 65.63963318 C18.11306058 70.37087449 18.0744311 72.67964417 15.22900391 76.59594727 C12.53515625 78.421875 12.53515625 78.421875 8.91015625 78.484375 C5.16623944 77.30573452 4.47299674 76.69707485 2.53515625 73.421875 C2.17007446 71.2618103 2.17007446 71.2618103 2.18212891 68.90380859 C2.17847321 68.01543304 2.1748175 67.1270575 2.17105103 66.21176147 C2.18034637 65.25758331 2.18964172 64.30340515 2.19921875 63.3203125 C2.18669834 61.28254895 2.17366087 59.24478852 2.16015625 57.20703125 C2.1562399 54.00786094 2.1601005 50.80900333 2.17480469 47.60986328 C2.18343806 44.51288182 2.16157826 41.41718148 2.13671875 38.3203125 C2.15006256 37.37827972 2.16340637 36.43624695 2.17715454 35.46566772 C2.10067806 28.49919374 0.31045741 23.29092357 -3.46484375 17.421875 C-5.66152685 15.13627375 -5.66152685 15.13627375 -8.08984375 13.859375 C-8.84523438 13.40433594 -9.600625 12.94929688 -10.37890625 12.48046875 C-16.03808579 9.60848812 -22.66278801 9.34484215 -28.75390625 11.0703125 C-34.60743372 13.71457008 -38.98360157 17.97745049 -41.52661133 23.89086914 C-42.78048256 28.60977093 -42.72406666 33.03384693 -42.703125 37.89453125 C-42.71853598 39.94857438 -42.73483897 42.00261098 -42.75195312 44.05664062 C-42.76843873 47.27822334 -42.77731105 50.4993256 -42.77026367 53.72094727 C-42.76764686 56.84185715 -42.79572905 59.96131526 -42.828125 63.08203125 C-42.81791824 64.04359634 -42.80771149 65.00516144 -42.79719543 65.99586487 C-42.86462136 70.6035609 -42.98067154 72.76334969 -45.77807617 76.56811523 C-48.46484375 78.421875 -48.46484375 78.421875 -52.08984375 78.421875 C-55.42191117 77.43459576 -56.4480485 77.09413163 -58.46484375 74.421875 C-58.8525238 72.19224548 -58.8525238 72.19224548 -58.86889648 69.55834961 C-58.88158066 68.56979477 -58.89426483 67.58123993 -58.90733337 66.56272888 C-58.90439774 65.49402054 -58.9014621 64.42531219 -58.8984375 63.32421875 C-58.90367935 62.22018204 -58.9089212 61.11614532 -58.9143219 59.97865295 C-58.92075199 57.63755128 -58.91939241 55.29641733 -58.91088867 52.95532227 C-58.90243399 49.39735052 -58.93103848 45.8410139 -58.96289062 42.28320312 C-58.96450425 40.00520881 -58.96392202 37.72721168 -58.9609375 35.44921875 C-58.97217148 34.39468002 -58.98340546 33.3401413 -58.99497986 32.25364685 C-58.90752515 22.83205683 -56.66631829 14.97350008 -50.02734375 8.046875 C-49.28613281 7.25539062 -48.54492188 6.46390625 -47.78125 5.6484375 C-44.27494634 2.27812875 -40.78728173 -0.62982022 -36.40234375 -2.765625 C-35.75136719 -3.08917969 -35.10039063 -3.41273438 -34.4296875 -3.74609375 C-23.48425369 -8.38103888 -9.7785701 -6.26076437 0 0 Z " fill="#5D5D5D" transform="translate(631.46484375,222.578125)"/>
<path d="M0 0 C1.14831299 0.00563965 2.29662598 0.0112793 3.47973633 0.01708984 C28.20156805 0.36968534 47.46693744 9.27951998 65.3125 26.3125 C66.21548828 27.10333984 66.21548828 27.10333984 67.13671875 27.91015625 C81.01363654 40.55788319 89.9298869 60.28095962 91.63061523 78.77099609 C92.7439289 104.5414106 88.74694936 127.93697702 71.453125 147.98828125 C70.74671875 148.75527344 70.0403125 149.52226562 69.3125 150.3125 C68.50296875 151.21355469 67.6934375 152.11460937 66.859375 153.04296875 C56.84684658 163.65566334 44.89035356 171.00083077 31.3125 176.3125 C30.27996094 176.72628906 29.24742187 177.14007813 28.18359375 177.56640625 C10.72146557 183.37362617 -11.43526804 182.55441073 -28.6875 176.3125 C-29.74324219 175.95027344 -30.79898438 175.58804688 -31.88671875 175.21484375 C-43.86707 170.68961504 -53.50783357 163.07490886 -62.6875 154.3125 C-63.30109375 153.77367187 -63.9146875 153.23484375 -64.546875 152.6796875 C-70.53951367 147.20934303 -74.57340624 140.22572693 -78.6875 133.3125 C-79.18507813 132.48878906 -79.68265625 131.66507813 -80.1953125 130.81640625 C-90.54275317 112.04133308 -92.17402642 87.40957905 -87.0625 66.8125 C-86.32613599 64.62641935 -85.5359772 62.45755641 -84.6875 60.3125 C-84.275 59.15621094 -83.8625 57.99992187 -83.4375 56.80859375 C-75.10433348 35.24179064 -57.54328306 16.98825918 -36.58203125 7.34375 C-24.47629599 2.15238109 -13.17183063 -0.06769166 0 0 Z M-64.21875 34.15625 C-78.5984444 52.4755867 -86.18914297 73.91593379 -84.6875 97.3125 C-81.64346689 121.16142082 -70.84538238 141.58401705 -52.6875 157.3125 C-34.19617245 171.2486334 -11.61621856 178.91239631 11.60009766 176.02832031 C35.05870935 172.25267321 56.74928943 160.34830605 70.8515625 140.92578125 C83.51058904 122.50770147 90.68871604 99.26740867 86.59375 76.9140625 C82.81560374 58.96084146 75.1347746 43.51519112 62.3125 30.3125 C61.68730469 29.61382812 61.06210937 28.91515625 60.41796875 28.1953125 C47.15443234 13.84276995 25.71139565 5.1950454 6.359375 4.0859375 C-20.41023097 3.31527865 -46.34668764 14.07776019 -64.21875 34.15625 Z " fill="#F6F6F5" transform="translate(923.6875,161.6875)"/>
<path d="M0 0 C10.89981242 -0.50186187 20.44042996 2.42666591 28.84765625 9.40625 C31.75105702 12.27194427 33.52314525 14.13237889 34.02734375 18.25 C33.65234375 21.1875 33.65234375 21.1875 32.52734375 23.0625 C29.7804791 24.71061879 27.81679677 24.46569367 24.65234375 24.1875 C22.0546875 22.7265625 22.0546875 22.7265625 19.58984375 20.8125 C12.37446985 15.27273425 6.64152657 14.42867288 -2.34765625 15.1875 C-8.28985912 16.52206032 -13.31423063 19.11720012 -16.7265625 24.26953125 C-21.46790873 32.41492092 -22.93668083 40.897268 -20.59375 50.171875 C-17.67736489 58.63511022 -14.34868344 63.18698641 -6.34765625 67.1875 C1.94611225 69.85209371 10.82445635 68.75814717 18.62890625 65.2578125 C20.86609623 64.11814809 20.86609623 64.11814809 23.65234375 62.1875 C26.93170094 61.68298351 28.23399791 61.91227247 31.02734375 63.75 C32.65234375 66.1875 32.65234375 66.1875 32.96484375 69.5625 C31.03599392 74.88979953 27.55426566 76.65175738 22.65234375 79.1875 C12.35059697 83.81608203 0.62633363 85.26067053 -10.22265625 81.5625 C-21.33532937 76.84703336 -29.44651421 70.15461073 -34.22265625 58.9375 C-38.59587784 47.7582713 -38.94707423 36.2117706 -34.60546875 24.90234375 C-29.03104533 12.87059135 -20.72796805 5.76783207 -8.34765625 1.1875 C-5.49992757 0.41624015 -2.92399359 0.23353027 0 0 Z " fill="#5D5D5D" transform="translate(1349.34765625,217.8125)"/>
<path d="M0 0 C4.05860255 0.8455422 5.40247681 2.43349749 8 5.625 C8.61473083 8.81213379 8.61473083 8.81213379 8.59936523 12.44726562 C8.60330795 13.11296066 8.60725067 13.7786557 8.61131287 14.46452332 C8.61799889 16.65421027 8.58891599 18.84178788 8.55859375 21.03125 C8.55434039 22.55911862 8.55201471 24.08699371 8.55152893 25.61486816 C8.54537143 28.81271783 8.52271214 32.00986488 8.48706055 35.20751953 C8.44178857 39.29980095 8.42703396 43.39144665 8.42332363 47.48395538 C8.41888763 50.63761627 8.40357075 53.79114468 8.3844471 56.94474792 C8.37558818 58.45337336 8.36884693 59.9620128 8.36428642 61.47065735 C8.35520882 63.58158923 8.33278859 65.69195666 8.30639648 67.80273438 C8.29043678 69.60212463 8.29043678 69.60212463 8.27415466 71.43786621 C7.91942482 75.56171165 7.09001486 78.45712694 4.25 81.5 C1.06886766 83.09056617 -0.64343986 82.67392504 -4 81.625 C-7.00345022 79.3633972 -7.90696124 78.20000654 -8.5146637 74.44422913 C-8.52086227 73.18912033 -8.52706085 71.93401154 -8.53344727 70.64086914 C-8.54206284 69.94605942 -8.55067841 69.25124969 -8.55955505 68.53538513 C-8.58221993 66.24326098 -8.57547574 63.95235906 -8.56640625 61.66015625 C-8.57164199 60.06358985 -8.57791829 58.46702656 -8.58518982 56.87046814 C-8.59559516 53.52555784 -8.59103149 50.18107291 -8.57641602 46.83618164 C-8.55923507 42.55406061 -8.58271263 38.27328225 -8.61790562 33.99131107 C-8.63989032 30.69436283 -8.63843556 27.39773528 -8.6301403 24.10073662 C-8.62932121 22.522308 -8.63617668 20.94385574 -8.65091133 19.36549568 C-8.66837723 17.15567217 -8.65380253 14.94825313 -8.63110352 12.73852539 C-8.63014175 11.482621 -8.62917999 10.22671661 -8.62818909 8.93275452 C-7.66751157 3.87426902 -5.05997334 1.05416111 0 0 Z " fill="#2EABE0" transform="translate(167,218.375)"/>
<path d="M0 0 C3.1359157 1.77984405 3.84102736 2.52308207 5 6 C5.10981796 8.22707869 5.15903685 10.45729946 5.17700195 12.68701172 C5.18357315 13.36216827 5.19014435 14.03732483 5.19691467 14.73294067 C5.21661081 16.96519079 5.22830091 19.19737381 5.23828125 21.4296875 C5.24235678 22.19297489 5.2464323 22.95626228 5.25063133 23.7426796 C5.27147466 27.78141254 5.28578482 31.82011166 5.29516602 35.85888672 C5.30623724 40.0275581 5.34064972 44.1956967 5.38033772 48.36417961 C5.40649178 51.57269274 5.41485665 54.78107852 5.41844749 57.98968887 C5.42331529 59.52627289 5.43493489 61.06285115 5.45348549 62.5993309 C5.47785674 64.75138303 5.47691683 66.9020511 5.4699707 69.05419922 C5.47877007 70.88928543 5.47877007 70.88928543 5.48774719 72.76144409 C4.90793969 76.61126431 3.71901512 78.26572075 1 81 C-1 81.6640625 -1 81.6640625 -3 81.625 C-3.66 81.63789063 -4.32 81.65078125 -5 81.6640625 C-8.14301661 80.62048277 -9.20221371 78.72599859 -11 76 C-11.50120544 72.77490234 -11.50120544 72.77490234 -11.50170898 69.0859375 C-11.50711197 68.41048889 -11.51251495 67.73504028 -11.51808167 67.03912354 C-11.53053903 64.8172965 -11.51409986 62.59677302 -11.49609375 60.375 C-11.49624881 58.82470634 -11.49773895 57.27441229 -11.50050354 55.72412109 C-11.50188618 52.47931727 -11.48935267 49.2349562 -11.46655273 45.99023438 C-11.4381681 41.83732796 -11.44090703 37.68515687 -11.45364285 33.53219604 C-11.46060793 30.33221184 -11.45280135 27.13239669 -11.44038582 23.93243408 C-11.43587935 22.40147551 -11.43552748 20.87049875 -11.43945122 19.33953857 C-11.4423717 17.19733674 -11.42581841 15.05613741 -11.40405273 12.9140625 C-11.39864975 11.6967041 -11.39324677 10.4793457 -11.38768005 9.22509766 C-10.96509806 5.70965192 -10.11268496 3.81344725 -8 1 C-5.19084526 -0.40457737 -3.11189466 -0.24895157 0 0 Z " fill="#32ADE1" transform="translate(333,219)"/>
<path d="M0 0 C2.65977478 1.57629395 2.65977478 1.57629395 5 4 C5.62818909 7.22546387 5.62818909 7.22546387 5.63110352 11.09179688 C5.63825882 11.79796646 5.64541412 12.50413605 5.65278625 13.23170471 C5.66966809 15.56138191 5.65027679 17.88913313 5.62890625 20.21875 C5.62973501 21.8401302 5.63219467 23.46151032 5.63621521 25.08288574 C5.63907282 28.47918012 5.62437651 31.87481489 5.59692383 35.27099609 C5.56284032 39.62259468 5.56885915 43.97301384 5.5875864 48.32466888 C5.59815933 51.67219864 5.58921607 55.01945434 5.57420158 58.36695862 C5.56902141 59.97131028 5.5694996 61.57569059 5.57574654 63.18003845 C5.58120262 65.42338508 5.56081471 67.66504838 5.53344727 69.90820312 C5.52724869 71.18409302 5.52105011 72.45998291 5.5146637 73.77453613 C4.91380034 77.54022438 3.99989133 78.7251868 1 81 C-2.40035988 81.82887851 -5.78493556 81.62713003 -8.9375 80 C-12.61031235 73.08647088 -11.18211706 62.98768649 -11.203125 55.39453125 C-11.20595238 54.70202459 -11.20877975 54.00951794 -11.21169281 53.29602623 C-11.22659387 49.63981124 -11.23588382 45.98363487 -11.24023438 42.32739258 C-11.24574306 38.56138882 -11.26984673 34.79574221 -11.29820633 31.02985096 C-11.31684441 28.12073218 -11.32203865 25.21169991 -11.32357025 22.30252647 C-11.32658859 20.91388661 -11.33458942 19.52524798 -11.34775543 18.13666725 C-11.36485805 16.19640932 -11.36108477 14.25600158 -11.35644531 12.31567383 C-11.36009094 11.2139534 -11.36373657 10.11223297 -11.36749268 8.97712708 C-10.95061557 5.59992746 -10.01139762 3.72052655 -8 1 C-5.14675563 -0.42662219 -3.16545451 -0.31033868 0 0 Z " fill="#5F5F5E" transform="translate(531,219)"/>
<path d="M0 0 C4.53056119 1.33424294 8.57179525 3.21569201 12.77319336 5.32543945 C49.14598128 23.49306168 85.96481366 27.53189312 126 27 C126 27.33 126 27.66 126 28 C127.98 28.33 129.96 28.66 132 29 C132 29.33 132 29.66 132 30 C84.71726464 34.48375261 42.09215839 24.08245514 0 3 C0 2.01 0 1.02 0 0 Z " fill="#EEEDE9" transform="translate(817,443)"/>
<path d="M0 0 C9.31384005 13.97076008 12.38150445 33.71397657 15.25 49.9375 C15.49484131 51.32110718 15.49484131 51.32110718 15.74462891 52.73266602 C17.63910985 64.02187594 18.16371834 75.19018359 18.125 86.625 C18.13080078 88.34976563 18.13080078 88.34976563 18.13671875 90.109375 C18.12909626 96.80191806 17.82912519 103.35755513 17 110 C16.67 110 16.34 110 16 110 C15.67 108.35 15.34 106.7 15 105 C14.67 105 14.34 105 14 105 C13.98541748 103.70078613 13.97083496 102.40157227 13.95581055 101.06298828 C13.89699178 96.15355505 13.81978006 91.24454139 13.73754883 86.33544922 C13.70468643 84.22744656 13.67654003 82.11936406 13.65356445 80.01123047 C13.45984401 62.69179837 11.90585124 46.46301252 7.125 29.75 C6.87032959 28.83033447 6.61565918 27.91066895 6.35327148 26.96313477 C4.50589122 20.41906389 2.33448631 14.08440191 -0.21484375 7.77734375 C-1.07556704 4.73269569 -0.88700463 3.0025933 0 0 Z " fill="#EDECE9" transform="translate(1129,166)"/>
<path d="M0 0 C2.97672584 1.77280561 5.42804007 3.85608015 7 7 C7.55643869 11.08055043 7.15667249 12.74051119 5 16.3125 C2.30437587 19.22254877 -0.16038128 19.9653126 -4.0703125 20.171875 C-7.04670288 19.9067714 -8.74747147 18.92127434 -11 17 C-13.56570589 13.57905881 -13.43708054 10.15226516 -13 6 C-9.33404658 0.37887142 -6.67491925 -0.66749193 0 0 Z " fill="#2EABE0" transform="translate(170,186)"/>
<path d="M0 0 C3.5386994 1.65139305 4.81070153 2.71605229 7 6 C7.58714433 10.44552136 7.30512292 12.48510507 5 16.375 C1.80780476 19.16817084 0.14015256 20.06158166 -4 20.3125 C-7.7000711 19.73436389 -9.45940763 17.6645237 -12 15 C-13.41000664 12.17998673 -13.24548451 10.12992745 -13 7 C-10.01415562 0.74394511 -6.81497582 -0.58749792 0 0 Z " fill="#2EABE0" transform="translate(333,186)"/>
<path d="M0 0 C2.75329021 1.79562405 4.52627461 3.05254922 6 6 C6.70153846 13.13230769 6.70153846 13.13230769 3.625 16.9375 C-0.16080728 19.91206287 -2.17180697 20.47335226 -7 20 C-9.69990662 18.20006226 -11.5418865 16.916227 -13 14 C-13.47844415 10.9173662 -13.55149629 8.07565238 -13 5 C-9.11265243 0.35414559 -5.98805544 -0.97986362 0 0 Z " fill="#5E5E5E" transform="translate(532,186)"/>
<path d="M0 0 C0 0.33 0 0.66 0 1 C3.96 1.33 7.92 1.66 12 2 C12 2.33 12 2.66 12 3 C11.05084717 3.02187378 11.05084717 3.02187378 10.08251953 3.04418945 C-13.78038015 3.65489669 -36.36850797 7.06378887 -59 15 C-59 14.34 -59 13.68 -59 13 C-59.66 12.67 -60.32 12.34 -61 12 C-41.17472971 5.60022576 -21.03949036 -0.46754423 0 0 Z " fill="#E6E6E4" transform="translate(910,30)"/>
<path d="M0 0 C0.33 0 0.66 0 1 0 C1.01458252 1.13727539 1.02916504 2.27455078 1.04418945 3.44628906 C1.10329796 7.7706249 1.18049282 12.09449908 1.26245117 16.41845703 C1.29518277 18.27026739 1.32336494 20.12216518 1.34643555 21.97412109 C1.55891648 38.60188397 2.87316449 55.07456503 7.5 71.125 C7.71358154 71.90141846 7.92716309 72.67783691 8.1472168 73.4777832 C8.75074619 75.65619344 9.37060824 77.82894022 10 80 C10.32613281 81.12535156 10.65226563 82.25070312 10.98828125 83.41015625 C11.64169287 85.61193665 12.31700201 87.80721697 13 90 C11.515 90.495 11.515 90.495 10 91 C4.27597739 77.34548797 1.38078793 62.51490883 -0.875 47.9375 C-1.00720947 47.09904541 -1.13941895 46.26059082 -1.27563477 45.39672852 C-1.38834717 44.61483154 -1.50105957 43.83293457 -1.6171875 43.02734375 C-1.76583252 42.00241821 -1.76583252 42.00241821 -1.91748047 40.95678711 C-2 39 -2 39 -1.54370117 37.2512207 C-0.72327993 33.85422732 -0.76161034 30.43061068 -0.68359375 26.953125 C-0.66281265 26.18192322 -0.64203156 25.41072144 -0.62062073 24.6161499 C-0.55541428 22.16085428 -0.49637516 19.70545479 -0.4375 17.25 C-0.39428726 15.58202065 -0.3506721 13.91405168 -0.30664062 12.24609375 C-0.19976264 8.16416804 -0.09841434 4.08213818 0 0 Z " fill="#EAE9E5" transform="translate(706,236)"/>
<path d="M0 0 C9.4613018 0.54946577 18.90145819 0.65215369 28.375 0.625 C29.05577606 0.6231369 29.73655212 0.6212738 30.43795776 0.61935425 C34.31285401 0.60724099 38.18766948 0.58790232 42.0625 0.5625 C42.0625 0.8925 42.0625 1.2225 42.0625 1.5625 C44.0425 1.8925 46.0225 2.2225 48.0625 2.5625 C48.0625 2.8925 48.0625 3.2225 48.0625 3.5625 C27.11518541 5.54890319 6.86498098 4.58053197 -13.9375 1.5625 C-13.9375 1.2325 -13.9375 0.9025 -13.9375 0.5625 C-9.20590779 -0.72274134 -4.82776005 -0.32104997 0 0 Z " fill="#E7E6E3" transform="translate(900.9375,469.4375)"/>
<path d="M0 0 C0.96843913 3.11391793 0.9779865 5.38411748 0.4765625 8.59375 C0.34290283 9.52517822 0.20924316 10.45660645 0.0715332 11.41625977 C-0.07582275 12.43389404 -0.22317871 13.45152832 -0.375 14.5 C-2.62665411 31.26231394 -2.74337802 48.1125725 -3 65 C-3.66 64.67 -4.32 64.34 -5 64 C-5.07538559 58.08165119 -5.12917144 52.163595 -5.16479492 46.24487305 C-5.17967939 44.24059163 -5.19999353 42.23634154 -5.22631836 40.23217773 C-5.36038266 29.74624681 -5.2293715 19.49465721 -3.61328125 9.11328125 C-3.42526192 7.90081978 -3.42526192 7.90081978 -3.23344421 6.66386414 C-2.90113919 4.76044902 -2.46107042 2.87638743 -2 1 C-1.34 0.67 -0.68 0.34 0 0 Z " fill="#F4F3EF" transform="translate(709,207)"/>
<path d="M0 0 C0.33 0.66 0.66 1.32 1 2 C1.66 2 2.32 2 3 2 C4.0161056 5.36515607 4.12903313 8.43859269 4.1328125 11.9453125 C4.13410156 13.10546875 4.13539062 14.265625 4.13671875 15.4609375 C4.13285156 16.67007813 4.12898438 17.87921875 4.125 19.125 C4.12886719 20.3109375 4.13273437 21.496875 4.13671875 22.71875 C4.12918756 29.54200431 3.8539835 36.22843605 3 43 C2.67 43 2.34 43 2 43 C1.67 41.35 1.34 39.7 1 38 C0.67 38 0.34 38 0 38 C0 25.46 0 12.92 0 0 Z " fill="#D7D7D3" transform="translate(1143,233)"/>
<path d="M0 0 C0.99 0.33 1.98 0.66 3 1 C2.16668392 5.38994347 1.13189057 9.72530627 0.0625 14.0625 C-0.10701172 14.76955078 -0.27652344 15.47660156 -0.45117188 16.20507812 C-1.3109552 19.68671024 -2.19559916 22.88477881 -4 26 C-4.66 26 -5.32 26 -6 26 C-5.50596529 16.94269693 -2.67773223 8.60629066 0 0 Z " fill="#EEEEEA" transform="translate(714,182)"/>
<path d="M0 0 C1.99788438 0.34578768 3.99759451 0.68143549 6 1 C6 1.33 6 1.66 6 2 C-2.43989758 2.84647096 -10.77098793 3.12756916 -19.25 3.0625 C-20.38824219 3.05798828 -21.52648437 3.05347656 -22.69921875 3.04882812 C-25.46620409 3.03720214 -28.23307158 3.02086431 -31 3 C-27.88439945 0.26519507 -25.83761316 -0.40070312 -21.71875 -0.546875 C-20.71199219 -0.58683594 -19.70523438 -0.62679688 -18.66796875 -0.66796875 C-17.62253906 -0.69503906 -16.57710937 -0.72210938 -15.5 -0.75 C-13.93185547 -0.81380859 -13.93185547 -0.81380859 -12.33203125 -0.87890625 C-4.06861071 -1.16458148 -4.06861071 -1.16458148 0 0 Z " fill="#BAB9B7" transform="translate(943,471)"/>
<path d="M0 0 C0.33 0 0.66 0 1 0 C1.33 14.85 1.66 29.7 2 45 C1.01 45 0.02 45 -1 45 C-1.33 41.7 -1.66 38.4 -2 35 C-1.67 35 -1.34 35 -1 35 C-0.67 23.45 -0.34 11.9 0 0 Z " fill="#D2D1CE" transform="translate(706,236)"/>
<path d="M0 0 C2.07702359 3.11553539 2.74906855 5.39010071 3.625 9 C3.88539062 10.051875 4.14578125 11.10375 4.4140625 12.1875 C5 15 5 15 5 18 C4.01 18 3.02 18 2 18 C1.46419503 16.12922332 0.94701113 14.2531083 0.4375 12.375 C0.14746094 11.33085937 -0.14257812 10.28671875 -0.44140625 9.2109375 C-1.03309337 5.80977098 -0.75851802 3.34551658 0 0 Z " fill="#EBEAE7" transform="translate(1137,189)"/>
<path d="M0 0 C0.33 0 0.66 0 1 0 C1.20666946 6.34934512 1.33689212 12.02794237 -1 18 C-1.66 18.33 -2.32 18.66 -3 19 C-1.51383399 1.51383399 -1.51383399 1.51383399 0 0 Z " fill="#F4F3EF" transform="translate(1144,270)"/>
<path d="M0 0 C1.79323253 0.28187936 3.58457126 0.5758281 5.375 0.875 C6.37273438 1.03742187 7.37046875 1.19984375 8.3984375 1.3671875 C11 2 11 2 13 4 C12.67 4.66 12.34 5.32 12 6 C7.71 5.01 3.42 4.02 -1 3 C-0.67 2.01 -0.34 1.02 0 0 Z " fill="#E5E5E4" transform="translate(971,34)"/>
<path d="M0 0 C0.33 0.66 0.66 1.32 1 2 C0.109375 4.12890625 0.109375 4.12890625 -1.25 6.5625 C-1.68828125 7.36816406 -2.1265625 8.17382812 -2.578125 9.00390625 C-4 11 -4 11 -7 12 C-6.4685789 7.48292068 -4.70984317 4.61312423 -2 1 C-1.34 0.67 -0.68 0.34 0 0 Z " fill="#F1F0EC" transform="translate(738,134)"/>
<path d="M0 0 C0.33 0.66 0.66 1.32 1 2 C-2.3 2.66 -5.6 3.32 -9 4 C-9 3.34 -9 2.68 -9 2 C-9.66 1.67 -10.32 1.34 -11 1 C-3.29268293 -1.51969981 -3.29268293 -1.51969981 0 0 Z " fill="#E0E0DF" transform="translate(876,36)"/>
<path d="M0 0 C0.66 0 1.32 0 2 0 C3.59138085 4.17737474 4.21278058 7.53160785 4 12 C3.34 12 2.68 12 2 12 C0.70756464 7.8803623 -0.26252625 4.33168317 0 0 Z " fill="#F2F1EE" transform="translate(710,302)"/>
<path d="M0 0 C1.40742022 2.81484045 0.66652164 4.56936113 0.0625 7.625 C-0.13214844 8.62789063 -0.32679687 9.63078125 -0.52734375 10.6640625 C-0.68332031 11.43492187 -0.83929687 12.20578125 -1 13 C-1.99 12.34 -2.98 11.68 -4 11 C-3.71758359 9.53984709 -3.42373386 8.08190207 -3.125 6.625 C-2.96257812 5.81289063 -2.80015625 5.00078125 -2.6328125 4.1640625 C-2 2 -2 2 0 0 Z " fill="#E3E2DF" transform="translate(1143,287)"/>
<path d="M0 0 C-2 3 -2 3 -4.1640625 3.51171875 C-5.38222656 3.59873047 -5.38222656 3.59873047 -6.625 3.6875 C-7.44226563 3.75324219 -8.25953125 3.81898437 -9.1015625 3.88671875 C-9.72804688 3.92410156 -10.35453125 3.96148437 -11 4 C-10.67 3.01 -10.34 2.02 -10 1 C-6.59437148 0.22157062 -3.49234244 -0.09978121 0 0 Z " fill="#EEEEEC" transform="translate(886,33)"/>
<path d="M0 0 C1.62580966 0.11398665 3.25067157 0.24155659 4.875 0.375 C5.77992188 0.44460938 6.68484375 0.51421875 7.6171875 0.5859375 C10 1 10 1 12 3 C10.37509046 3.02698189 8.75005367 3.04638757 7.125 3.0625 C5.76761719 3.07990234 5.76761719 3.07990234 4.3828125 3.09765625 C2 3 2 3 0 2 C0 1.34 0 0.68 0 0 Z " fill="#F3F2EF" transform="translate(880,467)"/>
<path d="M0 0 C1.258125 -0.020625 2.51625 -0.04125 3.8125 -0.0625 C4.52019531 -0.07410156 5.22789062 -0.08570313 5.95703125 -0.09765625 C8 0 8 0 11 1 C11 1.66 11 2.32 11 3 C9.54077307 2.88590407 8.08259402 2.75834456 6.625 2.625 C5.40683594 2.52058594 5.40683594 2.52058594 4.1640625 2.4140625 C2 2 2 2 0 0 Z " fill="#F6F5F5" transform="translate(960,33)"/>
<path d="M0 0 C2.64 0.33 5.28 0.66 8 1 C8 1.99 8 2.98 8 4 C4.7 3.67 1.4 3.34 -2 3 C-1.34 2.01 -0.68 1.02 0 0 Z " fill="#DFDEDD" transform="translate(954,31)"/>
<path d="M0 0 C0.33 0.66 0.66 1.32 1 2 C1.66 2 2.32 2 3 2 C2.67 4.31 2.34 6.62 2 9 C1.01 9 0.02 9 -1 9 C-0.67 6.03 -0.34 3.06 0 0 Z " fill="#DDDCD9" transform="translate(709,199)"/>
<path d="M0 0 C0.33 0 0.66 0 1 0 C1.125 6.75 1.125 6.75 0 9 C-0.66 9 -1.32 9 -2 9 C-1.125 1.125 -1.125 1.125 0 0 Z " fill="#F1F0ED" transform="translate(1140,297)"/>
<path d="M0 0 C2.15377564 2.62198774 3.40072174 4.64404172 4 8 C3.01 8 2.02 8 1 8 C0.26919734 6.02253397 -0.39421747 4.01927511 -1 2 C-0.67 1.34 -0.34 0.68 0 0 Z " fill="#E8E7E3" transform="translate(1121,149)"/>
<path d="M0 0 C2.64 0.33 5.28 0.66 8 1 C7.67 1.99 7.34 2.98 7 4 C4.69 3.34 2.38 2.68 0 2 C0 1.34 0 0.68 0 0 Z " fill="#EDEDEC" transform="translate(983,38)"/>
<path d="M0 0 C0 0.33 0 0.66 0 1 C-2.64 1.33 -5.28 1.66 -8 2 C-8.33 1.01 -8.66 0.02 -9 -1 C-5.22102349 -2.0497157 -3.35080929 -2.10976881 0 0 Z " fill="#E2E1DE" transform="translate(973,468)"/>
<path d="M0 0 C0 0.66 0 1.32 0 2 C-4.455 2.495 -4.455 2.495 -9 3 C-7.14340032 -0.71319936 -3.69365381 -0.09982848 0 0 Z " fill="#F7F6F2" transform="translate(979,465)"/>
<path d="M0 0 C0.99 0.33 1.98 0.66 3 1 C2.67 2.65 2.34 4.3 2 6 C1.01 6.33 0.02 6.66 -1 7 C-0.67 4.69 -0.34 2.38 0 0 Z " fill="#E0E0DD" transform="translate(714,182)"/>
<path d="M0 0 C1.65 0.33 3.3 0.66 5 1 C5 1.99 5 2.98 5 4 C2.69 3.67 0.38 3.34 -2 3 C-1.34 2.67 -0.68 2.34 0 2 C0 1.34 0 0.68 0 0 Z " fill="#DFDEDB" transform="translate(875,465)"/>
<path d="M0 0 C1.4606285 2.64738916 2 3.89448334 2 7 C1.01 7 0.02 7 -1 7 C-1.33 5.35 -1.66 3.7 -2 2 C-1.34 2 -0.68 2 0 2 C0 1.34 0 0.68 0 0 Z " fill="#DFDEDB" transform="translate(1140,200)"/>
</svg>
