<?xml version="1.0" standalone="no"?>
<!DOCTYPE svg PUBLIC "-//W3C//DTD SVG 20010904//EN"
 "http://www.w3.org/TR/2001/REC-SVG-20010904/DTD/svg10.dtd">
<svg version="1.0" xmlns="http://www.w3.org/2000/svg"
 width="736.000000pt" height="160.000000pt" viewBox="0 0 736.000000 160.000000"
 preserveAspectRatio="xMidYMid meet">

<g transform="translate(0.000000,160.000000) scale(0.100000,-0.100000)"
fill="#000000" stroke="none">
<path d="M4595 1539 c-282 -41 -519 -241 -605 -510 -101 -314 18 -660 290
-846 253 -172 587 -172 840 0 228 156 356 436 321 702 -47 351 -298 606 -646
654 -86 12 -114 12 -200 0z m237 -80 c210 -42 381 -178 476 -377 43 -91 61
-173 61 -282 0 -155 -46 -288 -143 -417 -82 -109 -242 -210 -379 -239 -79 -17
-215 -17 -294 0 -131 28 -294 129 -371 228 -109 143 -152 264 -152 428 0 133
26 227 94 344 70 119 212 240 336 285 104 39 266 52 372 30z"/>
<path d="M4565 1445 c-130 -30 -233 -85 -325 -177 -267 -264 -266 -673 2 -938
116 -116 296 -190 458 -190 241 0 475 145 584 362 101 203 101 393 0 596 -88
176 -261 308 -452 347 -110 22 -122 21 -122 -15 0 -16 -4 -30 -10 -30 -5 0
-10 14 -10 30 0 27 -3 30 -32 29 -18 -1 -60 -7 -93 -14z m96 -92 l2 -28 4 28
c4 22 9 27 34 27 25 0 29 -4 30 -27 l2 -28 4 28 c4 25 8 28 31 23 15 -3 44 -8
65 -12 25 -4 37 -12 37 -23 0 -12 2 -13 9 -3 11 19 64 -6 56 -26 -4 -12 -3
-13 9 -3 22 18 41 4 24 -17 -12 -16 -11 -16 6 -2 15 12 20 12 23 2 3 -6 8 -10
12 -8 19 12 187 -156 175 -175 -2 -4 2 -9 8 -12 10 -3 10 -8 -2 -23 -14 -17
-14 -18 2 -6 21 17 35 -2 17 -24 -10 -12 -9 -13 3 -9 20 8 45 -45 26 -56 -10
-7 -9 -9 3 -9 11 0 19 -12 23 -37 4 -21 9 -50 12 -65 5 -25 3 -28 -23 -29
l-28 -2 28 -4 c22 -4 27 -9 27 -34 0 -25 -4 -29 -27 -30 l-28 -2 28 -4 c25 -4
28 -8 23 -31 -3 -15 -8 -44 -12 -64 -4 -26 -12 -38 -23 -38 -12 0 -13 -2 -3
-9 19 -11 -6 -64 -26 -56 -12 4 -13 3 -3 -9 18 -22 4 -41 -17 -24 -15 12 -16
11 -3 -5 10 -12 11 -21 4 -25 -6 -4 -13 -17 -17 -28 -8 -28 -122 -142 -150
-150 -11 -4 -24 -11 -28 -17 -4 -7 -13 -6 -25 4 -16 13 -17 12 -5 -3 17 -21
-2 -35 -24 -17 -12 10 -13 9 -9 -3 8 -20 -45 -45 -56 -26 -7 10 -9 9 -9 -3 0
-11 -12 -19 -37 -23 -21 -4 -50 -9 -65 -12 -25 -5 -28 -3 -29 23 l-2 28 -4
-28 c-4 -22 -9 -27 -34 -27 -25 0 -29 4 -30 28 l-2 27 -4 -28 c-4 -25 -8 -28
-31 -23 -15 3 -44 8 -64 12 -26 4 -38 12 -38 23 0 12 -2 13 -9 3 -6 -10 -13
-11 -35 -1 -20 10 -25 17 -20 33 6 20 6 20 -8 2 -9 -11 -20 -16 -27 -12 -9 6
-9 12 1 24 12 16 11 16 -6 2 -15 -11 -20 -12 -23 -2 -3 6 -11 12 -18 12 -30 0
-181 152 -169 171 2 4 -2 9 -8 12 -10 3 -10 8 2 23 14 17 14 18 -2 6 -21 -17
-35 2 -17 24 10 12 9 13 -3 9 -20 -8 -45 45 -26 56 10 7 9 9 -3 9 -11 0 -19
12 -23 38 -4 20 -9 49 -12 65 -5 24 -3 27 23 28 l28 2 -27 4 c-23 4 -28 9 -28
34 0 25 4 29 28 30 l27 2 -28 4 c-25 4 -28 8 -23 31 3 15 8 44 12 65 4 25 12
37 23 37 12 0 13 2 3 9 -19 11 6 64 26 56 12 -4 13 -3 3 9 -18 22 -4 41 17 24
16 -12 16 -11 2 6 -12 15 -12 20 -2 23 6 3 10 8 8 12 -12 19 156 187 175 175
4 -2 9 2 12 8 3 10 8 10 23 -2 17 -14 18 -14 6 2 -10 12 -10 18 -1 24 7 4 18
-1 27 -12 14 -18 14 -18 8 2 -5 16 0 23 20 33 22 10 29 9 35 -1 7 -10 9 -9 9
4 0 12 14 19 53 26 77 14 77 14 78 -15z"/>
<path d="M4610 1196 c-75 -16 -152 -60 -204 -116 -224 -240 -92 -628 232 -680
173 -28 356 68 428 225 113 245 -31 526 -295 575 -66 12 -91 12 -161 -4z m150
-127 c99 -22 189 -115 211 -217 39 -184 -139 -362 -323 -323 -147 32 -249 182
-219 323 26 122 143 222 266 227 11 0 40 -4 65 -10z"/>
<path d="M4589 1030 c-74 -39 -140 -128 -138 -187 0 -22 3 -18 13 18 23 85 90
152 174 175 39 10 42 13 17 13 -16 0 -46 -9 -66 -19z"/>
<path d="M4762 1036 c84 -23 151 -90 174 -175 10 -36 13 -40 13 -18 2 84 -122
208 -206 206 -22 0 -17 -3 19 -13z"/>
<path d="M4626 1023 c-41 -11 -97 -55 -123 -96 -25 -37 -28 -51 -28 -127 0
-76 3 -90 28 -127 15 -24 46 -55 70 -70 37 -25 51 -28 127 -28 76 0 90 3 127
28 24 15 55 46 70 70 25 37 28 51 28 127 0 76 -3 90 -28 127 -42 66 -97 96
-182 99 -38 2 -79 0 -89 -3z"/>
<path d="M4451 757 c-2 -84 122 -208 206 -206 22 0 18 3 -18 13 -85 23 -152
90 -175 174 -10 36 -13 41 -13 19z"/>
<path d="M4938 744 c-14 -79 -91 -157 -177 -180 -36 -10 -40 -13 -18 -13 85
-2 214 129 205 207 -3 22 -5 20 -10 -14z"/>
<path d="M2437 1184 c-4 -4 -7 -148 -7 -320 0 -300 1 -314 19 -324 25 -13 27
-13 45 6 13 12 16 41 16 150 l0 134 135 0 c116 0 135 2 144 17 6 11 6 24 0 35
-9 16 -26 18 -144 18 l-135 0 0 110 0 110 188 2 187 3 0 30 0 30 -221 3 c-121
1 -223 -1 -227 -4z"/>
<path d="M3062 1168 c-7 -7 -12 -24 -12 -38 0 -33 17 -50 50 -50 33 0 50 17
50 50 0 14 -5 31 -12 38 -15 15 -61 15 -76 0z"/>
<path d="M3472 979 c-25 -13 -56 -40 -75 -68 l-32 -46 -3 -153 c-4 -160 1
-182 39 -182 10 0 21 6 26 13 4 6 10 78 13 159 5 146 5 147 35 178 65 68 172
56 218 -25 7 -11 14 -83 17 -164 4 -123 8 -146 23 -155 12 -8 22 -8 35 0 14 9
18 29 20 120 6 194 -9 241 -91 308 -34 27 -48 31 -110 34 -58 2 -80 -1 -115
-19z"/>
<path d="M5749 977 c-24 -13 -57 -43 -74 -66 -30 -42 -30 -44 -33 -197 -3
-156 2 -184 34 -184 7 0 20 7 28 16 13 12 16 41 16 154 0 136 1 139 27 171 51
61 122 72 184 28 48 -34 59 -74 59 -216 0 -133 5 -153 42 -153 29 0 38 34 38
149 0 138 -12 197 -51 245 -65 78 -180 100 -270 53z"/>
<path d="M6410 991 c-109 -34 -164 -109 -164 -226 0 -135 78 -220 213 -232 99
-9 209 54 167 95 -14 14 -21 15 -49 3 -17 -7 -46 -18 -63 -23 -92 -31 -194 51
-194 156 0 134 143 211 240 130 38 -32 74 -29 78 7 2 20 -5 31 -36 53 -62 42
-130 56 -192 37z"/>
<path d="M6955 987 c-60 -16 -139 -99 -154 -164 -47 -197 148 -356 327 -267
53 27 72 55 52 79 -17 20 -33 19 -72 -5 -75 -45 -185 -14 -222 63 -35 76 -11
154 64 205 68 46 177 15 213 -60 l16 -33 -92 -5 -92 -5 0 -30 0 -30 130 0 130
0 3 39 c4 51 -37 135 -84 171 -39 30 -112 56 -153 54 -14 -1 -44 -6 -66 -12z"/>
<path d="M3067 984 c-4 -4 -7 -103 -7 -221 l0 -213 25 -12 c19 -8 28 -8 40 2
13 11 15 44 13 229 l-3 216 -30 3 c-17 2 -34 0 -38 -4z"/>
</g>
</svg>
