<?xml version="1.0" encoding="UTF-8"?>
<svg version="1.1" xmlns="http://www.w3.org/2000/svg" width="736" height="160">
<path d="M0 0 C242.88 0 485.76 0 736 0 C736 52.8 736 105.6 736 160 C493.12 160 250.24 160 0 160 C0 107.2 0 54.4 0 0 Z " fill="#FEFEFE" transform="translate(0,0)"/>
<path d="M0 0 C1.36089276 1.13783667 2.71565895 2.28306482 4.0625 3.4375 C4.65160156 3.88351563 5.24070312 4.32953125 5.84765625 4.7890625 C18.59199931 14.71745732 27.20010736 31.42445076 29.65234375 47.2421875 C31.98200329 68.39950415 28.62145257 88.23229828 15.4375 105.4375 C14.31825811 106.77567053 13.19395062 108.1096362 12.0625 109.4375 C11.340625 110.4275 10.61875 111.4175 9.875 112.4375 C-1.37511388 125.6235101 -20.16271632 134.2541857 -37.32128906 135.62841797 C-59.96812285 136.70833228 -78.88591624 130.56633934 -96.33203125 115.8515625 C-109.32350253 103.81448716 -119.10248365 84.77729998 -120.140625 66.94921875 C-120.42218532 43.97858964 -114.59336028 24.10344503 -98.59375 6.92578125 C-71.52080936 -18.43519403 -30.11767481 -22.99525171 0 0 Z " fill="#6D6D6C" transform="translate(514.9375,19.5625)"/>
<path d="M0 0 C0.81082031 0.45761719 1.62164062 0.91523437 2.45703125 1.38671875 C12.00817868 7.16809323 17.51503061 16.54509183 21 27 C21.76495166 37.75303473 21.74785831 46.54230516 16 56 C15.62746094 56.72445312 15.25492187 57.44890625 14.87109375 58.1953125 C10.37325187 66.43874396 2.44902603 71.37653558 -6 75 C-6.72316406 75.35707031 -7.44632812 75.71414062 -8.19140625 76.08203125 C-16.74316902 78.87711366 -28.7264048 78.27452523 -36.765625 74.32421875 C-37.50296875 73.88722656 -38.2403125 73.45023437 -39 73 C-39.86109375 72.49082031 -40.7221875 71.98164062 -41.609375 71.45703125 C-50.07744957 65.98284695 -54.98834431 59.1356341 -59 50 C-59.35707031 49.26136719 -59.71414063 48.52273437 -60.08203125 47.76171875 C-63.2501107 38.23051803 -61.53559449 26.82031224 -57.5390625 17.8671875 C-51.73589193 7.05620476 -42.93524932 -0.50206405 -31.18359375 -4.3359375 C-20.06912925 -6.65429206 -9.8134381 -5.98919975 0 0 Z " fill="#5E5E5E" transform="translate(490,44)"/>
<path d="M0 0 C0 2.64 0 5.28 0 8 C0.66 8 1.32 8 2 8 C2 5.36 2 2.72 2 0 C4.475 0.495 4.475 0.495 7 1 C7 2.32 7 3.64 7 5 C7.66 5 8.32 5 9 5 C9 3.68 9 2.36 9 1 C11.4375 1.375 11.4375 1.375 14 2 C14.495 2.99 14.495 2.99 15 4 C15.99 4 16.98 4 18 4 C17.34 5.98 16.68 7.96 16 10 C16.66 10 17.32 10 18 10 C18.33 8.02 18.66 6.04 19 4 C19.66 4 20.32 4 21 4 C21 5.32 21 6.64 21 8 C21.66 7.01 22.32 6.02 23 5 C23.763125 5.309375 24.52625 5.61875 25.3125 5.9375 C27.18789677 6.67893593 29.08684652 7.36228217 31 8 C30.67 9.32 30.34 10.64 30 12 C30.33 11.67 30.66 11.34 31 11 C31.99 10.67 32.98 10.34 34 10 C34 10.99 34 11.98 34 13 C34.99 12.67 35.98 12.34 37 12 C37 12.99 37 13.98 37 15 C37.99 15 38.98 15 40 15 C39.67 15.99 39.34 16.98 39 18 C39.99 17.67 40.98 17.34 42 17 C41.67 18.32 41.34 19.64 41 21 C41.99 20.34 42.98 19.68 44 19 C44 19.99 44 20.98 44 22 C44.99 22 45.98 22 47 22 C45.125 25.875 45.125 25.875 44 27 C45.65 26.34 47.3 25.68 49 25 C48.505 26.485 48.505 26.485 48 28 C48.99 28 49.98 28 51 28 C50.505 29.485 50.505 29.485 50 31 C50.66 31 51.32 31 52 31 C54 34 54 34 54 37 C53.67 37.33 53.34 37.66 53 38 C53.66 38 54.32 38 55 38 C55 38.66 55 39.32 55 40 C53.02 40.33 51.04 40.66 49 41 C49 41.66 49 42.32 49 43 C51.31 42.34 53.62 41.68 56 41 C55.67 41.99 55.34 42.98 55 44 C55.66 44.33 56.32 44.66 57 45 C57.625 47.5625 57.625 47.5625 58 50 C56.68 50 55.36 50 54 50 C54 50.66 54 51.32 54 52 C55.32 52 56.64 52 58 52 C58.495 54.475 58.495 54.475 59 57 C56.36 57 53.72 57 51 57 C51 57.66 51 58.32 51 59 C53.64 59 56.28 59 59 59 C58.85831863 60.43791516 58.71148957 61.8753237 58.5625 63.3125 C58.44068359 64.51326172 58.44068359 64.51326172 58.31640625 65.73828125 C58 68 58 68 57 71 C56.01 71.495 56.01 71.495 55 72 C55.33 72.99 55.66 73.98 56 75 C53.69 74.34 51.38 73.68 49 73 C49 73.66 49 74.32 49 75 C50.98 75.33 52.96 75.66 55 76 C55 76.66 55 77.32 55 78 C53.68 78 52.36 78 51 78 C52.485 78.99 52.485 78.99 54 80 C53.34 81.65 52.68 83.3 52 85 C51.34 85 50.68 85 50 85 C50.33 85.99 50.66 86.98 51 88 C49.02 87.505 49.02 87.505 47 87 C47.33 87.33 47.66 87.66 48 88 C48.33 88.99 48.66 89.98 49 91 C47.02 90.505 47.02 90.505 45 90 C45.66 91.32 46.32 92.64 47 94 C46.01 94 45.02 94 44 94 C44 94.99 44 95.98 44 97 C42.515 96.505 42.515 96.505 41 96 C41.33 96.99 41.66 97.98 42 99 C41.01 99 40.02 99 39 99 C39 99.99 39 100.98 39 102 C37.515 101.505 37.515 101.505 36 101 C36.33 101.99 36.66 102.98 37 104 C35.02 103.01 35.02 103.01 33 102 C33.33 103.32 33.66 104.64 34 106 C32.515 105.505 32.515 105.505 31 105 C31 105.99 31 106.98 31 108 C29.515 107.505 29.515 107.505 28 107 C28 107.66 28 108.32 28 109 C24.63316085 111.43160605 23.26649636 112 19 112 C18.67 110.02 18.34 108.04 18 106 C17.34 106 16.68 106 16 106 C16.99 109.465 16.99 109.465 18 113 C16.515 112.505 16.515 112.505 15 112 C14.67 112.66 14.34 113.32 14 114 C12.0390625 114.6328125 12.0390625 114.6328125 9.625 115.125 C8.83351563 115.29257813 8.04203125 115.46015625 7.2265625 115.6328125 C5 116 5 116 2 116 C2 113.36 2 110.72 2 108 C1.34 108 0.68 108 0 108 C0 110.64 0 113.28 0 116 C-1.65 115.67 -3.3 115.34 -5 115 C-5 113.68 -5 112.36 -5 111 C-5.66 111 -6.32 111 -7 111 C-7 112.32 -7 113.64 -7 115 C-9.4375 114.625 -9.4375 114.625 -12 114 C-12.33 113.34 -12.66 112.68 -13 112 C-13.99 112.33 -14.98 112.66 -16 113 C-15.34 110.69 -14.68 108.38 -14 106 C-14.66 106 -15.32 106 -16 106 C-16.33 107.98 -16.66 109.96 -17 112 C-17.66 112 -18.32 112 -19 112 C-19 110.68 -19 109.36 -19 108 C-19.66 108.99 -20.32 109.98 -21 111 C-25.875 109.125 -25.875 109.125 -27 108 C-27.66 108 -28.32 108 -29 108 C-28.67 106.68 -28.34 105.36 -28 104 C-28.33 104.33 -28.66 104.66 -29 105 C-30.485 105.495 -30.485 105.495 -32 106 C-31.67 104.68 -31.34 103.36 -31 102 C-32.98 102.99 -32.98 102.99 -35 104 C-35 103.01 -35 102.02 -35 101 C-35.99 101 -36.98 101 -38 101 C-37.505 99.515 -37.505 99.515 -37 98 C-38.485 98.495 -38.485 98.495 -40 99 C-40 98.01 -40 97.02 -40 96 C-40.99 96 -41.98 96 -43 96 C-42.67 95.01 -42.34 94.02 -42 93 C-43.485 93.495 -43.485 93.495 -45 94 C-45 93.01 -45 92.02 -45 91 C-45.66 91 -46.32 91 -47 91 C-46.67 90.01 -46.34 89.02 -46 88 C-46.99 88 -47.98 88 -49 88 C-50.61026638 84.37690064 -51 82.02638912 -51 78 C-51.66 78 -52.32 78 -53 78 C-53 77.34 -53 76.68 -53 76 C-50.03 75.505 -50.03 75.505 -47 75 C-47 74.34 -47 73.68 -47 73 C-50.465 73.99 -50.465 73.99 -54 75 C-53.67 74.01 -53.34 73.02 -53 72 C-53.66 71.67 -54.32 71.34 -55 71 C-57.11007259 64.93028502 -58.05088072 58.15264217 -56 52 C-54.68 52 -53.36 52 -52 52 C-52 51.34 -52 50.68 -52 50 C-53.32 50 -54.64 50 -56 50 C-55.625 47.5625 -55.625 47.5625 -55 45 C-54.01 44.505 -54.01 44.505 -53 44 C-53.495 42.515 -53.495 42.515 -54 41 C-51.69 41.66 -49.38 42.32 -47 43 C-47 42.34 -47 41.68 -47 41 C-48.98 40.67 -50.96 40.34 -53 40 C-53.25 37.75 -53.25 37.75 -53 35 C-51.0625 32.6875 -51.0625 32.6875 -49 31 C-48.67 31 -48.34 31 -48 31 C-48.33 30.01 -48.66 29.02 -49 28 C-47.68 28.33 -46.36 28.66 -45 29 C-45.33 28.67 -45.66 28.34 -46 28 C-46.33 27.01 -46.66 26.02 -47 25 C-44.525 25.99 -44.525 25.99 -42 27 C-42.7425 26.319375 -42.7425 26.319375 -43.5 25.625 C-45 24 -45 24 -45 22 C-44.01 22 -43.02 22 -42 22 C-42 21.01 -42 20.02 -42 19 C-41.01 19.33 -40.02 19.66 -39 20 C-39.33 19.01 -39.66 18.02 -40 17 C-38.68 17.33 -37.36 17.66 -36 18 C-36.66 17.01 -37.32 16.02 -38 15 C-37.01 15 -36.02 15 -35 15 C-35 14.01 -35 13.02 -35 12 C-33.68 12.66 -32.36 13.32 -31 14 C-31.33 12.68 -31.66 11.36 -32 10 C-31.01 10.33 -30.02 10.66 -29 11 C-29 10.01 -29 9.02 -29 8 C-25.62902617 6.50178941 -23.79557881 6 -20 6 C-19.505 6.495 -19.505 6.495 -19 7 C-19 6.01 -19 5.02 -19 4 C-18.34 4 -17.68 4 -17 4 C-16.505 6.97 -16.505 6.97 -16 10 C-15.34 10 -14.68 10 -14 10 C-14.66 7.69 -15.32 5.38 -16 3 C-15.01 3.33 -14.02 3.66 -13 4 C-12.67 3.34 -12.34 2.68 -12 2 C-9.4375 1.375 -9.4375 1.375 -7 1 C-7 2.32 -7 3.64 -7 5 C-6.34 5 -5.68 5 -5 5 C-5 3.68 -5 2.36 -5 1 C-2 0 -2 0 0 0 Z M-31.80859375 32.12890625 C-39.37003398 42.66966706 -41.77694877 54.24889339 -40 67 C-38.84423173 71.05256619 -37.18927057 74.41283108 -35 78 C-34.54238281 78.81082031 -34.08476562 79.62164062 -33.61328125 80.45703125 C-27.83190677 90.00817868 -18.45490817 95.51503061 -8 99 C2.75303473 99.76495166 11.54230516 99.74785831 21 94 C21.72445312 93.62746094 22.44890625 93.25492187 23.1953125 92.87109375 C31.43874396 88.37325187 36.37653558 80.44902603 40 72 C40.35707031 71.27683594 40.71414063 70.55367187 41.08203125 69.80859375 C43.87711366 61.25683098 43.27452523 49.2735952 39.32421875 41.234375 C38.88722656 40.49703125 38.45023437 39.7596875 38 39 C37.49082031 38.13890625 36.98164063 37.2778125 36.45703125 36.390625 C30.98284695 27.92255043 24.1356341 23.01165569 15 19 C14.26136719 18.64292969 13.52273438 18.28585938 12.76171875 17.91796875 C-3.29988522 12.57924607 -21.24070381 19.68938137 -31.80859375 32.12890625 Z " fill="#F8F8F7" transform="translate(469,22)"/>
<path d="M0 0 C1.36089276 1.13783667 2.71565895 2.28306482 4.0625 3.4375 C4.65160156 3.88351563 5.24070312 4.32953125 5.84765625 4.7890625 C18.59199931 14.71745732 27.20010736 31.42445076 29.65234375 47.2421875 C31.98200329 68.39950415 28.62145257 88.23229828 15.4375 105.4375 C14.31825811 106.77567053 13.19395062 108.1096362 12.0625 109.4375 C11.340625 110.4275 10.61875 111.4175 9.875 112.4375 C-1.37511388 125.6235101 -20.16271632 134.2541857 -37.32128906 135.62841797 C-59.96812285 136.70833228 -78.88591624 130.56633934 -96.33203125 115.8515625 C-109.32350253 103.81448716 -119.10248365 84.77729998 -120.140625 66.94921875 C-120.42218532 43.97858964 -114.59336028 24.10344503 -98.59375 6.92578125 C-71.52080936 -18.43519403 -30.11767481 -22.99525171 0 0 Z M-66.9375 -3.5625 C-67.65421875 -3.29953125 -68.3709375 -3.0365625 -69.109375 -2.765625 C-72.70616532 -1.47644156 -72.70616532 -1.47644156 -74.9375 1.4375 C-78.07573878 3.36872386 -80.96245115 5.0962329 -84.4375 6.3125 C-92.90467501 10.12272875 -98.67036692 18.03630065 -101.9375 26.4375 C-102.92073574 28.64978042 -103.59006024 30.1202724 -105.375 31.75 C-112.0180445 38.92448806 -112.26763845 50.76164758 -112.1875 59.9375 C-112.19523437 60.82308594 -112.20296875 61.70867187 -112.2109375 62.62109375 C-112.19363854 68.51138814 -111.39897564 73.7307856 -109.9375 79.4375 C-109.2775 79.4375 -108.6175 79.4375 -107.9375 79.4375 C-107.80214844 80.03175781 -107.66679687 80.62601562 -107.52734375 81.23828125 C-105.61129307 88.61565004 -102.16935395 94.16495203 -97.9375 100.4375 C-97.09981535 101.87246868 -96.26600774 103.30971336 -95.4375 104.75 C-91.34906204 111.27012328 -86.01769984 114.76572648 -78.9375 117.4375 C-76.72521958 118.42073574 -75.2547276 119.09006024 -73.625 120.875 C-66.53256535 127.44206912 -54.71950135 127.80422829 -45.625 127.75 C-44.70871826 127.74798584 -43.79243652 127.74597168 -42.84838867 127.74389648 C-35.24169453 127.631628 -27.84852493 126.89301247 -20.9375 123.4375 C-20.9375 122.7775 -20.9375 122.1175 -20.9375 121.4375 C-20.22464844 121.34210938 -19.51179688 121.24671875 -18.77734375 121.1484375 C-15.47493255 120.32169907 -13.31975272 118.95833374 -10.5 117.0625 C-7.53985657 115.10761333 -4.76329314 113.35362262 -1.5625 111.8125 C2.30145594 109.78852308 5.32522234 107.31657934 6.9453125 103.1875 C8.57217466 99.18291623 10.96755716 95.68673744 13.31640625 92.078125 C15.57382096 88.54962497 15.57382096 88.54962497 16.0625 84.4375 C16.7225 84.4375 17.3825 84.4375 18.0625 84.4375 C18.545559 83.04300891 19.02375517 81.64683293 19.5 80.25 C19.76683594 79.47269531 20.03367187 78.69539063 20.30859375 77.89453125 C24.00204765 65.8573162 23.6876376 50.12648412 19.0625 38.4375 C18.79953125 37.72078125 18.5365625 37.0040625 18.265625 36.265625 C16.97644156 32.66883468 16.97644156 32.66883468 14.0625 30.4375 C12.14343057 27.31901217 10.40719784 24.47159353 9.25 21 C6.19357228 14.40455071 1.49843833 10.51244832 -4.9375 7.4375 C-7.07279651 6.09962812 -9.19756953 4.74483995 -11.3125 3.375 C-16.10101679 0.33754381 -20.30962555 -1.67969616 -25.9375 -2.5625 C-25.9375 -3.2225 -25.9375 -3.8825 -25.9375 -4.5625 C-32.51132211 -6.23595776 -38.53783433 -6.91643716 -45.3125 -6.875 C-46.69622803 -6.86980347 -46.69622803 -6.86980347 -48.10791016 -6.86450195 C-54.76209984 -6.75823688 -60.70767707 -6.02753785 -66.9375 -3.5625 Z " fill="#636362" transform="translate(514.9375,19.5625)"/>
<path d="M0 0 C6.63798314 2.77869062 9.79713281 13.14696286 12.76953125 19.3125 C13.22857346 20.25561035 13.68761566 21.1987207 14.16056824 22.17041016 C15.61123903 25.15325792 17.0557103 28.13905817 18.5 31.125 C19.48852249 33.16035533 20.47745082 35.19551361 21.46679688 37.23046875 C23.87839443 42.19304407 26.28492311 47.15805169 28.6875 52.125 C34.37110809 41.44568485 39.95928059 30.75373202 45.125 19.8125 C53.39055233 2.42194767 53.39055233 2.42194767 55.6875 0.125 C58.98464793 0.45471479 60.3101839 0.7476839 62.6875 3.125 C62.94819641 5.66111755 62.94819641 5.66111755 62.9621582 8.90405273 C62.97169022 10.11548447 62.98122223 11.3269162 62.99104309 12.57505798 C62.99013168 13.88962479 62.98922028 15.20419159 62.98828125 16.55859375 C62.99216705 17.91618481 62.99650148 19.27377466 63.00126648 20.63136292 C63.00873395 23.47864724 63.0084338 26.32580759 63.00317383 29.1730957 C62.99738013 32.82292535 63.01430455 36.47224737 63.0375185 40.12199306 C63.05224725 42.92640656 63.05312873 45.73069758 63.05000877 48.5351429 C63.05077241 50.53544979 63.06465432 52.53573768 63.07868958 54.53599548 C63.07246078 55.75057938 63.06623199 56.96516327 63.05981445 58.21655273 C63.06044388 59.28751694 63.0610733 60.35848114 63.0617218 61.4618988 C62.6875 64.125 62.6875 64.125 61.3243866 66.0059967 C59.6875 67.125 59.6875 67.125 57.125 66.9375 C54.6875 66.125 54.6875 66.125 52.6875 64.125 C52.44143985 61.11613276 52.31369218 58.19282248 52.2734375 55.1796875 C52.25407135 54.2946756 52.2347052 53.4096637 52.2147522 52.49783325 C52.15487277 49.66532084 52.10853787 46.83276797 52.0625 44 C52.02432789 42.08201332 51.98527662 40.16404393 51.9453125 38.24609375 C51.84916445 33.53920252 51.76516458 28.83223104 51.6875 24.125 C50.83200562 25.88928345 50.83200562 25.88928345 49.95922852 27.68920898 C47.84982334 32.03804248 45.73770796 36.3855549 43.62475586 40.73266602 C42.70929744 42.61706995 41.79458205 44.50183505 40.88061523 46.38696289 C39.56948244 49.09095221 38.25571409 51.79364657 36.94140625 54.49609375 C36.32574547 55.76796791 36.32574547 55.76796791 35.69764709 57.0655365 C35.31732834 57.84627029 34.93700958 58.62700409 34.54516602 59.43139648 C34.20985367 60.12200668 33.87454132 60.81261688 33.52906799 61.52415466 C32.6875 63.125 32.6875 63.125 31.6875 64.125 C29.68791636 64.16580783 27.68704746 64.16754356 25.6875 64.125 C18.82582922 51.21921921 12.17297271 38.22379818 5.6875 25.125 C5.67291748 26.29071533 5.65833496 27.45643066 5.64331055 28.6574707 C5.58536883 32.97956122 5.50813606 37.30112847 5.42504883 41.62280273 C5.39177998 43.49381014 5.36375415 45.36491838 5.34106445 47.23608398 C5.30755412 49.92475383 5.25524135 52.61249798 5.19921875 55.30078125 C5.18963387 56.55717155 5.18963387 56.55717155 5.17985535 57.83894348 C5.03172847 63.6803274 5.03172847 63.6803274 3.32453918 65.88566589 C1.6875 67.125 1.6875 67.125 -0.9375 66.875 C-3.3125 66.125 -3.3125 66.125 -4.3125 65.125 C-4.41700769 63.17219816 -4.45105374 61.21559455 -4.45776367 59.26000977 C-4.46414352 58.00523331 -4.47052338 56.75045685 -4.47709656 55.45765686 C-4.47862512 54.07724038 -4.47973914 52.69682338 -4.48046875 51.31640625 C-4.48367967 49.91015081 -4.48704362 48.50389571 -4.49055481 47.09764099 C-4.49655232 44.14605942 -4.49839408 41.19450716 -4.49780273 38.24291992 C-4.49770109 34.45519954 -4.51135285 30.66766653 -4.52857494 26.87999058 C-4.53967742 23.97441235 -4.54172248 21.06887967 -4.54119301 18.16328239 C-4.5423758 16.76659436 -4.54681421 15.36990524 -4.55452538 13.97323799 C-4.56428925 12.02197799 -4.56019234 10.07066336 -4.55541992 8.11938477 C-4.55684494 7.00765396 -4.55826996 5.89592316 -4.55973816 4.75050354 C-4.23803272 1.3342074 -3.51354855 0.18992154 0 0 Z " fill="#33ADE1" transform="translate(14.3125,39.875)"/>
<path d="M0 0 C0 0.66 0 1.32 0 2 C0.66 2 1.32 2 2 2 C7.27640695 9.03520927 7.90589865 15.34600353 7 24 C4.95418346 31.14538851 1.38325443 35.14797131 -4.9140625 38.94140625 C-10.70859876 41.88207915 -17.98618595 42.07875631 -24.23828125 40.3984375 C-27.03879496 39.21106766 -29.47062868 37.68624755 -32 36 C-32 35.34 -32 34.68 -32 34 C-32.66 34 -33.32 34 -34 34 C-39.33995694 26.88005741 -39.66266402 20.72888472 -39 12 C-37.98386741 8.22579323 -36.1679029 5.25185434 -34 2 C-33.34 2 -32.68 2 -32 2 C-32 1.34 -32 0.68 -32 0 C-21.98929322 -7.50803008 -10.19598734 -6.79732489 0 0 Z " fill="#5A5A5A" transform="translate(486,62)"/>
<path d="M0 0 C1.25128441 -0.00934319 1.25128441 -0.00934319 2.52784729 -0.01887512 C3.87325844 -0.0050605 3.87325844 -0.0050605 5.24584961 0.0090332 C6.63071815 0.00828545 6.63071815 0.00828545 8.04356384 0.00752258 C9.99455926 0.00986266 11.94555771 0.01958728 13.89648438 0.03613281 C16.89016564 0.05975112 19.88295809 0.05669013 22.87670898 0.05004883 C24.77059452 0.05562464 26.6644763 0.06273392 28.55834961 0.0715332 C29.9067971 0.07016609 29.9067971 0.07016609 31.28248596 0.06877136 C32.11352341 0.07830338 32.94456085 0.08783539 33.80078125 0.09765625 C34.5334169 0.10226364 35.26605255 0.10687103 36.02088928 0.11161804 C37.83569336 0.37231445 37.83569336 0.37231445 39.83569336 2.37231445 C40.08569336 4.87231445 40.08569336 4.87231445 39.83569336 7.37231445 C37.83569336 9.37231445 37.83569336 9.37231445 34.30395508 9.59936523 C32.79106005 9.59904808 31.27814248 9.58772078 29.76538086 9.56762695 C28.96915314 9.56479706 28.17292542 9.56196716 27.35256958 9.55905151 C24.80512573 9.54784085 22.25803125 9.52273507 19.71069336 9.49731445 C17.98543801 9.48728578 16.26017717 9.47815973 14.53491211 9.4699707 C10.30159574 9.44959863 6.06903641 9.41045268 1.83569336 9.37231445 C1.83569336 15.97231445 1.83569336 22.57231445 1.83569336 29.37231445 C3.67776367 29.34911133 5.51983398 29.3259082 7.41772461 29.30200195 C9.82787682 29.2832459 12.23803339 29.26504553 14.64819336 29.24731445 C15.86313477 29.23055664 17.07807617 29.21379883 18.32983398 29.1965332 C19.49321289 29.19008789 20.6565918 29.18364258 21.85522461 29.17700195 C23.46554565 29.1612915 23.46554565 29.1612915 25.10839844 29.14526367 C27.83569336 29.37231445 27.83569336 29.37231445 30.83569336 31.37231445 C30.52319336 33.74731445 30.52319336 33.74731445 29.83569336 36.37231445 C26.38935454 38.66987367 25.12500945 38.60875421 21.07397461 38.56762695 C19.95571289 38.56118164 18.83745117 38.55473633 17.68530273 38.5480957 C15.93443359 38.52295898 15.93443359 38.52295898 14.14819336 38.49731445 C12.9693457 38.48829102 11.79049805 38.47926758 10.57592773 38.4699707 C7.6623131 38.44637868 4.74910444 38.41345986 1.83569336 38.37231445 C1.84616699 39.17975098 1.85664063 39.9871875 1.86743164 40.8190918 C1.90889167 44.46180127 1.93498774 48.10446121 1.96069336 51.74731445 C1.97745117 53.01833008 1.99420898 54.2893457 2.01147461 55.59887695 C2.01791992 56.8105957 2.02436523 58.02231445 2.03100586 59.27075195 C2.04147949 60.39143066 2.05195313 61.51210937 2.06274414 62.66674805 C1.83569336 65.37231445 1.83569336 65.37231445 -0.16430664 67.37231445 C-2.66430664 67.68481445 -2.66430664 67.68481445 -5.16430664 67.37231445 C-7.47379581 63.9080807 -7.42133461 62.56625164 -7.43896484 58.47973633 C-7.44849686 57.26838013 -7.45802887 56.05702393 -7.46784973 54.80895996 C-7.46693832 53.49955444 -7.46602692 52.19014893 -7.46508789 50.84106445 C-7.46897494 49.48490263 -7.47330963 48.12874203 -7.47807312 46.77258301 C-7.48553288 43.93127494 -7.48524557 41.09009113 -7.47998047 38.2487793 C-7.47418134 34.60682533 -7.49112802 30.96537919 -7.51432514 27.32350922 C-7.52905177 24.52338688 -7.52993577 21.72338723 -7.52681541 18.92323303 C-7.52757879 16.92735559 -7.54145849 14.93149717 -7.55549622 12.93566895 C-7.54926743 11.72431274 -7.54303864 10.51295654 -7.53662109 9.26489258 C-7.53725052 8.19694458 -7.53787994 7.12899658 -7.53852844 6.02868652 C-7.16430664 3.37231445 -7.16430664 3.37231445 -5.90130615 1.52729797 C-3.76646839 0.10777977 -2.55306865 -0.00219102 0 0 Z " fill="#656262" transform="translate(249.164306640625,39.627685546875)"/>
<path d="M0 0 C5.81622867 2.98213906 9.82447345 7.65542285 12.625 13.5 C13.34292657 17.32894171 13.4473436 20.60234593 13.1875 24.5 C10.61761319 27.06988681 9.59839947 26.75706775 6.03125 26.765625 C4.49791016 26.76949219 4.49791016 26.76949219 2.93359375 26.7734375 C1.86238281 26.76570313 0.79117188 26.75796875 -0.3125 26.75 C-1.38371094 26.75773437 -2.45492187 26.76546875 -3.55859375 26.7734375 C-4.58082031 26.77085938 -5.60304688 26.76828125 -6.65625 26.765625 C-7.59662109 26.76336914 -8.53699219 26.76111328 -9.50585938 26.75878906 C-11.8125 26.5 -11.8125 26.5 -13.8125 24.5 C-14 21.9375 -14 21.9375 -13.8125 19.5 C-12.8125 18.5 -12.8125 18.5 -8.99609375 18.40234375 C-7.41403318 18.40901911 -5.83198841 18.42098125 -4.25 18.4375 C-3.44369141 18.44201172 -2.63738281 18.44652344 -1.80664062 18.45117188 C0.19143756 18.46299482 2.18947783 18.48093086 4.1875 18.5 C1.24501052 12.34436938 1.24501052 12.34436938 -4 8.3125 C-9.31167612 6.77801579 -13.17533012 6.68141506 -18.0625 9.125 C-21.64190839 12.21630724 -24.34837849 14.8620849 -25.1953125 19.67578125 C-25.46785778 25.08126268 -24.48463845 28.34468544 -20.8125 32.5 C-16.92984477 35.85320225 -14.02032966 37.0815609 -8.828125 36.84375 C-6.70919068 36.48238136 -5.06619763 35.84901889 -3.125 34.9375 C0.36159267 33.42445035 1.65917202 33.32389067 5.1875 34.5 C5.6825 36.975 5.6825 36.975 6.1875 39.5 C5.11000558 40.32022749 4.02520492 41.13086169 2.9375 41.9375 C2.33421875 42.38996094 1.7309375 42.84242187 1.109375 43.30859375 C-3.9360696 46.4363592 -10.08305314 45.94009976 -15.8125 45.5 C-22.17882886 43.59010134 -27.40619954 40.06698656 -31.140625 34.53125 C-34.28686246 28.41602789 -34.82350418 22.26109043 -33.8125 15.5 C-31.43045621 8.11337383 -26.25227303 3.55199202 -19.8125 -0.5 C-13.51133477 -2.60038841 -6.19703597 -2.42121715 0 0 Z " fill="#605D5D" transform="translate(712.8125,61.5)"/>
<path d="M0 0 C6.06962165 2.67916893 10.92839694 7.63605914 13.82373047 13.59130859 C14.92351062 16.90572246 15.00892931 19.65392705 15.015625 23.14453125 C15.01949219 25.06942383 15.01949219 25.06942383 15.0234375 27.03320312 C15.01715332 28.02670776 15.01715332 28.02670776 15.01074219 29.0402832 C14.99997688 31.07468098 15.0106905 33.10820658 15.0234375 35.14257812 C15.02085937 36.42197266 15.01828125 37.70136719 15.015625 39.01953125 C15.01336914 40.19217529 15.01111328 41.36481934 15.00878906 42.57299805 C14.75 45.3828125 14.75 45.3828125 12.75 47.3828125 C10.25 47.6328125 10.25 47.6328125 7.75 47.3828125 C5.75 45.3828125 5.75 45.3828125 5.51049805 42.58886719 C5.51090088 41.42258789 5.51130371 40.25630859 5.51171875 39.0546875 C5.49560547 37.77980469 5.47949219 36.50492188 5.46289062 35.19140625 C5.44648916 33.16594815 5.43747041 31.14124118 5.44458008 29.11572266 C5.80918685 20.3000984 5.80918685 20.3000984 2.39453125 12.5234375 C-1.58785782 9.29987885 -5.00541574 8.9911268 -9.95703125 9.0234375 C-13.84755636 9.63319612 -15.57223635 11.57116066 -18.25 14.3828125 C-19.66758392 17.21798035 -19.43251416 19.68499944 -19.49609375 22.8515625 C-19.52896484 24.14449219 -19.56183594 25.43742187 -19.59570312 26.76953125 C-19.64319628 28.83019268 -19.68765219 30.89082273 -19.72680664 32.95166016 C-19.76644579 34.93931425 -19.81858634 36.92670671 -19.87109375 38.9140625 C-19.8961499 40.10580078 -19.92120605 41.29753906 -19.94702148 42.52539062 C-20.25 45.3828125 -20.25 45.3828125 -22.25 47.3828125 C-24.75 47.6953125 -24.75 47.6953125 -27.25 47.3828125 C-30.59094347 42.3713973 -29.61904472 36.5821074 -29.625 30.6953125 C-29.64949219 29.44041016 -29.67398438 28.18550781 -29.69921875 26.89257812 C-29.72606993 18.39417893 -28.97391822 12.55767395 -23.25 6.140625 C-22.59 5.60179688 -21.93 5.06296875 -21.25 4.5078125 C-20.59 3.95351563 -19.93 3.39921875 -19.25 2.828125 C-13.36072208 -1.4277985 -7.01829605 -1.9251576 0 0 Z " fill="#31ACE0" transform="translate(157.25,59.6171875)"/>
<path d="M0 0 C4.83044644 3.30674857 8.81818669 7.61887503 10.74609375 13.1953125 C11.21298292 17.6162499 11.23894395 21.99337257 11.15771484 26.4309082 C11.12087562 28.52018345 11.11669831 30.6076973 11.1171875 32.69726562 C11.02708114 42.91432511 11.02708114 42.91432511 8.74609375 45.1953125 C5.68359375 44.9453125 5.68359375 44.9453125 2.74609375 44.1953125 C1.33557511 41.37427521 1.61846086 38.98370165 1.60546875 35.83203125 C1.58613281 34.55263672 1.56679688 33.27324219 1.546875 31.95507812 C1.51794885 29.92068755 1.49609485 27.88739254 1.49560547 25.8527832 C1.49225845 23.88736502 1.45547372 21.92209441 1.41796875 19.95703125 C1.40862305 18.78100342 1.39927734 17.60497559 1.38964844 16.39331055 C0.56208352 12.28091566 -1.03410586 10.7997376 -4.25390625 8.1953125 C-8.313922 6.84197392 -12.00894606 6.65816464 -16.25390625 7.1953125 C-20.37594296 9.56329104 -21.8135707 11.75651036 -23.25390625 16.1953125 C-23.58469237 19.25434716 -23.58469237 19.25434716 -23.59765625 22.51953125 C-23.62730469 23.71255859 -23.65695312 24.90558594 -23.6875 26.13476562 C-23.7319784 28.64517862 -23.7762473 31.15559534 -23.8203125 33.66601562 C-23.84996094 34.85517578 -23.87960937 36.04433594 -23.91015625 37.26953125 C-23.92884766 38.35838623 -23.94753906 39.44724121 -23.96679688 40.5690918 C-24.25390625 43.1953125 -24.25390625 43.1953125 -26.25390625 45.1953125 C-28.75390625 45.4453125 -28.75390625 45.4453125 -31.25390625 45.1953125 C-34.9795644 41.46965435 -33.62361819 35.22425524 -33.62890625 30.1953125 C-33.65339844 29.00035156 -33.67789063 27.80539063 -33.703125 26.57421875 C-33.73137565 17.97660552 -32.81644893 10.61484855 -27.2890625 3.7578125 C-18.78001945 -2.98202358 -10.05426158 -5.78575213 0 0 Z " fill="#636060" transform="translate(596.25390625,61.8046875)"/>
<path d="M0 0 C4.50334071 3.23992499 7.52260466 7.39203273 9.26953125 12.6328125 C9.47390947 16.94192971 9.45533455 21.25328353 9.45483398 25.56665039 C9.45702692 27.6911198 9.47521466 29.81507511 9.49414062 31.93945312 C9.49707353 33.28645656 9.49905901 34.63346245 9.5 35.98046875 C9.50410889 37.20773682 9.50821777 38.43500488 9.51245117 39.69946289 C9.26953125 42.6328125 9.26953125 42.6328125 7.26953125 44.6328125 C4.76953125 44.4453125 4.76953125 44.4453125 2.26953125 43.6328125 C-0.07865828 40.1105282 -0.00527783 38.53025737 -0.07421875 34.35546875 C-0.10386719 33.11990234 -0.13351562 31.88433594 -0.1640625 30.61132812 C-0.18597656 29.31904297 -0.20789063 28.02675781 -0.23046875 26.6953125 C-0.27385649 24.14436853 -0.32557925 21.593549 -0.38671875 19.04296875 C-0.41475586 17.34346069 -0.41475586 17.34346069 -0.44335938 15.60961914 C-0.72315152 12.70867901 -1.10481923 11.02771769 -2.73046875 8.6328125 C-7.46046729 6.32549614 -12.55531104 5.84985506 -17.73046875 6.6328125 C-21.33058043 8.77755988 -23.20679677 10.77112087 -24.73046875 14.6328125 C-25.06432038 17.69737278 -25.06432038 17.69737278 -25.07421875 21.078125 C-25.10386719 22.31949219 -25.13351562 23.56085938 -25.1640625 24.83984375 C-25.20846571 27.45963318 -25.25273576 30.07942486 -25.296875 32.69921875 C-25.32652344 33.93800781 -25.35617187 35.17679688 -25.38671875 36.453125 C-25.40541016 37.59023926 -25.42410156 38.72735352 -25.44335938 39.89892578 C-25.73046875 42.6328125 -25.73046875 42.6328125 -27.73046875 44.6328125 C-30.23046875 44.9453125 -30.23046875 44.9453125 -32.73046875 44.6328125 C-35.99038992 39.74293075 -35.14057953 34.31900589 -35.16796875 28.5703125 C-35.20083984 27.37986328 -35.23371094 26.18941406 -35.26757812 24.96289062 C-35.3200177 16.29129166 -33.99504247 9.20727473 -27.92626953 2.69750977 C-19.56104336 -5.02099506 -9.85859433 -5.43387089 0 0 Z " fill="#636060" transform="translate(369.73046875,62.3671875)"/>
<path d="M0 0 C2.92204187 1.73248411 5.49537655 3.46095868 7.5 6.25 C7.30984746 8.46844626 7.08477845 9.66522155 5.5 11.25 C3.25 11.5625 3.25 11.5625 0.5 11.25 C-0.5209375 10.26 -0.5209375 10.26 -1.5625 9.25 C-6.22506621 6.07548683 -11.03208911 6.5143726 -16.5 7.25 C-20.31482986 9.19634176 -21.26291493 10.81670659 -23.3125 14.5625 C-25.43196923 21.14400971 -24.79827786 25.43595663 -21.765625 31.453125 C-20.1872428 33.694038 -18.89700684 34.89265878 -16.5 36.25 C-13.32751466 36.68705141 -13.32751466 36.68705141 -9.9375 36.5625 C-8.80183594 36.55863281 -7.66617188 36.55476563 -6.49609375 36.55078125 C-3.31965216 36.46835543 -3.31965216 36.46835543 -0.5 34.25 C2.6875 34.125 2.6875 34.125 5.5 34.25 C5.995 36.725 5.995 36.725 6.5 39.25 C-0.29117052 44.90930876 -4.95438941 45.88347562 -13.79296875 45.625 C-20.65687739 44.93065308 -24.31325572 41.71174803 -28.875 36.8125 C-34.00744001 30.2853752 -34.3298305 23.32488914 -33.5 15.25 C-31.72347992 8.60491539 -27.05486632 4.0773753 -21.5 0.25 C-14.88595836 -2.99217727 -6.68654289 -3.18645759 0 0 Z " fill="#615E5E" transform="translate(657.5,61.75)"/>
<path d="M0 0 C6.48198081 4.100845 13.68352472 9.43097965 15.63671875 17.23046875 C17.12920595 26.71940115 16.84270766 34.99320493 11.0625 42.9375 C5.91393346 48.63539058 0.50373877 52.56477192 -7.2421875 53.21484375 C-17.72186686 53.49179088 -23.39243408 51.89096172 -31.140625 44.7734375 C-37.39676317 38.38129633 -38.2864109 32.51359869 -38.3203125 23.72460938 C-38.15183856 16.47321008 -35.95948869 12.10221095 -31.03515625 6.9453125 C-22.55118703 -0.90358033 -11.25965312 -4.19630591 0 0 Z M-26.9375 7.9375 C-26.9375 8.5975 -26.9375 9.2575 -26.9375 9.9375 C-27.5975 9.9375 -28.2575 9.9375 -28.9375 9.9375 C-34.27745694 17.05744259 -34.60016402 23.20861528 -33.9375 31.9375 C-32.92136741 35.71170677 -31.1054029 38.68564566 -28.9375 41.9375 C-28.2775 41.9375 -27.6175 41.9375 -26.9375 41.9375 C-26.9375 42.5975 -26.9375 43.2575 -26.9375 43.9375 C-19.90229073 49.21390695 -13.59149647 49.84339865 -4.9375 48.9375 C2.20788851 46.89168346 6.21047131 43.32075443 10.00390625 37.0234375 C12.94457915 31.22890124 13.14125631 23.95131405 11.4609375 17.69921875 C10.27356766 14.89870504 8.74874755 12.46687132 7.0625 9.9375 C6.4025 9.9375 5.7425 9.9375 5.0625 9.9375 C5.0625 9.2775 5.0625 8.6175 5.0625 7.9375 C-4.94820678 0.42946992 -16.74151266 1.14017511 -26.9375 7.9375 Z " fill="#B9B9B6" transform="translate(480.9375,54.0625)"/>
<path d="M0 0 C2.375 0.6875 2.375 0.6875 3.375 1.6875 C3.47801414 3.02743616 3.51348453 4.37267965 3.52026367 5.71655273 C3.52983345 6.99809486 3.52983345 6.99809486 3.53959656 8.30552673 C3.54070938 9.23466385 3.5418222 10.16380096 3.54296875 11.12109375 C3.54629715 12.06936539 3.54962555 13.01763702 3.55305481 13.99464417 C3.55812819 16.00464389 3.56046301 18.01465208 3.56030273 20.0246582 C3.56248822 23.10837619 3.58063683 26.19173606 3.59960938 29.27539062 C3.60254334 31.2239571 3.60452812 33.17252529 3.60546875 35.12109375 C3.61265427 36.04820663 3.61983978 36.97531952 3.62724304 37.93052673 C3.62416641 38.78804031 3.62108978 39.64555389 3.61791992 40.52905273 C3.61934494 41.28548569 3.62076996 42.04191864 3.62223816 42.8212738 C3.375 44.6875 3.375 44.6875 1.375 46.6875 C-1.125 46.9375 -1.125 46.9375 -3.625 46.6875 C-6.01073722 44.30176278 -5.87980007 43.79219312 -5.8996582 40.54492188 C-5.90919022 39.69063599 -5.91872223 38.8363501 -5.92854309 37.95617676 C-5.92763168 37.03220093 -5.92672028 36.1082251 -5.92578125 35.15625 C-5.93006638 34.20939331 -5.9343515 33.26253662 -5.93876648 32.2869873 C-5.94451531 30.28296713 -5.94500599 28.27892608 -5.94067383 26.27490234 C-5.93751268 23.19983548 -5.96097027 20.12572913 -5.98632812 17.05078125 C-5.98860085 15.10677205 -5.98930474 13.16276026 -5.98828125 11.21875 C-5.997491 10.29477417 -6.00670074 9.37079834 -6.01618958 8.41882324 C-6.00996078 7.56453735 -6.00373199 6.71025146 -5.99731445 5.83007812 C-5.99794388 5.07666138 -5.9985733 4.32324463 -5.9992218 3.54699707 C-5.30488302 0.09684817 -3.18275382 -0.37889926 0 0 Z " fill="#30ACE0" transform="translate(103.625,60.3125)"/>
<path d="M0 0 C3.29714793 0.32971479 4.6226839 0.6226839 7 3 C7.20018591 6.0501911 7.27970761 9.00762472 7.265625 12.05859375 C7.26753845 12.95868668 7.2694519 13.8587796 7.27142334 14.78614807 C7.27278573 16.69182616 7.26908557 18.59751351 7.26074219 20.50317383 C7.25005583 23.42224995 7.26062922 26.34070889 7.2734375 29.25976562 C7.27211567 31.10937636 7.26955279 32.95898671 7.265625 34.80859375 C7.26967346 35.68366074 7.27372192 36.55872772 7.27789307 37.46031189 C7.27158875 38.27448074 7.26528442 39.0886496 7.25878906 39.92749023 C7.25640228 41.00098976 7.25640228 41.00098976 7.25396729 42.09617615 C7 44 7 44 5 47 C2.5 47.3125 2.5 47.3125 0 47 C-2.38846827 44.61153173 -2.2519244 44.10779425 -2.25878906 40.85742188 C-2.26509338 40.00313599 -2.27139771 39.1488501 -2.27789307 38.26867676 C-2.2738446 37.34470093 -2.26979614 36.4207251 -2.265625 35.46875 C-2.26753845 34.52189331 -2.2694519 33.57503662 -2.27142334 32.5994873 C-2.27278573 30.59545628 -2.26908556 28.59141646 -2.26074219 26.58740234 C-2.25004347 23.51249447 -2.26063572 20.43817086 -2.2734375 17.36328125 C-2.27211591 15.41926954 -2.26955354 13.47525819 -2.265625 11.53125 C-2.27169769 10.14528625 -2.27169769 10.14528625 -2.27789307 8.73132324 C-2.27158875 7.87703735 -2.26528442 7.02275146 -2.25878906 6.14257812 C-2.25719788 5.38916138 -2.25560669 4.63574463 -2.25396729 3.85949707 C-2 2 -2 2 0 0 Z " fill="#2FACE0" transform="translate(194,60)"/>
<path d="M0 0 C3.29714793 0.32971479 4.6226839 0.6226839 7 3 C7.21241769 5.96629497 7.3039558 8.83678109 7.30078125 11.8046875 C7.30506638 12.68021271 7.3093515 13.55573792 7.31376648 14.45779419 C7.31951559 16.31218602 7.32000578 18.16660041 7.31567383 20.02099609 C7.3125202 22.85683827 7.33594325 25.69163114 7.36132812 28.52734375 C7.36360171 30.32812368 7.36430434 32.12890642 7.36328125 33.9296875 C7.372491 34.77771942 7.38170074 35.62575134 7.39118958 36.4994812 C7.3447576 42.41882613 7.3447576 42.41882613 5.47729492 45.56689453 C4.74603394 46.27628174 4.74603394 46.27628174 4 47 C-0.875 46.125 -0.875 46.125 -2 45 C-2.10301414 43.66006384 -2.13848453 42.31482035 -2.14526367 40.97094727 C-2.15164352 40.11658585 -2.15802338 39.26222443 -2.16459656 38.38197327 C-2.16570938 37.45283615 -2.1668222 36.52369904 -2.16796875 35.56640625 C-2.17129715 34.61813461 -2.17462555 33.66986298 -2.17805481 32.69285583 C-2.18312819 30.68285611 -2.18546301 28.67284792 -2.18530273 26.6628418 C-2.18748822 23.57912381 -2.20563683 20.49576394 -2.22460938 17.41210938 C-2.22754334 15.4635429 -2.22952812 13.51497471 -2.23046875 11.56640625 C-2.23765427 10.63929337 -2.24483978 9.71218048 -2.25224304 8.75697327 C-2.24916641 7.89945969 -2.24608978 7.04194611 -2.24291992 6.15844727 C-2.24434494 5.40201431 -2.24576996 4.64558136 -2.24723816 3.8662262 C-2 2 -2 2 0 0 Z " fill="#656262" transform="translate(308,60)"/>
<path d="M0 0 C5.44995749 -0.838455 8.53619874 1.09586554 12.81640625 4.15625 C18.5402112 8.98923021 22.42277432 14.74183483 23.25 22.27734375 C23.6489882 30.3693231 21.19028706 36.46841552 16.25 42.8125 C12.1374656 47.27813078 7.56994029 49.81643284 1.5 50.25 C0.675 50.1675 -0.15 50.085 -1 50 C-1 49.67 -1 49.34 -1 49 C-0.35933594 48.87625 0.28132813 48.7525 0.94140625 48.625 C8.16487991 46.90256217 11.87457887 44.14229368 16 38 C19.61309734 31.93932059 19.71868056 25.87879965 19 19 C18.24617579 16.40044863 17.28268355 14.41144507 16 12 C15.67 11.01 15.34 10.02 15 9 C14.34 9 13.68 9 13 9 C13 8.34 13 7.68 13 7 C12.278125 6.71125 11.55625 6.4225 10.8125 6.125 C8.20833333 5.08333333 5.60416667 4.04166667 3 3 C3 2.34 3 1.68 3 1 C2.01 0.67 1.02 0.34 0 0 Z " fill="#81807F" transform="translate(473,55)"/>
<path d="M0 0 C2.9375 0.875 2.9375 0.875 4.9375 3.875 C4.75 6.9375 4.75 6.9375 3.9375 9.875 C0.9375 11.875 0.9375 11.875 -1.625 11.625 C-4.0625 10.875 -4.0625 10.875 -6.0625 8.875 C-6.39552312 5.7445827 -6.53921956 3.69601702 -4.9375 0.9375 C-3.0625 -0.125 -3.0625 -0.125 0 0 Z " fill="#37AEE1" transform="translate(197.0625,41.125)"/>
<path d="M0 0 C3.5 0.25 3.5 0.25 5.5 2.25 C5.83302312 5.3804173 5.97671956 7.42898298 4.375 10.1875 C2.5 11.25 2.5 11.25 -0.5625 11.125 C-3.5 10.25 -3.5 10.25 -5.5 7.25 C-5.75 4.6875 -5.75 4.6875 -5.5 2.25 C-3.5 0.25 -3.5 0.25 0 0 Z " fill="#33ADE1" transform="translate(102.5,41.75)"/>
<path d="M0 0 C3.0625 0.3125 3.0625 0.3125 5 1.5 C6.0625 3.3125 6.0625 3.3125 5.9375 5.8125 C4.99624198 8.50180863 4.46223442 9.76981359 2.0625 11.3125 C-1.27942692 11.06796876 -2.54293557 10.70706443 -4.9375 8.3125 C-5.1875 5.3125 -5.1875 5.3125 -4.9375 2.3125 C-2.9375 0.3125 -2.9375 0.3125 0 0 Z " fill="#625F5F" transform="translate(309.9375,41.6875)"/>
<path d="M0 0 C0.33 0 0.66 0 1 0 C0.96612836 7.31627508 -0.92336697 11.74001228 -6 17 C-10.87491128 21.68875715 -15.31053937 22.83314271 -22 23 C-22 22.67 -22 22.34 -22 22 C-21.35933594 21.87625 -20.71867187 21.7525 -20.05859375 21.625 C-12.88180022 19.91369305 -9.04986234 17.16479045 -5 11 C-3.77871076 8.67955044 -2.87866943 6.48094899 -2 4 C-1.34 4 -0.68 4 0 4 C0 2.68 0 1.36 0 0 Z " fill="#7C7C7B" transform="translate(494,82)"/>
<path d="M0 0 C2.64 0 5.28 0 8 0 C8 0.66 8 1.32 8 2 C7.34 2 6.68 2 6 2 C5.67 4.31 5.34 6.62 5 9 C3.35 8.67 1.7 8.34 0 8 C0 5.36 0 2.72 0 0 Z " fill="#C4C3C1" transform="translate(412,79)"/>
<path d="M0 0 C0.66 0.33 1.32 0.66 2 1 C-7.22551253 11.74259681 -7.22551253 11.74259681 -13 15 C-10.28341041 8.57897007 -5.33989457 4.22224222 0 0 Z " fill="#90908F" transform="translate(429,26)"/>
<path d="M0 0 C0.66 0.33 1.32 0.66 2 1 C-1.96 2.98 -1.96 2.98 -6 5 C-6 5.33 -6 5.66 -6 6 C-7.4370809 6.05422947 -8.87475462 6.09289723 -10.3125 6.125 C-11.11300781 6.14820312 -11.91351563 6.17140625 -12.73828125 6.1953125 C-16.11613046 5.90361568 -18.21648798 3.85567468 -21 2 C-19.35451172 2.03480469 -19.35451172 2.03480469 -17.67578125 2.0703125 C-16.221361 2.08907921 -14.76693336 2.10727844 -13.3125 2.125 C-12.59126953 2.14175781 -11.87003906 2.15851563 -11.12695312 2.17578125 C-6.8972457 2.21440872 -3.84740867 1.69885578 0 0 Z " fill="#979695" transform="translate(481,100)"/>
<path d="M0 0 C0.33 0.66 0.66 1.32 1 2 C1.99 2.33 2.98 2.66 4 3 C3.67 3.66 3.34 4.32 3 5 C3.66 5 4.32 5 5 5 C4.67 6.65 4.34 8.3 4 10 C3.01 10 2.02 10 1 10 C1.33 9.01 1.66 8.02 2 7 C1.01 7.33 0.02 7.66 -1 8 C-1 7.01 -1 6.02 -1 5 C-1.66 5 -2.32 5 -3 5 C-2.67 4.01 -2.34 3.02 -2 2 C-1.34 2 -0.68 2 0 2 C0 1.34 0 0.68 0 0 Z " fill="#E0DFDC" transform="translate(425,108)"/>
<path d="M0 0 C0.99 0.33 1.98 0.66 3 1 C3 4.3 3 7.6 3 11 C2.01 11.33 1.02 11.66 0 12 C0 8.04 0 4.08 0 0 Z " fill="#989896" transform="translate(493,74)"/>
<path d="M0 0 C1.65 0 3.3 0 5 0 C5 1.65 5 3.3 5 5 C3.68 5.33 2.36 5.66 1 6 C0.67 4.02 0.34 2.04 0 0 Z " fill="#C5C4C1" transform="translate(489,128)"/>
<path d="M0 0 C0 3.96 0 7.92 0 12 C-0.99 11.67 -1.98 11.34 -3 11 C-3 7.7 -3 4.4 -3 1 C-1 0 -1 0 0 0 Z " fill="#989896" transform="translate(447,74)"/>
<path d="M0 0 C3.3 0 6.6 0 10 0 C10.33 0.99 10.66 1.98 11 3 C7.04 3 3.08 3 -1 3 C-0.67 2.01 -0.34 1.02 0 0 Z " fill="#999997" transform="translate(465,54)"/>
<path d="M0 0 C2 2 2 2 2 3 C2.66 3 3.32 3 4 3 C3.34 4.32 2.68 5.64 2 7 C0.68 6.67 -0.64 6.34 -2 6 C-1.125 1.125 -1.125 1.125 0 0 Z " fill="#EAEAE6" transform="translate(512,41)"/>
<path d="M0 0 C1.65 0 3.3 0 5 0 C5 0.66 5 1.32 5 2 C4.01 2.495 4.01 2.495 3 3 C3.33 3.66 3.66 4.32 4 5 C2.35 4.67 0.7 4.34 -1 4 C-0.67 2.68 -0.34 1.36 0 0 Z " fill="#B0B0AD" transform="translate(417,56)"/>
<path d="M0 0 C0 0.66 0 1.32 0 2 C-0.99 2.495 -0.99 2.495 -2 3 C-1.67 3.99 -1.34 4.98 -1 6 C-2.65 5.67 -4.3 5.34 -6 5 C-5.625 3.0625 -5.625 3.0625 -5 1 C-3 0 -3 0 0 0 Z " fill="#ECEBE7" transform="translate(526,91)"/>
<path d="M0 0 C-0.33 0.99 -0.66 1.98 -1 3 C-0.34 3.33 0.32 3.66 1 4 C1 4.66 1 5.32 1 6 C-0.65 5.67 -2.3 5.34 -4 5 C-4.33 3.68 -4.66 2.36 -5 1 C-2 0 -2 0 0 0 Z " fill="#ECEBE7" transform="translate(525,63)"/>
<path d="M0 0 C1.65 0.33 3.3 0.66 5 1 C4.67 2.32 4.34 3.64 4 5 C2.35 5.33 0.7 5.66 -1 6 C-1 5.34 -1 4.68 -1 4 C-0.34 3.67 0.32 3.34 1 3 C0.67 2.01 0.34 1.02 0 0 Z " fill="#ECEBE7" transform="translate(415,63)"/>
<path d="M0 0 C0.99 0.99 1.98 1.98 3 3 C0 5 0 5 -3 5 C-3.33 4.01 -3.66 3.02 -4 2 C-2.68 1.34 -1.36 0.68 0 0 Z " fill="#D6D5D2" transform="translate(520,53)"/>
<path d="M0 0 C0.66 0 1.32 0 2 0 C1.67 1.65 1.34 3.3 1 5 C-0.32 5.33 -1.64 5.66 -3 6 C-3.33 4.35 -3.66 2.7 -4 1 C-3.01 1.33 -2.02 1.66 -1 2 C-0.67 1.34 -0.34 0.68 0 0 Z " fill="#ECEBE7" transform="translate(457,24)"/>
<path d="M0 0 C0.33 0.66 0.66 1.32 1 2 C1.99 2 2.98 2 4 2 C3.67 3.65 3.34 5.3 3 7 C1.68 6.34 0.36 5.68 -1 5 C-0.67 3.35 -0.34 1.7 0 0 Z " fill="#CAC9C7" transform="translate(444,126)"/>
<path d="M0 0 C0.66 0 1.32 0 2 0 C2 0.66 2 1.32 2 2 C2.66 2.66 3.32 3.32 4 4 C2.35 4.33 0.7 4.66 -1 5 C-1.33 4.34 -1.66 3.68 -2 3 C-1.34 2.01 -0.68 1.02 0 0 Z " fill="#BFBFBC" transform="translate(420,102)"/>
</svg>
