<?xml version="1.0" encoding="UTF-8"?>
<svg version="1.1" xmlns="http://www.w3.org/2000/svg" width="754" height="152">
<path d="M0 0 C248.82 0 497.64 0 754 0 C754 50.16 754 100.32 754 152 C505.18 152 256.36 152 0 152 C0 101.84 0 51.68 0 0 Z " fill="#44464C" transform="translate(0,0)"/>
<path d="M0 0 C7.92 0 15.84 0 24 0 C26.35229546 5.88073866 28.60227296 11.55951027 30.578125 17.5390625 C30.79442566 18.19079437 31.01072632 18.84252625 31.23358154 19.51400757 C31.90860266 21.55006504 32.57938907 23.58748629 33.25 25.625 C33.71325883 27.02483322 34.17679857 28.4245735 34.640625 29.82421875 C35.76365159 33.21508246 36.88289133 36.60718137 38 40 C39.80324974 37.29512539 40.74812249 35.20025912 41.8046875 32.16796875 C42.13919922 31.21027588 42.47371094 30.25258301 42.81835938 29.26586914 C43.16705078 28.25000732 43.51574219 27.23414551 43.875 26.1875 C44.23142578 25.15681396 44.58785156 24.12612793 44.95507812 23.06420898 C47.56880208 15.43387912 49.89955312 7.78915719 52 0 C60.25 0 68.5 0 77 0 C77 23.76 77 47.52 77 72 C70.07 72 63.14 72 56 72 C55.73036557 59.14742573 56.27005697 47.5447382 59 35 C58.70867187 35.99515625 58.41734375 36.9903125 58.1171875 38.015625 C54.79154248 49.35798391 51.4036758 60.6807991 48 72 C41.73 72 35.46 72 29 72 C25.10067305 59.7285887 21.49064083 47.39349225 18 35 C18.2165625 36.07894531 18.433125 37.15789062 18.65625 38.26953125 C20.82218057 49.70018801 21.26061163 60.35934741 21 72 C14.07 72 7.14 72 0 72 C0 48.24 0 24.48 0 0 Z " fill="#CDCDCE" transform="translate(10,33)"/>
<path d="M0 0 C4.68238927 2.6806899 7.45366262 6.10414834 9.51171875 11.125 C10.02491578 14.3569967 9.98067772 17.5116005 9.90234375 20.77734375 C9.89668396 21.67747696 9.89102417 22.57761017 9.88519287 23.50502014 C9.86294105 26.35807231 9.81276674 29.20983244 9.76171875 32.0625 C9.74163923 34.00584114 9.72339101 35.94920211 9.70703125 37.89257812 C9.66652737 42.63760753 9.58821881 47.37987103 9.51171875 52.125 C2.91171875 52.125 -3.68828125 52.125 -10.48828125 52.125 C-10.81828125 40.575 -11.14828125 29.025 -11.48828125 17.125 C-13.46828125 16.795 -15.44828125 16.465 -17.48828125 16.125 C-17.81828125 28.005 -18.14828125 39.885 -18.48828125 52.125 C-25.08828125 52.125 -31.68828125 52.125 -38.48828125 52.125 C-38.48828125 34.965 -38.48828125 17.805 -38.48828125 0.125 C-33.53828125 0.125 -28.58828125 0.125 -23.48828125 0.125 C-23.94203125 1.630625 -24.39578125 3.13625 -24.86328125 4.6875 C-26.10495861 8.82446295 -27.31363443 12.9685574 -28.48828125 17.125 C-27.82828125 17.125 -27.16828125 17.125 -26.48828125 17.125 C-26.44703125 15.97 -26.40578125 14.815 -26.36328125 13.625 C-25.72658268 8.4391363 -23.14192491 4.77008712 -19.48828125 1.125 C-14.08734455 -2.45618265 -5.92934835 -2.08504557 0 0 Z " fill="#CCCCCC" transform="translate(159.48828125,52.875)"/>
<path d="M0 0 C4.69570085 2.66060349 7.4622471 6.09821915 9.51953125 11.1171875 C10.03272828 14.3491842 9.98849022 17.503788 9.91015625 20.76953125 C9.90449646 21.66966446 9.89883667 22.56979767 9.89300537 23.49720764 C9.87075355 26.35025981 9.82057924 29.20201994 9.76953125 32.0546875 C9.74945173 33.99802864 9.73120351 35.94138961 9.71484375 37.88476562 C9.67433987 42.62979503 9.59603131 47.37205853 9.51953125 52.1171875 C2.91953125 52.1171875 -3.68046875 52.1171875 -10.48046875 52.1171875 C-10.81046875 40.5671875 -11.14046875 29.0171875 -11.48046875 17.1171875 C-13.46046875 16.7871875 -15.44046875 16.4571875 -17.48046875 16.1171875 C-17.81046875 27.9971875 -18.14046875 39.8771875 -18.48046875 52.1171875 C-25.08046875 52.1171875 -31.68046875 52.1171875 -38.48046875 52.1171875 C-38.48046875 34.9571875 -38.48046875 17.7971875 -38.48046875 0.1171875 C-33.53046875 0.1171875 -28.58046875 0.1171875 -23.48046875 0.1171875 C-23.93421875 1.6228125 -24.38796875 3.1284375 -24.85546875 4.6796875 C-26.09714611 8.81665045 -27.30582193 12.9607449 -28.48046875 17.1171875 C-27.82046875 17.1171875 -27.16046875 17.1171875 -26.48046875 17.1171875 C-26.39796875 15.9209375 -26.31546875 14.7246875 -26.23046875 13.4921875 C-25.50974041 7.90407462 -23.04387706 4.64050842 -19.04296875 0.7421875 C-13.02902745 -2.00101379 -6.27316438 -2.23265378 0 0 Z " fill="#CCCCCC" transform="translate(563.48046875,52.8828125)"/>
<path d="M0 0 C6.09802296 5.09670556 9.97763201 9.56794219 10.97265625 17.56640625 C11.35866278 26.48315708 9.95759853 33.3880697 3.921875 40.140625 C-3.15177764 46.67137879 -9.58534626 47.89150549 -19.05859375 47.640625 C-25.83762454 46.95801426 -29.65222331 44.39666979 -34.24609375 39.48828125 C-40.68830849 31.44286695 -41.47520083 24.52746893 -40.43359375 14.30078125 C-38.43795353 6.88840327 -32.74802274 1.28943864 -26.30859375 -2.57421875 C-17.28878268 -6.10371004 -8.01979648 -5.59969738 0 0 Z " fill="#434950" transform="translate(289.43359375,70.69921875)"/>
<path d="M0 0 C4.9718789 5.27520307 5.14021259 10.91800994 5.09765625 17.82421875 C5.0962413 18.68561966 5.09482635 19.54702057 5.09336853 20.43452454 C5.0877714 23.18555169 5.07521946 25.93649744 5.0625 28.6875 C5.05748463 30.5527332 5.05292179 32.41796767 5.04882812 34.28320312 C5.03780292 38.85550011 5.02054027 43.42773625 5 48 C0.38 48 -4.24 48 -9 48 C-8.21875 45.42838542 -7.4375 42.85677083 -6.65625 40.28515625 C-5.95399619 38.23606155 -5.95399619 38.23606155 -6 37 C-6.47179687 37.81404297 -6.47179687 37.81404297 -6.953125 38.64453125 C-9.99382539 43.72762979 -12.20247142 47.06749047 -18 49 C-24.70327121 49.55504793 -30.13128341 49.40385562 -36 46 C-39.73179101 42.76578112 -42.55722256 39.8317162 -43.3359375 34.8515625 C-43.43161189 29.3981224 -42.80875475 26.19939627 -39 22 C-33.01015793 17.57149117 -27.46391224 16.86400089 -20.1875 16.9375 C-19.02605469 16.94652344 -17.86460937 16.95554687 -16.66796875 16.96484375 C-15.78753906 16.97644531 -14.90710938 16.98804687 -14 17 C-14.495 14.525 -14.495 14.525 -15 12 C-20.87536761 11.44044118 -21.49398045 12.3293203 -27 16 C-33.435 12.04 -33.435 12.04 -40 8 C-37.6442525 2.11063124 -35.32297029 0.13505902 -30 -3 C-19.80441573 -6.7383809 -8.96984616 -6.51119268 0 0 Z " fill="#CECECE" transform="translate(513,57)"/>
<path d="M0 0 C4.15547505 3.01675591 6.45463479 5.68131256 7.5 10.75 C7.5825943 12.12336465 7.61787931 13.50013742 7.61352539 14.87597656 C7.61344986 15.67650452 7.61337433 16.47703247 7.61329651 17.30181885 C7.60813522 18.15612488 7.60297394 19.01043091 7.59765625 19.890625 C7.5962413 20.77280701 7.59482635 21.65498901 7.59336853 22.56390381 C7.58778001 25.37597065 7.57522961 28.1879573 7.5625 31 C7.55748352 32.90885302 7.55292087 34.81770728 7.54882812 36.7265625 C7.53866609 41.40109728 7.51908842 46.07545907 7.5 50.75 C1.23 50.75 -5.04 50.75 -11.5 50.75 C-11.56058594 48.30722656 -11.62117188 45.86445312 -11.68359375 43.34765625 C-11.74533798 40.99125937 -11.80874433 38.6349127 -11.87231445 36.27856445 C-11.91572297 34.63635697 -11.95739358 32.99410261 -11.99731445 31.35180664 C-12.0548744 28.99611255 -12.11860892 26.64065572 -12.18359375 24.28515625 C-12.20030624 23.54660904 -12.21701874 22.80806183 -12.23423767 22.0471344 C-12.03548013 18.60699373 -12.03548013 18.60699373 -13.5 15.75 C-16 15.58333333 -16 15.58333333 -18.5 15.75 C-20.47829072 17.72829072 -19.75503932 21.57327027 -19.81640625 24.28515625 C-19.83718735 25.03840683 -19.85796844 25.79165741 -19.87937927 26.56773376 C-19.94495425 28.9825599 -20.00379621 31.39749798 -20.0625 33.8125 C-20.1056777 35.44597529 -20.14929173 37.0794391 -20.19335938 38.71289062 C-20.30146797 42.72514718 -20.40048114 46.73748424 -20.5 50.75 C-26.77 50.75 -33.04 50.75 -39.5 50.75 C-39.5 33.59 -39.5 16.43 -39.5 -1.25 C-34.88 -1.25 -30.26 -1.25 -25.5 -1.25 C-25.83 0.4 -26.16 2.05 -26.5 3.75 C-26.5 4.74 -26.5 5.73 -26.5 6.75 C-26.0875 5.986875 -25.675 5.22375 -25.25 4.4375 C-23.19786956 1.28601397 -21.3418728 -0.68265523 -17.69921875 -1.8046875 C-11.52941201 -3.05399117 -5.50978425 -3.32627716 0 0 Z " fill="#CFCFCF" transform="translate(457.5,54.25)"/>
<path d="M0 0 C4.5029081 3.11371305 7.14501184 7.07338202 8.8359375 12.26953125 C9.12530591 14.90387572 9.33932628 17.44375932 9.4609375 20.08203125 C9.5846875 22.45390625 9.7084375 24.82578125 9.8359375 27.26953125 C0.2659375 27.26953125 -9.3040625 27.26953125 -19.1640625 27.26953125 C-18.8340625 29.24953125 -18.5040625 31.22953125 -18.1640625 33.26953125 C-12.84235756 33.56515492 -12.84235756 33.56515492 -8.1640625 31.26953125 C-6.26293945 31.59326172 -6.26293945 31.59326172 -4.15234375 32.38671875 C-3.39501953 32.66386719 -2.63769531 32.94101563 -1.85742188 33.2265625 C-1.07173828 33.52949219 -0.28605469 33.83242187 0.5234375 34.14453125 C1.32072266 34.43972656 2.11800781 34.73492187 2.93945312 35.0390625 C4.90948298 35.77045083 6.8733357 36.51843824 8.8359375 37.26953125 C7.11467656 42.86555898 5.38470443 46.30671768 0.0703125 49.24609375 C-7.62102584 52.38721284 -17.76740832 52.68675349 -25.796875 50.578125 C-31.13997511 48.15036659 -34.77154473 44.23047348 -37.27148438 38.91479492 C-38.85144065 34.23240262 -38.61627654 29.48307886 -38.6640625 24.58203125 C-38.7053125 23.54369141 -38.7465625 22.50535156 -38.7890625 21.43554688 C-38.86667984 13.69806796 -37.11745203 8.29221926 -32.1640625 2.26953125 C-23.60471644 -4.69581352 -9.54805206 -5.02248835 0 0 Z " fill="#CFCFCF" transform="translate(668.1640625,54.73046875)"/>
<path d="M0 0 C3.47742856 2.16940497 6.25376916 4.65396339 8.12890625 8.328125 C8.53491572 10.64991566 8.87968395 12.98431532 9.12890625 15.328125 C6.88085623 16.00133784 4.63038401 16.66646623 2.37890625 17.328125 C1.1259375 17.699375 -0.12703125 18.070625 -1.41796875 18.453125 C-4.87109375 19.328125 -4.87109375 19.328125 -8.87109375 19.328125 C-9.34546875 18.668125 -9.81984375 18.008125 -10.30859375 17.328125 C-10.82421875 16.668125 -11.33984375 16.008125 -11.87109375 15.328125 C-14.45571537 14.91095221 -14.45571537 14.91095221 -16.87109375 15.328125 C-18.61733255 17.0743638 -18.00330526 19.32690824 -18.0078125 21.65039062 C-18.00201172 22.69743164 -18.00201172 22.69743164 -17.99609375 23.765625 C-17.99996094 24.45978516 -18.00382813 25.15394531 -18.0078125 25.86914062 C-18.0646921 29.72582257 -18.0646921 29.72582257 -16.87109375 33.328125 C-14.53944341 33.66310801 -14.53944341 33.66310801 -11.87109375 33.328125 C-10.55109375 32.008125 -9.23109375 30.688125 -7.87109375 29.328125 C-2.59109375 31.968125 2.68890625 34.608125 8.12890625 37.328125 C5.81965135 44.25588971 3.52364852 46.27940299 -2.55078125 49.9453125 C-6.61513455 51.63799611 -9.892009 51.82628562 -14.24609375 51.765625 C-15.00051758 51.75805176 -15.75494141 51.75047852 -16.53222656 51.74267578 C-23.01759211 51.55011074 -27.5854916 50.43497677 -32.37890625 45.90234375 C-38.08436228 39.59373952 -38.21036067 33.58317486 -38.18359375 25.515625 C-38.19970703 24.55591797 -38.21582031 23.59621094 -38.23242188 22.60742188 C-38.23741875 15.28700558 -37.37365961 9.4742078 -32.68359375 3.578125 C-23.05029985 -4.12851012 -11.38183124 -5.32527195 0 0 Z " fill="#CFCFCF" transform="translate(616.87109375,54.671875)"/>
<path d="M0 0 C0 5.61 0 11.22 0 17 C-2.31 17.66 -4.62 18.32 -7 19 C-7.66 20.32 -8.32 21.64 -9 23 C-6.03 23 -3.06 23 0 23 C0 27.62 0 32.24 0 37 C-2.97 37 -5.94 37 -9 37 C-9 49.54 -9 62.08 -9 75 C-15.27 75 -21.54 75 -28 75 C-28 62.46 -28 49.92 -28 37 C-29.65 37 -31.3 37 -33 37 C-33 32.38 -33 27.76 -33 23 C-31.35 23 -29.7 23 -28 23 C-28.05800781 22.3709375 -28.11601562 21.741875 -28.17578125 21.09375 C-28.52921665 14.3885755 -27.50210642 10.07659396 -23 5 C-15.47287704 -0.87115591 -9.28605584 -0.08519317 0 0 Z " fill="#CFCFCF" transform="translate(386,30)"/>
<path d="M0 0 C6.6 0 13.2 0 20 0 C20 17.16 20 34.32 20 52 C13.4 52 6.8 52 0 52 C0 34.84 0 17.68 0 0 Z " fill="#CCCCCC" transform="translate(176,53)"/>
<path d="M0 0 C6.6 0 13.2 0 20 0 C20 17.16 20 34.32 20 52 C13.4 52 6.8 52 0 52 C0 34.84 0 17.68 0 0 Z " fill="#CCCCCC" transform="translate(94,53)"/>
<path d="M0 0 C6.27 0 12.54 0 19 0 C19 17.16 19 34.32 19 52 C12.73 52 6.46 52 0 52 C0 34.84 0 17.68 0 0 Z " fill="#CFCFCF" transform="translate(391,53)"/>
<path d="M0 0 C4.38033155 0.69529072 5.34756199 1.15653676 7.9375 4.625 C8.36328125 7.7265625 8.36328125 7.7265625 8.25 11.25 C8.21519531 12.48234375 8.18039062 13.7146875 8.14453125 14.984375 C7.88478024 19.55207208 7.52301104 24.08728941 6.9375 28.625 C7.9275 28.934375 7.9275 28.934375 8.9375 29.25 C11.55037263 30.44756662 13.84991872 31.68120798 16.25 33.25 C16.94738281 33.69601563 17.64476562 34.14203125 18.36328125 34.6015625 C19.9375 36.625 19.9375 36.625 19.9375 44.625 C13.9975 44.625 8.0575 44.625 1.9375 44.625 C0.73214286 35.51785714 0.73214286 35.51785714 1.9375 31.625 C0.6175 31.955 -0.7025 32.285 -2.0625 32.625 C-1.753125 34.2028125 -1.753125 34.2028125 -1.4375 35.8125 C-1.0625 39.625 -1.0625 39.625 -3.0625 44.625 C-9.0025 44.625 -14.9425 44.625 -21.0625 44.625 C-21.0625 37.625 -21.0625 37.625 -19.5234375 35.48046875 C-15.51611235 32.2761095 -12.18630955 29.77785715 -7.0625 28.625 C-7.20292877 26.97869672 -7.34999329 25.33295821 -7.5 23.6875 C-7.58121094 22.77097656 -7.66242188 21.85445312 -7.74609375 20.91015625 C-7.82294976 18.66340268 -7.82294976 18.66340268 -9.0625 17.625 C-9.66847737 12.54344687 -10.16299297 7.26570495 -7.0625 2.9375 C-4.15352249 0.69516317 -3.43911766 0.21213249 0 0 Z " fill="#41A3CD" transform="translate(325.0625,94.375)"/>
<path d="M0 0 C2.77174045 0.69705156 4.48425308 2.12679603 6.13671875 4.43359375 C7.8216676 8.59085073 7.49629818 13.10498217 6.97265625 17.49609375 C6.64265625 17.82609375 6.31265625 18.15609375 5.97265625 18.49609375 C5.73978617 20.17793323 5.56001459 21.86733535 5.41015625 23.55859375 C5.32636719 24.47769531 5.24257812 25.39679688 5.15625 26.34375 C5.06537109 27.40916016 5.06537109 27.40916016 4.97265625 28.49609375 C5.96265625 28.80546875 5.96265625 28.80546875 6.97265625 29.12109375 C9.58552888 30.31866037 11.88507497 31.55230173 14.28515625 33.12109375 C14.98253906 33.56710938 15.67992187 34.013125 16.3984375 34.47265625 C17.97265625 36.49609375 17.97265625 36.49609375 17.97265625 44.49609375 C12.36265625 44.49609375 6.75265625 44.49609375 0.97265625 44.49609375 C-1.29216132 38.83404982 -0.99665212 37.21501316 -0.02734375 31.49609375 C-1.34734375 31.49609375 -2.66734375 31.49609375 -4.02734375 31.49609375 C-3.84171875 32.52734375 -3.65609375 33.55859375 -3.46484375 34.62109375 C-3.02734375 38.49609375 -3.02734375 38.49609375 -4.02734375 44.49609375 C-9.96734375 44.49609375 -15.90734375 44.49609375 -22.02734375 44.49609375 C-22.02734375 36.49609375 -22.02734375 36.49609375 -20.70703125 34.47265625 C-20.11148438 34.02664062 -19.5159375 33.580625 -18.90234375 33.12109375 C-18.26941406 32.64671875 -17.63648438 32.17234375 -16.984375 31.68359375 C-14.43654947 30.1376078 -11.91686729 29.20085559 -9.02734375 28.49609375 C-9.135625 27.65691406 -9.135625 27.65691406 -9.24609375 26.80078125 C-9.85015265 21.58238352 -10.19153349 16.37237561 -10.33984375 11.12109375 C-10.37722656 9.95835938 -10.41460937 8.795625 -10.453125 7.59765625 C-10.02734375 4.49609375 -10.02734375 4.49609375 -8.25390625 2.12109375 C-5.54530584 0.14429065 -3.33897785 -0.20595564 0 0 Z " fill="#41A3CD" transform="translate(226.02734375,94.50390625)"/>
<path d="M0 0 C2.9375 1.6875 2.9375 1.6875 5 5 C5.46521739 9.3687656 5.43219655 13.62864064 5 18 C4.67 18.33 4.34 18.66 4 19 C3.76807135 20.51469448 3.58784762 22.03754562 3.4375 23.5625 C3.35371094 24.38878906 3.26992188 25.21507813 3.18359375 26.06640625 C3.09271484 27.02353516 3.09271484 27.02353516 3 28 C4.2375 28.309375 4.2375 28.309375 5.5 28.625 C8.4377706 29.77912416 10.75610814 30.91013843 13.375 32.625 C14.06335938 33.07101563 14.75171875 33.51703125 15.4609375 33.9765625 C17 36 17 36 17 44 C11.06 44 5.12 44 -1 44 C-2 35.375 -2 35.375 -2 32 C-2.99 32 -3.98 32 -5 32 C-4.979375 33.2375 -4.95875 34.475 -4.9375 35.75 C-4.88566682 38.8599909 -5.217777 40.87110801 -6 44 C-11.94 44 -17.88 44 -24 44 C-24 36 -24 36 -21.69921875 33.46875 C-20.20841797 32.49421875 -20.20841797 32.49421875 -18.6875 31.5 C-17.70136719 30.8296875 -16.71523438 30.159375 -15.69921875 29.46875 C-13 28 -13 28 -10 28 C-10.14049518 26.52031676 -10.28754826 25.04125484 -10.4375 23.5625 C-10.51871094 22.73878906 -10.59992188 21.91507813 -10.68359375 21.06640625 C-10.78930815 19.01337975 -10.78930815 19.01337975 -12 18 C-13.10918224 6.7814139 -13.10918224 6.7814139 -9.9375 1.6875 C-6.20490287 -0.45675792 -4.24000997 -0.75714464 0 0 Z " fill="#41A4CE" transform="translate(278,6)"/>
<path d="M0 0 C6.09802296 5.09670556 9.97763201 9.56794219 10.97265625 17.56640625 C11.35866278 26.48315708 9.95759853 33.3880697 3.921875 40.140625 C-3.15177764 46.67137879 -9.58534626 47.89150549 -19.05859375 47.640625 C-25.83762454 46.95801426 -29.65222331 44.39666979 -34.24609375 39.48828125 C-40.68830849 31.44286695 -41.47520083 24.52746893 -40.43359375 14.30078125 C-38.43795353 6.88840327 -32.74802274 1.28943864 -26.30859375 -2.57421875 C-17.28878268 -6.10371004 -8.01979648 -5.59969738 0 0 Z M-31.24609375 8.30078125 C-35.63599077 14.32121145 -36.24427301 18.9020503 -35.43359375 26.30078125 C-33.44162965 33.27861956 -28.62557553 37.81285711 -22.51171875 41.44140625 C-18.00081194 43.30681884 -12.84703487 43.01036693 -8.21484375 41.6484375 C-2.32378649 39.00879069 1.93413151 34.73360648 4.703125 28.91015625 C6.41280264 23.74244283 6.63079248 18.11855372 4.69140625 12.984375 C1.41306289 7.30119424 -3.1545241 3.39380447 -9.43359375 1.30078125 C-18.68457251 0.47576706 -24.90379899 1.07863057 -31.24609375 8.30078125 Z " fill="#41A1CA" transform="translate(289.43359375,70.69921875)"/>
<path d="M0 0 C0.87269531 -0.01417969 1.74539063 -0.02835937 2.64453125 -0.04296875 C6.43989969 0.30100473 8.48180613 1.35578936 10.9375 4.25 C12.66174871 8.30198447 12.77872931 11.84393534 12.1875 16.1875 C10.56349816 19.82217079 9.52636956 20.96158696 6.1875 23.1875 C2.46930084 23.73429399 -1.09443784 23.7365121 -4.8125 23.1875 C-7.70933868 20.9859026 -9.20547231 19.40155538 -10.8125 16.1875 C-11.23198626 12.8016466 -11.30664522 9.56681569 -10.8125 6.1875 C-8.375 3.125 -8.375 3.125 -5.8125 1.1875 C-4.16504404 -0.45995596 -2.25914549 0.0165384 0 0 Z " fill="#40A2CC" transform="translate(691.8125,122.8125)"/>
<path d="M0 0 C3.63467079 1.62400184 4.77408696 2.66113044 7 6 C7.68492931 11.14493415 7.82045541 15.58542172 5.1875 20.125 C1.31062676 23.4480342 -2.65123748 23.38798547 -7.55078125 23.359375 C-10 23 -10 23 -13.0625 20.625 C-15.98721729 16.66247981 -16.39062682 14.17215743 -16.359375 9.328125 C-15.75455722 5.40995764 -13.83123243 3.69641184 -11 1 C-7.55359623 -0.72320188 -3.7757718 -0.3723512 0 0 Z " fill="#40A2CB" transform="translate(598,123)"/>
<path d="M0 0 C2.29296875 1.4140625 2.29296875 1.4140625 4 4 C4.48101814 7.26548214 4.37640552 10.45859474 4.25 13.75 C4.23195313 14.63816406 4.21390625 15.52632812 4.1953125 16.44140625 C4.14827374 18.62870848 4.08257009 20.81379816 4 23 C1.41554227 23.1081866 -1.16437352 23.18737237 -3.75 23.25 C-4.47960937 23.28351563 -5.20921875 23.31703125 -5.9609375 23.3515625 C-9.52933911 23.41644253 -11.57012909 23.31514869 -14.48828125 21.17578125 C-16.52130649 18.24969582 -16.51970893 16.48947424 -16 13 C-14.58954855 10.9548454 -13.5458893 10.21445651 -11.25 9.3125 C-8.15620095 8.88280569 -5.11834997 8.94003173 -2 9 C-2.33 8.34 -2.66 7.68 -3 7 C-6.96 7 -10.92 7 -15 7 C-15 5.35 -15 3.7 -15 2 C-10.39784498 -0.45448267 -5.09375784 -0.9773389 0 0 Z " fill="#40A2CC" transform="translate(646,123)"/>
<path d="M0 0 C0.77279297 -0.03738281 1.54558594 -0.07476562 2.34179688 -0.11328125 C6.22993214 -0.17345875 8.0778916 -0.10249512 11.2109375 2.3515625 C13.1918711 6.40775987 13.16873204 9.67797323 13 14.125 C12.99033203 14.90488281 12.98066406 15.68476563 12.97070312 16.48828125 C12.85634566 22.20615434 12.85634566 22.20615434 11.6875 23.375 C9.1875 23.5 9.1875 23.5 6.6875 23.375 C4.69133446 21.37883446 5.27766573 17.55798037 5.125 14.8125 C5.08181641 14.10158203 5.03863281 13.39066406 4.99414062 12.65820312 C4.88778223 10.89738088 4.78711154 9.1362168 4.6875 7.375 C3.02138095 7.332279 1.35367115 7.33436168 -0.3125 7.375 C-2.23951266 9.30201266 -1.66728857 12.80268319 -1.8125 15.375 C-2.20138889 22.26388889 -2.20138889 22.26388889 -3.3125 23.375 C-5.8125 23.5 -5.8125 23.5 -8.3125 23.375 C-9.93450515 21.75299485 -9.4424075 19.95476969 -9.4453125 17.71875 C-9.44660156 16.77902344 -9.44789063 15.83929688 -9.44921875 14.87109375 C-9.44535156 13.88238281 -9.44148437 12.89367187 -9.4375 11.875 C-9.44136719 10.88628906 -9.44523438 9.89757812 -9.44921875 8.87890625 C-9.44792969 7.93917969 -9.44664062 6.99945313 -9.4453125 6.03125 C-9.44418457 5.16306641 -9.44305664 4.29488281 -9.44189453 3.40039062 C-9.13197998 -1.45064926 -3.76727572 0.06810194 0 0 Z " fill="#40A2CC" transform="translate(716.3125,122.625)"/>
<path d="M0 0 C2 0.33333333 4 0.66666667 6 1 C6.33 0.67 6.66 0.34 7 0 C8.92578125 -0.23828125 8.92578125 -0.23828125 11.3125 -0.3125 C12.09238281 -0.34988281 12.87226562 -0.38726562 13.67578125 -0.42578125 C16 0 16 0 18.2734375 1.4453125 C20.85353232 5.26291886 20.47143744 8.69133648 20.3125 13.1875 C20.30283203 14.01958984 20.29316406 14.85167969 20.28320312 15.70898438 C20.16843594 21.83156406 20.16843594 21.83156406 19 23 C16.5 23.125 16.5 23.125 14 23 C12.00383446 21.00383446 12.59016573 17.18298037 12.4375 14.4375 C12.39431641 13.72658203 12.35113281 13.01566406 12.30664062 12.28320312 C12.20028223 10.52238088 12.09961154 8.7612168 12 7 C10.35 7 8.7 7 7 7 C5.89485234 10.31544299 5.67892369 13.20410111 5.4375 16.6875 C5.35371094 17.86699219 5.26992188 19.04648438 5.18359375 20.26171875 C5.12300781 21.16535156 5.06242188 22.06898438 5 23 C3.02 23 1.04 23 -1 23 C-1.02887512 19.35418313 -1.04675585 15.70839537 -1.0625 12.0625 C-1.07087891 11.02158203 -1.07925781 9.98066406 -1.08789062 8.90820312 C-1.09272461 7.42416992 -1.09272461 7.42416992 -1.09765625 5.91015625 C-1.10289307 4.99371338 -1.10812988 4.07727051 -1.11352539 3.13305664 C-1 1 -1 1 0 0 Z " fill="#40A4CE" transform="translate(559,123)"/>
<path d="M0 0 C3.0220794 1.74450506 5.41651082 3.83302164 7 7 C7.40417552 9.96395382 7.56382171 12.08904926 5.953125 14.69140625 C4.15636794 16.88450678 2.55808759 18.7209562 0 20 C-7.13230769 20.70153846 -7.13230769 20.70153846 -10.9375 17.625 C-13.9297772 13.81664721 -14.37998996 11.844872 -14 7 C-11.0087736 0.73266849 -6.85385652 -1.30611228 0 0 Z " fill="#CCCCCC" transform="translate(404,29)"/>
<path d="M0 0 C2.8100346 1.79363911 4.50940468 3.01880935 6 6 C6.5811138 13.08958838 6.5811138 13.08958838 4.125 16.9375 C0.87071886 20.09606699 -1.42411752 20.33855508 -5.9609375 20.2890625 C-9.16544562 19.83478357 -10.82724211 18.30444019 -13 16 C-14.20190901 12.39427296 -14.32670315 9.7897565 -14 6 C-10.26747896 0.27680107 -6.74763808 -0.96948823 0 0 Z " fill="#CDCDCD" transform="translate(108,29)"/>
<path d="M0 0 C2.9375 2.4375 2.9375 2.4375 5 5 C5.33 5.33 5.66 5.66 6 6 C6.38387346 10.99035504 6.08713243 13.99816167 3 18 C-1.01544992 20.67696661 -4.28325925 20.92517507 -9 20 C-12.16664776 17.41498142 -13.5764456 15.94003044 -14.4375 11.99609375 C-14.66167019 8.30429097 -14.10710782 6.16780225 -12.125 3.0625 C-8.53105139 -0.42574424 -4.86901199 -0.86746765 0 0 Z " fill="#CECECE" transform="translate(190,29)"/>
<path d="M0 0 C1.28583984 0.00580078 1.28583984 0.00580078 2.59765625 0.01171875 C4.9375 0.3125 4.9375 0.3125 7.9375 2.3125 C8.125 4.9375 8.125 4.9375 7.9375 7.3125 C4.44515756 7.41228121 1.34312852 7.09092938 -2.0625 6.3125 C-2.0625 6.9725 -2.0625 7.6325 -2.0625 8.3125 C-1.43601562 8.50585938 -0.80953125 8.69921875 -0.1640625 8.8984375 C0.65320313 9.15882813 1.47046875 9.41921875 2.3125 9.6875 C3.12460937 9.94273437 3.93671875 10.19796875 4.7734375 10.4609375 C6.9375 11.3125 6.9375 11.3125 8.9375 13.3125 C9.28240322 17.36511287 9.23913882 18.86004176 6.9375 22.3125 C3.87051363 23.33482879 1.65085122 23.4784049 -1.5625 23.5 C-3.00109375 23.52126953 -3.00109375 23.52126953 -4.46875 23.54296875 C-7.0625 23.3125 -7.0625 23.3125 -10.0625 21.3125 C-10.0625 19.6625 -10.0625 18.0125 -10.0625 16.3125 C-6.4325 16.6425 -2.8025 16.9725 0.9375 17.3125 C1.2675 16.6525 1.5975 15.9925 1.9375 15.3125 C1.01517578 15.14814453 1.01517578 15.14814453 0.07421875 14.98046875 C-0.73402344 14.82191406 -1.54226563 14.66335937 -2.375 14.5 C-3.57576172 14.27376953 -3.57576172 14.27376953 -4.80078125 14.04296875 C-7.3583694 13.21694287 -8.48027721 12.47521362 -10.0625 10.3125 C-9.95300976 4.18104651 -9.95300976 4.18104651 -7.3203125 1.61328125 C-4.6579461 0.07942656 -3.0521766 -0.0598466 0 0 Z " fill="#40A2CC" transform="translate(742.0625,122.6875)"/>
<path d="M0 0 C2.5 0.125 2.5 0.125 3.5 1.125 C3.54063832 2.79117115 3.542721 4.45888095 3.5 6.125 C5.15 6.125 6.8 6.125 8.5 6.125 C8.88218767 7.78114657 9.21395102 9.44957024 9.5 11.125 C9.17 11.455 8.84 11.785 8.5 12.125 C6.85 12.125 5.2 12.125 3.5 12.125 C3.83 15.425 4.16 18.725 4.5 22.125 C6.975 23.115 6.975 23.115 9.5 24.125 C9.5 25.775 9.5 27.425 9.5 29.125 C8.08506449 29.23384119 6.66767057 29.31097617 5.25 29.375 C4.46109375 29.42140625 3.6721875 29.4678125 2.859375 29.515625 C0.5 29.125 0.5 29.125 -1.78125 27.53125 C-4.07184899 24.32441141 -3.90596042 22.27401048 -3.75 18.375 C-3.71390625 17.20453125 -3.6778125 16.0340625 -3.640625 14.828125 C-3.57101562 13.49007812 -3.57101562 13.49007812 -3.5 12.125 C-4.82 11.795 -6.14 11.465 -7.5 11.125 C-7.5 9.805 -7.5 8.485 -7.5 7.125 C-6.18 6.795 -4.86 6.465 -3.5 6.125 C-3.520625 5.320625 -3.54125 4.51625 -3.5625 3.6875 C-3.47911354 0.26865518 -3.40649644 0.17032482 0 0 Z " fill="#40A3CD" transform="translate(659.5,116.875)"/>
<path d="M0 0 C2.35546875 0.08984375 2.35546875 0.08984375 5 1 C7.48850254 4.46015212 9.10295591 8.16179452 11 12 C12.98 8.04 14.96 4.08 17 0 C19.475 0.495 19.475 0.495 22 1 C21.52269189 6.82618947 19.80741399 10.88664965 16.9375 15.9375 C16.56044922 16.62134766 16.18339844 17.30519531 15.79492188 18.00976562 C14.87299058 19.67857796 13.93784488 21.34007864 13 23 C11.35 23 9.7 23 8 23 C6.677356 20.46317484 5.36682639 17.92122349 4.0625 15.375 C3.68931641 14.66214844 3.31613281 13.94929687 2.93164062 13.21484375 C0.86599129 9.15798289 -0.66592017 5.62025299 -1 1 C-0.67 0.67 -0.34 0.34 0 0 Z " fill="#40A2CC" transform="translate(607,123)"/>
<path d="M0 0 C1.32 0.33 2.64 0.66 4 1 C4 1.99 4 2.98 4 4 C5.32 4.33 6.64 4.66 8 5 C8 6.32 8 7.64 8 9 C5.36 9 2.72 9 0 9 C-0.33 9.99 -0.66 10.98 -1 12 C-0.113125 12.226875 0.77375 12.45375 1.6875 12.6875 C5.55992593 14.22185744 7.501601 15.66880134 10 19 C10.0625 22.125 10.0625 22.125 9 25 C5.9 28 5.9 28 3 28 C3 29.65 3 31.3 3 33 C1.68 33 0.36 33 -1 33 C-1 31.68 -1 30.36 -1 29 C-1.804375 28.87625 -2.60875 28.7525 -3.4375 28.625 C-4.7059375 28.315625 -4.7059375 28.315625 -6 28 C-6.33 27.34 -6.66 26.68 -7 26 C-6.505 24.515 -6.505 24.515 -6 23 C-3.03 23 -0.06 23 3 23 C3.33 22.01 3.66 21.02 4 20 C2.39125 19.6596875 2.39125 19.6596875 0.75 19.3125 C-3.42252262 17.85211708 -4.86219435 16.83023512 -7 13 C-6.92784684 9.96956707 -6.44044069 8.55533826 -4.5625 6.1875 C-3 5 -3 5 -1 5 C-0.67 3.35 -0.34 1.7 0 0 Z " fill="#419EC6" transform="translate(273,76)"/>
<path d="M0 0 C2.5 0.125 2.5 0.125 3.5 1.125 C3.59899523 2.67455559 3.63079524 4.22853673 3.6328125 5.78125 C3.63410156 6.72097656 3.63539063 7.66070312 3.63671875 8.62890625 C3.63285156 9.61761719 3.62898437 10.60632813 3.625 11.625 C3.62886719 12.61371094 3.63273438 13.60242188 3.63671875 14.62109375 C3.63542969 15.56082031 3.63414062 16.50054687 3.6328125 17.46875 C3.63168457 18.33693359 3.63055664 19.20511719 3.62939453 20.09960938 C3.5 22.125 3.5 22.125 2.5 23.125 C0 23.25 0 23.25 -2.5 23.125 C-4.12200515 21.50299485 -3.6299075 19.70476969 -3.6328125 17.46875 C-3.63410156 16.52902344 -3.63539063 15.58929688 -3.63671875 14.62109375 C-3.63285156 13.63238281 -3.62898437 12.64367187 -3.625 11.625 C-3.62886719 10.63628906 -3.63273438 9.64757812 -3.63671875 8.62890625 C-3.63542969 7.68917969 -3.63414062 6.74945313 -3.6328125 5.78125 C-3.63168457 4.91306641 -3.63055664 4.04488281 -3.62939453 3.15039062 C-3.43571596 0.11877282 -3.05153971 0.15257699 0 0 Z " fill="#40A1CB" transform="translate(674.5,122.875)"/>
<path d="M0 0 C1.66611905 -0.042721 3.33382885 -0.04063832 5 0 C6.62200515 1.62200515 6.1299075 3.42023031 6.1328125 5.65625 C6.13410156 6.59597656 6.13539063 7.53570312 6.13671875 8.50390625 C6.13285156 9.49261719 6.12898437 10.48132813 6.125 11.5 C6.12886719 12.48871094 6.13273438 13.47742188 6.13671875 14.49609375 C6.13542969 15.43582031 6.13414062 16.37554687 6.1328125 17.34375 C6.13168457 18.21193359 6.13055664 19.08011719 6.12939453 19.97460938 C6 22 6 22 5 23 C2.5 23.125 2.5 23.125 0 23 C-1.58413359 21.41586641 -1.12979629 19.79022215 -1.1328125 17.59765625 C-1.13474609 16.26250977 -1.13474609 16.26250977 -1.13671875 14.90039062 C-1.13285156 13.96388672 -1.12898437 13.02738281 -1.125 12.0625 C-1.12886719 11.12986328 -1.13273438 10.19722656 -1.13671875 9.23632812 C-1.13542969 8.34494141 -1.13414062 7.45355469 -1.1328125 6.53515625 C-1.13168457 5.714104 -1.13055664 4.89305176 -1.12939453 4.04711914 C-1 2 -1 2 0 0 Z " fill="#40A1CB" transform="translate(547,123)"/>
<path d="M0 0 C2.5 0.25 2.5 0.25 4.5 2.25 C5.05186722 8.32053942 5.05186722 8.32053942 3.3125 11.25 C1.5 12.25 1.5 12.25 -1.125 12.0625 C-3.5 11.25 -3.5 11.25 -4.5 9.25 C-4.6875 5.75 -4.6875 5.75 -4.5 2.25 C-2.5 0.25 -2.5 0.25 0 0 Z " fill="#434950" transform="translate(692.5,128.75)"/>
<path d="M0 0 C2.9375 0.1875 2.9375 0.1875 3.9375 1.1875 C4.17630597 8.70988806 4.17630597 8.70988806 2.9375 11.1875 C0.0625 11.3125 0.0625 11.3125 -3.0625 11.1875 C-5.0625 9.1875 -5.0625 9.1875 -5.3125 5.6875 C-4.99383749 1.22622492 -4.5162194 0.27650323 0 0 Z " fill="#434A52" transform="translate(594.0625,128.8125)"/>
<path d="M0 0 C1 1 1 1 1.125 4 C1 7 1 7 0 8 C-3 8.125 -3 8.125 -6 8 C-7 7 -7 7 -7.0625 3.4375 C-7.041875 2.303125 -7.02125 1.16875 -7 0 C-4.31633121 -1.3418344 -2.84719317 -0.73004953 0 0 Z " fill="#4A4C52" transform="translate(498,81)"/>
<path d="M0 0 C0.928125 0.20625 1.85625 0.4125 2.8125 0.625 C3.1425 2.275 3.4725 3.925 3.8125 5.625 C-0.1475 5.625 -4.1075 5.625 -8.1875 5.625 C-5.07638889 -0.59722222 -5.07638889 -0.59722222 0 0 Z " fill="#4B4D53" transform="translate(495.1875,68.375)"/>
<path d="M0 0 C2.5625 0.1875 2.5625 0.1875 4.5625 2.1875 C4.1875 4.8125 4.1875 4.8125 3.5625 7.1875 C1.56295254 7.23004356 -0.43791636 7.22830783 -2.4375 7.1875 C-3.4375 6.1875 -3.4375 6.1875 -3.5625 3.6875 C-3.39599509 0.35740177 -3.31519894 0.2550153 0 0 Z " fill="#409FC8" transform="translate(549.4375,112.8125)"/>
<path d="M0 0 C2.33944736 0.28730055 4.6739143 0.61936779 7 1 C7 2.65 7 4.3 7 6 C4.03 6 1.06 6 -2 6 C-1.125 1.125 -1.125 1.125 0 0 Z " fill="#4C4E54" transform="translate(651,69)"/>
<path d="M0 0 C3.125 0.375 3.125 0.375 6 1 C6.042721 2.66611905 6.04063832 4.33382885 6 6 C5 7 5 7 1.9375 7.0625 C0.968125 7.041875 -0.00125 7.02125 -1 7 C-1.625 4.625 -1.625 4.625 -2 2 C-1.34 1.34 -0.68 0.68 0 0 Z " fill="#40A0C9" transform="translate(672,113)"/>
<path d="M0 0 C2.37599719 3.56399578 3.15731805 7.08381174 4.125 11.1875 C4.39763672 12.31188477 4.39763672 12.31188477 4.67578125 13.45898438 C5.12251686 15.30470781 5.5619694 17.15219132 6 19 C5.34 19 4.68 19 4 19 C3.67 19.66 3.34 20.32 3 21 C2.49432271 18.43850372 1.99529868 15.87600535 1.5 13.3125 C1.35691406 12.59126953 1.21382812 11.87003906 1.06640625 11.12695312 C0.34428113 7.36158641 -0.1824976 3.85526187 0 0 Z " fill="#66686C" transform="translate(27,65)"/>
<path d="M0 0 C0.33 0 0.66 0 1 0 C0.45136137 6.7857936 -0.54267938 13.35009036 -2 20 C-2.99 20 -3.98 20 -5 20 C-4.546047 17.79076207 -4.08663994 15.58264447 -3.625 13.375 C-3.36976562 12.14523438 -3.11453125 10.91546875 -2.8515625 9.6484375 C-2.07977727 6.34179804 -1.13180625 3.19858287 0 0 Z " fill="#64666B" transform="translate(69,65)"/>
<path d="M0 0 C0.33 0.99 0.66 1.98 1 3 C-2.3 3.33 -5.6 3.66 -9 4 C-9 3.34 -9 2.68 -9 2 C-9.66 1.67 -10.32 1.34 -11 1 C-7.32589215 -0.17571451 -3.83070817 -0.07366746 0 0 Z " fill="#434E57" transform="translate(643,129)"/>
<path d="M0 0 C-0.33 1.65 -0.66 3.3 -1 5 C-2.65 4.67 -4.3 4.34 -6 4 C-6 2.68 -6 1.36 -6 0 C-3.50907189 -1.24546405 -2.58919267 -0.7767578 0 0 Z " fill="#4195B9" transform="translate(298,135)"/>
<path d="M0 0 C2.0625 0.4375 2.0625 0.4375 4 1 C3.67 3.31 3.34 5.62 3 8 C2.01 8.33 1.02 8.66 0 9 C-0.87890625 2.84765625 -0.87890625 2.84765625 -1 1 C-0.67 0.67 -0.34 0.34 0 0 Z " fill="#435662" transform="translate(273,37)"/>
<path d="M0 0 C3.34373475 0.55728913 6.03312999 1.35173889 9 3 C8.34 3 7.68 3 7 3 C7 3.66 7 4.32 7 5 C4.69 4.67 2.38 4.34 0 4 C0 2.68 0 1.36 0 0 Z " fill="#435561" transform="translate(740,128)"/>
<path d="M0 0 C2.125 0.9375 2.125 0.9375 4 2 C3.67 3.32 3.34 4.64 3 6 C1.35 5.67 -0.3 5.34 -2 5 C-2 3.68 -2 2.36 -2 1 C-1.34 0.67 -0.68 0.34 0 0 Z " fill="#419AC0" transform="translate(253,134)"/>
<path d="M0 0 C1.65 0 3.3 0 5 0 C4.67 1.65 4.34 3.3 4 5 C2.35 4.67 0.7 4.34 -1 4 C-0.67 2.68 -0.34 1.36 0 0 Z " fill="#419AC1" transform="translate(222,83)"/>
<path d="M0 0 C2.0625 0.4375 2.0625 0.4375 4 1 C3.67 2.65 3.34 4.3 3 6 C1.68 6 0.36 6 -1 6 C-1.042721 4.33388095 -1.04063832 2.66617115 -1 1 C-0.67 0.67 -0.34 0.34 0 0 Z " fill="#4199BF" transform="translate(317,62)"/>
<path d="M0 0 C1.98 0.495 1.98 0.495 4 1 C4 2.65 4 4.3 4 6 C2.35 5.67 0.7 5.34 -1 5 C-0.67 3.35 -0.34 1.7 0 0 Z " fill="#419AC0" transform="translate(229,62)"/>
<path d="M0 0 C1.65 0 3.3 0 5 0 C5.33 1.32 5.66 2.64 6 4 C4.35 4.33 2.7 4.66 1 5 C0.67 3.35 0.34 1.7 0 0 Z " fill="#419BC1" transform="translate(242,47)"/>
<path d="M0 0 C1.65 0 3.3 0 5 0 C5 1.65 5 3.3 5 5 C3.35 4.67 1.7 4.34 0 4 C0 2.68 0 1.36 0 0 Z " fill="#419EC6" transform="translate(322,83)"/>
<path d="M0 0 C1.65 0 3.3 0 5 0 C4.67 1.65 4.34 3.3 4 5 C2.68 5 1.36 5 0 5 C0 3.35 0 1.7 0 0 Z " fill="#419EC6" transform="translate(302,47)"/>
<path d="M0 0 C2.475 0.495 2.475 0.495 5 1 C4.67 2.32 4.34 3.64 4 5 C2.68 5 1.36 5 0 5 C0 3.35 0 1.7 0 0 Z " fill="#41A0C8" transform="translate(272,139)"/>
<path d="M0 0 C1.98 0 3.96 0 6 0 C5.67 1.32 5.34 2.64 5 4 C3.35 3.67 1.7 3.34 0 3 C0 2.01 0 1.02 0 0 Z " fill="#434E57" transform="translate(637,137)"/>
<path d="M0 0 C1.32 0 2.64 0 4 0 C3.67 1.98 3.34 3.96 3 6 C2.34 6 1.68 6 1 6 C0.34 4.35 -0.32 2.7 -1 1 C-0.67 0.67 -0.34 0.34 0 0 Z " fill="#44525C" transform="translate(323,126)"/>
<path d="M0 0 C1.32 0 2.64 0 4 0 C3.67 2.31 3.34 4.62 3 7 C2.67 6.01 2.34 5.02 2 4 C1.34 4 0.68 4 0 4 C0 2.68 0 1.36 0 0 Z " fill="#444E58" transform="translate(222,126)"/>
</svg>
